<svg width="68" height="70" viewBox="0 0 68 70" fill="none" xmlns="http://www.w3.org/2000/svg">
<g filter="url(#filter0_d_326_189)">
<path d="M59.8105 34.5994C61.7287 18.7357 50.8256 4.20984 35.5058 2.22623C20.1861 0.242614 6.16254 11.5244 4.2443 27.3985C3.88623 30.3528 3.97076 33.3431 4.49518 36.2731L18.9316 56.6206C21.9064 58.2638 25.1701 59.3332 28.5489 59.7717C43.8844 61.7346 57.9079 50.4476 59.8105 34.5994Z" fill="url(#paint0_linear_326_189)"/>
</g>
<path d="M6.58074 27.6774C8.34217 13.1361 21.2158 2.78412 35.2341 4.6076C49.2524 6.43107 59.2774 19.7378 57.5055 34.2791C55.7336 48.8205 42.8966 59.1673 28.8574 57.3283C25.9304 56.9512 20.4945 55.5875 17.9334 53.1234L7.97107 38.4117C6.58074 36.5779 6.27758 30.2086 6.58074 27.6774Z" fill="#FBCA20" stroke="white" stroke-width="0.75"/>
<g style="mix-blend-mode:multiply">
<path d="M4.51074 36.2524C5.3418 37.5284 8.47789 38.0139 9.76368 38.6132C23.5625 41.79 18.367 54.8953 18.9472 56.6L4.51074 36.2524Z" fill="#E6E6E6"/>
</g>
<path d="M4.49512 36.3041C5.32618 37.58 7.10852 38.0139 8.39432 38.6131C19.0361 41.6609 17.7712 47.1468 18.3253 52.2556C18.3827 52.8238 18.3775 54.9728 18.9525 56.6774L4.49512 36.3041Z" fill="url(#paint1_linear_326_189)"/>
<path d="M17.0125 26.9802C17.0125 25.294 17.4682 24.005 18.3796 23.113C19.1609 22.3318 20.1928 21.9412 21.4753 21.9412C22.6472 21.9412 23.6466 22.3806 24.4734 23.2595C25.3067 24.1384 25.7234 25.1671 25.7234 26.3455C25.7234 27.6996 25.4532 28.9399 24.9128 30.0662C24.6199 30.6912 23.933 31.7654 22.8523 33.2888C22.5593 33.7055 22.1231 34.3533 21.5437 35.2322L21.0554 35.9646C20.7429 36.4399 20.5085 36.8142 20.3523 37.0876C20.2742 37.2244 20.2351 37.3057 20.2351 37.3318L25.5085 37.3416V39.9783H16.9734V37.5173C16.9734 37.4587 17.172 37.1332 17.5691 36.5408C17.7449 36.2608 17.9467 35.9548 18.1746 35.6228L18.8679 34.6072C19.2781 34.0473 19.9194 33.1521 20.7917 31.9216C21.6121 30.7693 22.2273 29.7244 22.6375 28.7869C22.9695 28.0186 23.1355 27.2309 23.1355 26.4236C23.1355 25.8832 22.9825 25.4242 22.6765 25.0466C22.3445 24.6495 21.9181 24.4509 21.3972 24.4509C20.6485 24.4509 20.1179 24.8839 19.8054 25.7498C19.7013 26.0297 19.6492 26.3682 19.6492 26.7654V27.449H17.0125V26.9802Z" fill="#62412B"/>
<path d="M35.4792 35.9548C35.4792 37.1397 35.0626 38.1456 34.2292 38.9724C33.3959 39.7927 32.3966 40.2029 31.2312 40.2029C30.0463 40.2029 29.0404 39.7895 28.2136 38.9626C27.3868 38.1293 26.9734 37.1267 26.9734 35.9548V26.199C26.9734 25.0141 27.3901 24.0082 28.2234 23.1814C29.0567 22.3546 30.0593 21.9412 31.2312 21.9412C32.4161 21.9412 33.4187 22.3578 34.239 23.1912C35.0658 24.0245 35.4792 25.0271 35.4792 26.199V35.9548ZM32.696 26.1404C32.696 25.7172 32.5431 25.3559 32.2371 25.0564C31.9376 24.7504 31.573 24.5974 31.1433 24.5974C30.7201 24.5974 30.3588 24.7504 30.0593 25.0564C29.7598 25.3559 29.6101 25.7172 29.6101 26.1404V35.9158C29.6101 36.3389 29.7598 36.7035 30.0593 37.0095C30.3588 37.309 30.7201 37.4587 31.1433 37.4587C31.573 37.4587 31.9376 37.309 32.2371 37.0095C32.5431 36.7035 32.696 36.3389 32.696 35.9158V26.1404ZM41.7781 29.2654C41.7781 29.8708 41.5567 30.3917 41.114 30.8279C40.6778 31.2576 40.157 31.4724 39.5515 31.4724C38.933 31.4724 38.4057 31.2576 37.9695 30.8279C37.5398 30.3917 37.325 29.8708 37.325 29.2654V24.1775C37.325 23.559 37.5398 23.0317 37.9695 22.5955C38.4057 22.1593 38.933 21.9412 39.5515 21.9412C40.1635 21.9412 40.6876 22.1625 41.1238 22.6052C41.56 23.0479 41.7781 23.572 41.7781 24.1775V29.2654ZM38.7019 29.2361C38.7019 29.4639 38.78 29.656 38.9363 29.8123C39.0925 29.9685 39.2846 30.0466 39.5125 30.0466C39.7338 30.0466 39.9226 29.9685 40.0789 29.8123C40.2351 29.656 40.3132 29.4639 40.3132 29.2361V24.1482C40.3132 23.9203 40.2351 23.7283 40.0789 23.572C39.9226 23.4158 39.7338 23.3376 39.5125 23.3376C39.2846 23.3376 39.0925 23.4158 38.9363 23.572C38.78 23.7283 38.7019 23.9203 38.7019 24.1482V29.2361ZM47.4617 30.6814C48.0802 30.6814 48.6042 30.9028 49.0339 31.3455C49.4636 31.7817 49.6785 32.3057 49.6785 32.9177V37.9958C49.6785 38.6143 49.4604 39.1384 49.0242 39.5681C48.588 39.9913 48.0671 40.2029 47.4617 40.2029C46.8497 40.2029 46.3256 39.988 45.8894 39.5583C45.4532 39.1222 45.2351 38.6013 45.2351 37.9958V32.9177C45.2351 32.2992 45.4532 31.7719 45.8894 31.3357C46.3256 30.8995 46.8497 30.6814 47.4617 30.6814ZM48.2332 32.8884C48.2332 32.6606 48.155 32.4685 47.9988 32.3123C47.8425 32.156 47.6505 32.0779 47.4226 32.0779C47.1947 32.0779 47.0027 32.156 46.8464 32.3123C46.6902 32.4685 46.6121 32.6606 46.6121 32.8884V37.9666C46.6121 38.1944 46.6902 38.3865 46.8464 38.5427C47.0027 38.699 47.1947 38.7771 47.4226 38.7771C47.6505 38.7771 47.8425 38.699 47.9988 38.5427C48.155 38.3865 48.2332 38.1944 48.2332 37.9666V32.8884ZM39.7468 39.9783H38.1746L47.2664 22.1658H48.8289L39.7468 39.9783Z" fill="#62412B"/>
<defs>
<filter id="filter0_d_326_189" x="0.226855" y="0.2" width="67.6024" height="69.5934" filterUnits="userSpaceOnUse" color-interpolation-filters="sRGB">
<feFlood flood-opacity="0" result="BackgroundImageFix"/>
<feColorMatrix in="SourceAlpha" type="matrix" values="0 0 0 0 0 0 0 0 0 0 0 0 0 0 0 0 0 0 127 0" result="hardAlpha"/>
<feOffset dx="2" dy="4"/>
<feGaussianBlur stdDeviation="2.9"/>
<feComposite in2="hardAlpha" operator="out"/>
<feColorMatrix type="matrix" values="0 0 0 0 0 0 0 0 0 0 0 0 0 0 0 0 0 0 0.19 0"/>
<feBlend mode="normal" in2="BackgroundImageFix" result="effect1_dropShadow_326_189"/>
<feBlend mode="normal" in="SourceGraphic" in2="effect1_dropShadow_326_189" result="shape"/>
</filter>
<linearGradient id="paint0_linear_326_189" x1="4.04568" y1="30.9783" x2="60.0457" y2="30.9783" gradientUnits="userSpaceOnUse">
<stop offset="0.01" stop-color="#EBC17D"/>
<stop offset="0.19" stop-color="#EDD089"/>
<stop offset="0.41" stop-color="#F4E8D9"/>
<stop offset="0.73" stop-color="#C08329"/>
<stop offset="0.95" stop-color="#EABE81"/>
</linearGradient>
<linearGradient id="paint1_linear_326_189" x1="24.2786" y1="37.2391" x2="7.38815" y2="49.9821" gradientUnits="userSpaceOnUse">
<stop offset="0.01" stop-color="#EBC17D"/>
<stop offset="0.19" stop-color="#EDD089"/>
<stop offset="0.41" stop-color="#F4E8D9"/>
<stop offset="0.73" stop-color="#C08329"/>
<stop offset="0.95" stop-color="#EABE81"/>
</linearGradient>
</defs>
</svg>
