<svg width="65" height="70" viewBox="0 0 65 70" fill="none" xmlns="http://www.w3.org/2000/svg">
<rect x="0.5" y="0.5" width="64" height="69" rx="10.5" stroke="#62412B"/>
<path d="M33.4416 50.757V49.9133C33.4416 42.8357 33.4416 35.7597 33.4416 28.6852C33.4301 28.2235 33.5773 27.7719 33.8588 27.4057C37.4285 22.6307 42.2035 19.9882 48.0912 19.2603C48.5873 19.2001 48.7031 19.3438 48.7031 19.8306C48.7031 27.3995 48.7031 34.9716 48.7031 42.5467C48.7031 42.9315 48.6753 43.1401 48.1886 43.1865C42.3194 43.6825 37.4517 46.1721 33.4416 50.757Z" fill="#62412B"/>
<path d="M31.615 50.7616C30.3885 49.3046 28.9782 48.0128 27.4195 46.9184C24.3429 44.7674 20.749 43.4745 17.0072 43.1726C16.5436 43.1262 16.3674 43.0149 16.3674 42.5003C16.4014 34.953 16.4184 27.4072 16.4184 19.863C16.4184 19.3994 16.4787 19.1815 17.0396 19.251C22.8392 19.9882 27.5493 22.6121 31.119 27.2666C31.4573 27.688 31.6376 28.2144 31.629 28.7547C31.6104 35.755 31.6104 42.7538 31.629 49.751L31.615 50.7616Z" fill="#62412B"/>
<path d="M14.5501 24.5314V43.4647C14.5501 44.5958 14.7726 44.8137 15.9038 44.8555C20.2526 44.9754 24.4293 46.5803 27.7394 49.4033C28.0502 49.6575 28.3288 49.9487 28.5692 50.2703C23.4363 48.4389 17.8677 48.2125 12.603 49.6212C12.5017 49.3553 12.4745 49.0669 12.5242 48.7867C12.5242 41.1884 12.5242 33.5901 12.501 25.9918C12.501 25.2686 12.7189 24.9672 13.3772 24.8467C13.7527 24.7818 14.119 24.652 14.5501 24.5314Z" fill="#FBCA20"/>
<path d="M36.4642 50.3166C38.9597 47.7856 42.1434 46.043 45.6202 45.3051C46.818 45.0635 48.0337 44.9209 49.2548 44.8786C50.2237 44.8276 50.4695 44.568 50.4741 43.5759V24.6148C52.5 24.9533 52.5 24.9533 52.5 26.8865V49.649C47.2122 48.2267 41.6155 48.4597 36.4642 50.3166Z" fill="#FBCA20"/>
</svg>
