<svg width="65" height="70" viewBox="0 0 65 70" fill="none" xmlns="http://www.w3.org/2000/svg">
<rect x="0.5" y="0.5" width="64" height="69" rx="10.5" stroke="#62412B"/>
<path d="M18.0665 40.5108H47.7542V48.8605H18.0665V40.5108Z" fill="#FBCA20"/>
<path d="M22.7052 27.9863H43.1155V35.8721H22.7052V27.9863Z" fill="#FBCA20"/>
<path d="M51.164 52.3727C50.9051 52.3426 50.6436 52.3426 50.3847 52.3727C49.6379 52.5072 49.5127 52.1593 49.5219 51.4821C49.5591 48.9076 49.5219 46.3285 49.5219 43.754C49.5388 43.2338 49.4826 42.7139 49.355 42.2093C49.1237 41.3768 48.6222 40.6447 47.9294 40.1283C47.2367 39.6119 46.3919 39.3404 45.528 39.3565C44.2802 39.3565 44.2802 39.3565 44.2802 38.0808C44.2802 35.5574 44.2802 33.0339 44.2802 30.5058C44.2802 27.9777 42.6381 26.2939 40.0311 26.28C38.236 26.28 36.4408 26.28 34.6456 26.28C34.3812 26.28 33.9498 26.498 33.8663 26.048C33.7895 25.8441 33.7949 25.6184 33.8815 25.4184C33.968 25.2185 34.1289 25.06 34.3302 24.9765C34.8059 24.746 35.2287 24.4193 35.5717 24.0172C35.9148 23.615 36.1707 23.146 36.3233 22.6399C36.4759 22.1337 36.5218 21.6014 36.4582 21.0766C36.3946 20.5518 36.2228 20.046 35.9537 19.5909C35.2579 18.3153 34.5204 17.0628 33.7782 15.815C33.1148 14.711 31.983 14.7296 31.3196 15.8475C30.6563 16.9654 29.9559 18.1669 29.2879 19.3497C28.0215 21.581 28.6153 23.7704 30.8836 25.0229C31.3475 25.2873 31.2686 25.6445 31.2501 26.0063C31.2222 26.4701 30.8187 26.28 30.5821 26.2846C28.6848 26.2846 26.783 26.2846 24.8811 26.2846C24.3401 26.2675 23.8014 26.3622 23.2987 26.5629C22.796 26.7635 22.3402 27.0657 21.9596 27.4506C21.5791 27.8355 21.282 28.2948 21.0871 28.7998C20.8922 29.3047 20.8036 29.8445 20.8269 30.3852C20.8269 33.0664 20.7991 35.7476 20.8269 38.4287C20.8269 39.1477 20.7109 39.4539 19.8991 39.3565C17.5798 39.106 15.4645 40.929 15.5341 43.6937C15.5944 46.1429 15.5341 48.5875 15.5341 51.0368C15.5341 52.3449 15.5341 52.3449 14.2585 52.3542C13.9441 52.3278 13.6278 52.3689 13.3307 52.4748C13.084 52.563 12.8713 52.7264 12.7223 52.9419C12.5734 53.1575 12.4958 53.4143 12.5004 53.6762C12.4939 53.9384 12.5689 54.1961 12.7152 54.4138C12.8614 54.6315 13.0716 54.7984 13.3168 54.8915C13.6146 54.9941 13.9323 55.0259 14.2445 54.9843H51.0249C51.9155 54.9843 52.4768 54.4833 52.5 53.7226C52.5012 53.3666 52.3613 53.0247 52.1109 52.7716C51.8605 52.5186 51.52 52.3752 51.164 52.3727ZM31.4588 20.8805C31.7742 20.2589 32.1407 19.6652 32.5628 18.9183C32.9896 19.6652 33.37 20.2775 33.69 20.9176C33.8464 21.1777 33.9003 21.4867 33.8411 21.7843C33.7819 22.0819 33.6139 22.3468 33.37 22.5272C33.1531 22.7212 32.8723 22.8285 32.5814 22.8285C32.2904 22.8285 32.0096 22.7212 31.7928 22.5272C31.5367 22.3478 31.3593 22.077 31.2971 21.7705C31.235 21.4641 31.2928 21.1455 31.4588 20.8805ZM23.4895 30.0698C23.5173 29.3137 24.0693 28.9194 24.9646 28.9148C26.6531 28.9148 28.3462 28.9148 30.0394 28.9148H39.9569C41.2604 28.9148 41.6733 29.3276 41.6733 30.645C41.6733 31.6315 41.6733 32.6195 41.6733 33.6091C41.6733 33.6509 41.6269 33.688 41.5758 33.7715L40.7641 32.9783C38.8807 31.1228 36.5892 31.1228 34.6966 32.9783C34.3441 33.3262 34.0194 33.7019 33.6622 34.0405C32.8133 34.8384 32.2103 34.8384 31.3707 34.0405C30.9393 33.6277 30.545 33.1731 30.1043 32.7695C28.3973 31.2063 26.2866 31.1877 24.5379 32.7185C24.2085 33.0107 23.9116 33.3447 23.4663 33.7947C23.4756 32.4448 23.4385 31.2573 23.4895 30.0698ZM46.9243 44.6678C46.9087 44.7293 46.8787 44.7862 46.8368 44.8338C46.7948 44.8814 46.7421 44.9184 46.6831 44.9415C45.6904 45.359 45.0131 46.1615 44.2895 46.9083C43.2643 47.9659 42.6427 47.9613 41.599 46.9083C41.214 46.5187 40.8476 46.1105 40.444 45.7486C39.718 45.0408 38.7443 44.6447 37.7304 44.6447C36.7164 44.6447 35.7427 45.0408 35.0167 45.7486C34.5528 46.1661 34.14 46.6393 33.69 47.0753C32.8411 47.9056 32.2056 47.9103 31.3335 47.0753C30.8697 46.6114 30.4383 46.1476 29.9419 45.6837C29.205 44.9861 28.2247 44.6039 27.21 44.6186C26.1953 44.6333 25.2264 45.0438 24.51 45.7626C24.0137 46.2264 23.5823 46.732 23.072 47.1913C22.404 47.8082 21.8242 47.8314 21.133 47.2609C20.1496 46.4491 19.3657 45.4332 18.3498 44.6261C17.8859 44.2689 18.1457 43.4571 18.2849 42.8634C18.3292 42.6305 18.4491 42.4188 18.6261 42.2611C18.8031 42.1034 19.0272 42.0086 19.2636 41.9913C19.5485 41.9588 19.8351 41.9448 20.1218 41.9495H44.9946C46.6227 41.9727 47.4067 43.0582 46.9243 44.6678Z" fill="#62412B"/>
</svg>
