<svg width="63" height="54" viewBox="0 0 63 54" fill="none" xmlns="http://www.w3.org/2000/svg">
<rect x="0.85" y="0.35" width="61.3" height="53.3" rx="10.65" stroke="#F3EDE7" stroke-width="0.7"/>
<path d="M47.9761 17.9991C47.9678 15.6907 46.2587 13.7195 44.0232 13.2732C42.9457 13.0578 41.8612 13.1963 40.7809 13.1613C40.4651 13.1515 40.2477 13.1739 40.1909 12.7262C40.1299 12.2436 39.7421 11.9931 39.2366 12.0001C38.7311 12.0071 38.3543 12.2674 38.3058 12.7556C38.2629 13.1865 38.0468 13.1585 37.7629 13.1571C36.1701 13.1571 34.5783 13.1571 32.9873 13.1571C32.6993 13.1571 32.4887 13.1795 32.4444 12.7528C32.3946 12.2646 32.0164 12.0071 31.5123 12.0001C31.0081 11.9931 30.6176 12.2464 30.5594 12.729C30.504 13.1823 30.2824 13.1599 29.968 13.1585C28.4001 13.1585 26.8309 13.1487 25.2589 13.1585C24.9223 13.1585 24.734 13.1347 24.6827 12.708C24.6315 12.2813 24.3005 12.0365 23.8517 12.0085C23.403 11.9806 22.9542 12.0981 22.9043 12.5192C22.8088 13.3068 22.2991 13.1557 21.824 13.1585C21.2936 13.1585 20.7631 13.1585 20.2326 13.1585C17.1274 13.1585 15.0083 15.2752 15.0055 18.3936C14.9982 24.5222 14.9982 30.6508 15.0055 36.7794C14.9872 37.1979 15.0174 37.6172 15.0956 38.0287C15.6648 40.4574 17.5471 41.9781 20.0955 41.9907C23.8794 42.0103 27.6619 41.9907 31.4527 41.9907C35.2823 41.9907 39.1119 42.0117 42.9415 41.9907C45.7891 41.9711 47.965 39.9048 47.9775 37.1585C48.008 30.7716 48.0075 24.3851 47.9761 17.9991ZM31.5054 35.3328C30.1033 35.3369 28.7315 34.9208 27.5637 34.1369C26.3959 33.3531 25.4846 32.2369 24.9453 30.9296C24.4059 29.6223 24.2628 28.1827 24.5339 26.7932C24.805 25.4037 25.4782 24.1267 26.4683 23.1238C27.4584 22.121 28.7208 21.4375 30.0957 21.1598C31.4706 20.8822 32.8961 21.0229 34.1918 21.5641C35.4875 22.1053 36.5951 23.0227 37.3743 24.2001C38.1535 25.3775 38.5693 26.762 38.569 28.1783C38.5661 30.0715 37.8216 31.8866 36.4981 33.2271C35.1746 34.5677 33.3796 35.3247 31.5054 35.3328Z" fill="#FBCA20"/>
<path d="M31.5054 23.0495C30.5029 23.0531 29.524 23.3565 28.6921 23.9214C27.8601 24.4864 27.2125 25.2875 26.8308 26.2238C26.4492 27.1601 26.3506 28.1897 26.5475 29.1825C26.7445 30.1753 27.2281 31.087 27.9374 31.8025C28.6468 32.518 29.55 33.0053 30.5332 33.2029C31.5163 33.4004 32.5354 33.2995 33.4619 32.9127C34.3883 32.5259 35.1806 31.8706 35.7387 31.0295C36.2969 30.1884 36.5959 29.1992 36.5981 28.1867C36.5955 26.8238 36.0579 25.5176 35.1032 24.5545C34.1485 23.5915 32.8546 23.0502 31.5054 23.0495ZM34.1106 27.9656C33.1812 28.7239 32.2574 29.4933 31.3156 30.2376C30.7394 30.6923 30.2242 30.6335 29.7561 30.0753C29.3849 29.6332 29.0331 29.173 28.6938 28.7057C28.3184 28.1867 28.3669 27.6355 28.7907 27.2773C29.2145 26.9192 29.8696 26.9248 30.1827 27.4438C30.648 28.216 31.0137 28.0034 31.5109 27.5235C31.9722 27.1033 32.4559 26.7086 32.9596 26.3414C33.1116 26.214 33.2998 26.139 33.497 26.1274C33.6941 26.1158 33.8897 26.1683 34.0552 26.277C34.3765 26.4715 34.5455 26.7541 34.5441 27.2102C34.5524 27.4956 34.3779 27.7558 34.1161 27.9684L34.1106 27.9656Z" fill="#F3EDE7"/>
</svg>
