<svg width="27" height="46" viewBox="0 0 27 46" fill="none" xmlns="http://www.w3.org/2000/svg">
<path d="M0.999197 21.43V28.899C1.1066 28.8931 1.21303 28.8754 1.31653 28.8461C4.70899 27.3838 8.39315 26.7242 12.0822 26.9186C14.4087 26.944 16.6613 27.7396 18.4876 29.181C19.5983 30.0508 20.5385 31.0968 21.5551 32.0664C22.7353 33.2594 24.2723 34.0351 25.9331 34.2759C26.4444 34.3406 26.697 34.2759 26.6912 33.6354C26.6637 27.7589 26.6637 21.904 26.6912 16.0706C26.7 15.85 26.6598 15.6301 26.5735 15.4269C26.4871 15.2236 26.3567 15.0421 26.1917 14.8953C24.5512 13.335 22.4751 12.3103 20.2388 11.9571C17.0567 11.4307 13.8088 11.4426 10.6307 11.9923C7.49658 12.3918 4.46827 13.3892 1.71025 14.9306C1.47404 15.0286 1.27625 15.2009 1.14686 15.4215C1.01748 15.6421 0.963563 15.8989 0.993315 16.1529C1.03445 17.9158 0.999197 19.6729 0.999197 21.43Z" fill="#FFCB18"/>
<path d="M26.6853 37.9547C26.6294 37.4587 26.6294 36.958 26.6853 36.462C26.7147 36.0213 26.5854 35.8744 26.0976 35.8744C24.3028 35.7894 22.5906 35.095 21.2437 33.9058C20.2329 33.0243 19.2868 32.0664 18.3054 31.1438C17.1627 29.9538 15.6885 29.1348 14.0744 28.7932C9.78777 28.0542 5.37739 28.6704 1.45756 30.5562C1.01682 30.7619 0.981567 31.0557 0.981567 31.4612C0.981567 33.4474 0.981567 35.4395 0.981567 37.4258C0.981567 39.653 1.18137 39.935 3.27927 40.7284C3.54959 40.8341 3.83165 40.9105 4.11372 40.9928C7.28115 41.9448 10.5485 42.0858 13.5866 42.1681C15.5647 42.1659 17.5408 42.0442 19.5042 41.8038C21.4211 41.6172 23.3001 41.1499 25.081 40.4169C26.174 39.9585 26.9086 39.2828 26.6853 37.9547Z" fill="#FFCB18"/>
<path d="M1.0051 13.5143C1.49873 13.2616 1.85132 13.0735 2.21566 12.9266C6.54662 10.864 11.1538 10.1353 15.902 10.0942C19.7393 10.0942 23.3945 10.6818 26.6383 13.2028C26.6383 11.5927 26.6971 10.1353 26.6383 8.67793C26.6344 8.1046 26.5057 7.53901 26.2611 7.02044C26.0165 6.50187 25.662 6.04277 25.2221 5.67506C25.0282 5.52227 24.893 5.34597 24.5463 5.4635C21.2357 6.43892 17.7954 6.90265 14.3447 6.83861C10.8188 6.87975 7.2518 6.69757 3.84932 5.66331C2.79743 5.33423 2.35081 5.7162 1.83955 6.39199C1.57414 6.7409 1.38405 7.14111 1.2813 7.56729C0.799428 9.44776 1.06975 11.4164 1.0051 13.5143Z" fill="#FFCB18"/>
<path d="M3.68477 3.90039C6.9756 4.98167 10.384 5.16971 13.8158 5.19909C16.3301 5.23855 18.8426 5.0418 21.3201 4.61144C22.5889 4.41058 23.827 4.04921 25.0046 3.53604C25.3396 3.37737 25.8038 3.24222 25.8273 2.83087C25.8509 2.41952 25.369 2.27847 25.0399 2.12569C24.6184 1.93086 24.1846 1.764 23.7412 1.62618C19.7981 0.450886 15.7374 0.298097 11.665 0.450886C8.94665 0.488145 6.24755 0.913606 3.64951 1.71434C2.97372 1.93765 1.88657 2.10218 1.88657 2.78973C1.88657 3.47728 2.97959 3.67121 3.68477 3.90039ZM18.611 1.98466C18.8696 1.98466 19.1282 1.98466 19.3926 1.98466C19.5021 1.97714 19.612 1.99277 19.7151 2.03055C19.8181 2.06832 19.9121 2.12739 19.9908 2.20389C20.0695 2.2804 20.1313 2.37263 20.172 2.47458C20.2127 2.57653 20.2314 2.68593 20.2271 2.79561C20.2363 2.90523 20.2205 3.0155 20.181 3.11817C20.1416 3.22084 20.0793 3.31323 19.9991 3.38843C19.9188 3.46362 19.8225 3.51967 19.7175 3.55236C19.6124 3.58505 19.5014 3.59353 19.3926 3.57718H18.517C17.9822 3.54192 17.0831 3.7946 17.0831 2.80148C17.0831 1.80835 17.947 1.98466 18.611 1.98466Z" fill="#62412B"/>
<path d="M3.19701 42.4031C4.25729 43.5642 5.66571 44.3498 7.21066 44.642C10.7793 45.4626 14.4684 45.6199 18.0939 45.1063C19.8417 44.9636 21.5389 44.4487 23.0713 43.596C23.585 43.3809 24.0028 42.9861 24.2466 42.4854C17.3383 44.2574 10.0912 44.2291 3.19701 42.4031Z" fill="#FFCB18"/>
</svg>
