<svg width="45" height="37" viewBox="0 0 45 37" fill="none" xmlns="http://www.w3.org/2000/svg">
<rect x="9" y="1" width="35" height="35" rx="17.5" stroke="#62412B" stroke-width="0.6"/>
<path d="M0.146447 18.1464C-0.0488155 18.3417 -0.0488155 18.6583 0.146447 18.8536L3.32843 22.0355C3.52369 22.2308 3.84027 22.2308 4.03553 22.0355C4.2308 21.8403 4.2308 21.5237 4.03553 21.3284L1.20711 18.5L4.03553 15.6716C4.2308 15.4763 4.2308 15.1597 4.03553 14.9645C3.84027 14.7692 3.52369 14.7692 3.32843 14.9645L0.146447 18.1464ZM26.5 19C26.7761 19 27 18.7761 27 18.5C27 18.2239 26.7761 18 26.5 18V19ZM0.5 19H26.5V18H0.5V19Z" fill="#62412B"/>
</svg>
