<svg width="110" height="154" viewBox="0 0 110 154" fill="none" xmlns="http://www.w3.org/2000/svg">
<path d="M69.0617 88.975C68.0617 84.675 64.5617 80.875 60.2617 79.775C55.9617 78.575 51.3617 79.975 47.6617 82.075C43.6617 84.275 40.1617 87.475 37.5617 91.175C36.0617 93.275 35.0617 95.575 34.9617 98.175C34.9617 98.475 34.9617 98.675 34.9617 98.975C34.5617 100.675 34.5617 102.375 34.7617 104.075C35.0617 106.075 36.0617 107.775 37.3617 109.175C37.4617 109.375 37.5617 109.475 37.6617 109.675C37.7617 109.775 37.8617 109.875 37.9617 109.775C39.4617 111.175 41.4617 112.175 43.5617 112.575C47.9617 113.375 52.2617 111.875 56.0617 109.775C59.9617 107.575 63.5617 104.475 66.1617 100.875C68.3617 97.375 69.9617 93.175 69.0617 88.975ZM57.7617 106.575C54.6617 108.775 50.9617 110.775 47.0617 111.175C43.0617 111.575 38.6617 110.075 36.6617 106.375C36.5617 106.075 36.3617 105.875 36.2617 105.575C35.9617 104.575 35.7617 103.475 35.7617 102.375C35.7617 101.375 35.7617 100.275 35.7617 99.275C36.1617 97.075 37.0617 94.975 38.1617 93.275C40.7617 89.175 44.6617 86.075 48.8617 83.875C49.8617 83.375 50.9617 82.875 51.9617 82.375C52.1617 82.275 52.0617 81.875 51.7617 81.975C49.5617 82.875 47.3617 83.975 45.3617 85.275C48.6617 82.875 52.6617 80.975 56.8617 80.975C60.9617 80.975 64.5617 83.375 66.4617 86.975C70.4617 94.475 63.5617 102.475 57.7617 106.575Z" fill="#926C15"/>
<path d="M58.6617 84.475C56.9617 85.675 56.0617 87.675 54.4617 89.175C52.6617 90.775 50.3617 91.175 48.2617 92.175C44.6617 93.875 42.4617 97.775 42.8617 101.675C42.8617 101.975 43.2617 101.975 43.2617 101.675C43.1617 99.675 43.8617 97.575 44.8617 95.975C46.0617 94.175 47.7617 93.175 49.8617 92.575C51.9617 91.975 53.9617 91.475 55.5617 90.075C56.4617 89.275 57.2617 88.275 57.9617 87.275C57.6617 88.075 57.1617 88.775 56.6617 89.375C55.7617 90.375 54.6617 91.075 53.5617 91.775C51.3617 93.175 48.8617 94.375 47.0617 96.275C45.9617 97.375 45.1617 98.775 44.6617 100.275C44.4617 101.075 45.6617 101.475 45.9617 100.675C47.8617 95.375 54.0617 94.075 57.2617 89.775C58.0617 88.675 58.4617 87.575 58.6617 86.275C58.8617 85.975 59.0617 85.675 59.2617 85.375C59.6617 84.775 59.0617 84.075 58.6617 84.475Z" fill="#926C15"/>
<path d="M62.2617 91.375C61.4617 93.575 60.4617 95.575 58.9617 97.475C57.5617 99.175 55.7617 100.675 53.8617 101.875C51.9617 103.075 49.8617 104.075 47.8617 104.975C45.6617 105.875 43.2617 106.475 40.9617 105.575C40.8617 105.575 40.7617 105.675 40.8617 105.775C44.2617 107.275 48.1617 105.575 51.2617 104.075C54.6617 102.475 57.7617 100.375 60.1617 97.375C61.4617 95.675 62.5617 93.875 63.0617 91.775C63.2617 90.975 62.4617 90.775 62.2617 91.375Z" fill="#926C15"/>
<path d="M53.0617 107.075C51.3617 107.575 49.5617 107.575 47.8617 107.275C47.5617 107.175 47.4617 107.675 47.7617 107.775C48.6617 107.975 49.5617 108.075 50.5617 108.075C51.4617 108.075 52.4617 107.975 53.2617 107.675C53.5617 107.475 53.4617 106.975 53.0617 107.075Z" fill="#926C15"/>
<path d="M55.1617 106.175C54.4617 105.975 53.7617 105.975 53.0617 105.975C52.3617 105.975 51.6617 105.875 51.0617 105.675C50.6617 105.575 50.5617 106.075 50.8617 106.275C51.5617 106.575 52.2617 106.675 52.9617 106.775C53.6617 106.875 54.4617 106.875 55.1617 106.675C55.4617 106.475 55.4617 106.175 55.1617 106.175Z" fill="#926C15"/>
<path d="M56.6617 104.675C56.1617 104.775 55.5617 104.775 54.9617 104.675C54.3617 104.575 53.7617 104.475 53.2617 104.375C52.9617 104.275 52.7617 104.775 53.1617 104.875C54.3617 105.275 55.6617 105.775 56.8617 105.375C57.1617 105.175 57.0617 104.575 56.6617 104.675Z" fill="#926C15"/>
<path d="M58.5617 102.875C58.2617 102.875 58.0617 102.875 57.7617 102.875C57.4617 102.875 57.2617 102.875 56.9617 102.875C56.4617 102.875 55.8617 102.775 55.3617 102.775C55.1617 102.775 55.0617 102.875 55.0617 103.075C55.0617 103.275 55.1617 103.375 55.3617 103.375C55.8617 103.375 56.3617 103.575 56.9617 103.575C57.5617 103.675 58.1617 103.775 58.6617 103.575C58.9617 103.375 58.8617 102.875 58.5617 102.875Z" fill="#926C15"/>
<path d="M61.2617 100.675C60.9617 100.675 60.6617 100.775 60.3617 100.875C60.0617 100.975 59.7617 101.075 59.4617 101.175C58.8617 101.375 58.3617 101.575 57.7617 101.575C57.5617 101.575 57.4617 101.875 57.4617 102.075C57.4617 102.275 57.6617 102.475 57.8617 102.475C58.4617 102.475 59.1617 102.375 59.7617 102.175C60.0617 102.075 60.3617 101.975 60.6617 101.875C60.7617 101.775 60.9617 101.775 61.0617 101.675C61.1617 101.575 61.3617 101.475 61.4617 101.375C61.7617 101.075 61.5617 100.675 61.2617 100.675Z" fill="#926C15"/>
<path d="M63.0617 99.575C63.0617 99.475 63.0617 99.475 63.0617 99.575C62.9617 99.475 62.9617 99.475 62.9617 99.475C62.9617 99.475 62.9617 99.475 62.8617 99.475C62.8617 99.475 62.8617 99.475 62.7617 99.475C62.6617 99.575 62.6617 99.575 62.5617 99.675C62.5617 99.675 62.4617 99.675 62.4617 99.775V99.875C62.4617 99.875 62.4617 99.875 62.4617 99.975C62.4617 99.975 62.4617 100.075 62.5617 100.075C62.5617 100.075 62.5617 100.075 62.6617 100.075H62.8617C62.8617 100.075 62.9617 100.075 62.9617 99.975L63.1617 99.775C63.0617 99.675 63.0617 99.575 63.0617 99.575Z" fill="#926C15"/>
<path d="M47.8617 88.175C47.7617 88.175 47.7617 88.175 47.8617 88.175V88.175Z" fill="#926C15"/>
<path d="M49.9617 86.775C49.8617 86.675 49.5617 86.775 49.4617 86.875C49.4617 86.975 49.3617 86.975 49.2617 87.075C49.1617 87.075 49.1617 87.175 49.0617 87.175C48.9617 87.375 48.7617 87.475 48.5617 87.675L48.4617 87.775C48.4617 87.775 48.2617 87.975 48.3617 87.875C48.2617 87.975 48.1617 87.975 48.0617 88.075C47.9617 88.175 47.8617 88.175 47.7617 88.175C47.6617 88.175 47.6617 88.175 47.5617 88.175H47.4617C47.4617 88.175 47.4617 88.175 47.3617 88.175C47.3617 88.175 47.3617 88.175 47.2617 88.075V87.875C47.2617 87.875 47.2617 87.875 47.2617 87.775C47.2617 87.775 47.2617 87.775 47.2617 87.675C47.2617 87.575 47.3617 87.475 47.3617 87.375L47.4617 87.275C47.4617 87.275 47.4617 87.175 47.5617 87.175C47.5617 87.175 47.5617 87.175 47.5617 87.075C47.8617 86.675 48.2617 86.375 48.5617 85.975C48.7617 85.675 48.3617 85.375 48.0617 85.575C47.7617 85.975 47.3617 86.275 47.0617 86.575C46.6617 86.975 46.2617 87.475 46.2617 88.075C46.2617 88.675 46.7617 89.175 47.2617 89.275C47.8617 89.375 48.4617 89.075 48.9617 88.775C49.2617 88.575 49.4617 88.375 49.6617 88.075C49.7617 87.975 49.8617 87.875 49.8617 87.675C49.8617 87.575 49.8617 87.575 49.8617 87.475C49.8617 87.375 49.8617 87.175 49.8617 87.075C50.2617 86.975 50.1617 86.775 49.9617 86.775Z" fill="#926C15"/>
<path d="M43.0617 92.575C42.8617 92.375 42.6617 92.275 42.3617 92.475H41.9617C41.8617 92.475 41.8617 92.375 41.7617 92.375L41.8617 92.475C41.7617 92.375 41.6617 92.375 41.5617 92.375C41.4617 92.375 41.4617 92.375 41.3617 92.375C41.1617 92.375 41.0617 92.475 40.9617 92.575C40.8617 92.675 40.8617 92.875 40.8617 92.975C40.8617 93.075 40.8617 93.075 40.9617 93.175C41.0617 93.275 41.0617 93.375 41.1617 93.375C41.2617 93.475 41.4617 93.575 41.5617 93.575C41.6617 93.575 41.6617 93.575 41.7617 93.575C41.8617 93.575 41.9617 93.575 42.0617 93.575C42.2617 93.575 42.4617 93.475 42.6617 93.475C42.7617 93.375 42.9617 93.275 43.0617 93.175C43.1617 93.075 43.2617 92.975 43.1617 92.775C43.1617 92.775 43.1617 92.675 43.0617 92.575Z" fill="#926C15"/>
<path d="M86.2617 49.075C83.2617 45.775 78.6617 44.575 74.2617 44.375C69.6617 44.175 65.0617 44.875 60.8617 46.675C58.4617 47.675 56.4617 49.075 54.9617 51.175C54.7617 51.375 54.6617 51.575 54.5617 51.875C53.3617 53.075 52.3617 54.475 51.7617 56.075C50.9617 57.875 50.8617 59.775 51.1617 61.675C51.5617 61.575 51.9617 61.475 52.4617 61.475C52.2617 60.775 52.2617 59.975 52.2617 59.175C52.2617 58.875 52.3617 58.575 52.3617 58.275C52.6617 57.175 53.0617 56.175 53.6617 55.275C54.1617 54.375 54.7617 53.475 55.3617 52.575C56.8617 50.975 58.7617 49.675 60.5617 48.775C64.8617 46.675 69.8617 46.175 74.6617 46.575C75.8617 46.675 76.9617 46.775 78.0617 46.975C78.2617 46.975 78.3617 46.575 78.1617 46.575C75.7617 46.175 73.3617 45.975 70.9617 45.975C75.0617 45.775 79.4617 46.275 82.9617 48.475C86.4617 50.675 88.1617 54.575 87.8617 58.675C87.4617 63.675 83.7617 66.775 79.2617 68.675C79.7617 68.975 80.1617 69.375 80.6617 69.875C84.2617 68.275 87.5617 65.575 88.8617 61.775C90.2617 57.375 89.2617 52.275 86.2617 49.075Z" fill="#926C15"/>
<path d="M82.3617 52.175C80.2617 52.275 78.4617 53.575 76.3617 53.875C73.9617 54.275 71.7617 53.375 69.4617 53.075C65.5617 52.575 61.5617 54.775 59.8617 58.275C59.7617 58.475 60.0617 58.775 60.2617 58.475C61.2617 56.775 62.8617 55.275 64.6617 54.475C66.6617 53.575 68.6617 53.675 70.6617 54.275C72.7617 54.875 74.6617 55.575 76.8617 55.175C78.0617 54.975 79.2617 54.575 80.4617 54.075C79.7617 54.575 78.9617 54.975 78.1617 55.175C76.8617 55.575 75.5617 55.575 74.3617 55.575C71.6617 55.575 68.9617 55.275 66.3617 55.975C64.8617 56.375 63.4617 57.075 62.2617 58.075C61.5617 58.675 62.4617 59.575 63.1617 59.075C67.5617 55.575 73.5617 57.775 78.4617 55.875C79.7617 55.375 80.6617 54.675 81.5617 53.675C81.8617 53.475 82.2617 53.375 82.5617 53.175C83.1617 52.975 82.9617 52.075 82.3617 52.175Z" fill="#926C15"/>
<path d="M81.7617 59.875C79.9617 61.275 77.9617 62.475 75.7617 63.275C73.6617 63.975 71.3617 64.275 69.1617 64.375C66.9617 64.375 64.6617 64.175 62.4617 63.775C60.1617 63.375 57.7617 62.575 56.2617 60.575C56.1617 60.475 56.0617 60.575 56.1617 60.675C58.2617 63.775 62.4617 64.375 65.9617 64.775C69.6617 65.175 73.4617 65.075 77.0617 63.875C79.0617 63.175 80.9617 62.175 82.5617 60.675C82.8617 60.175 82.2617 59.475 81.7617 59.875Z" fill="#926C15"/>
<path d="M73.8617 49.475C73.7617 49.375 73.5617 49.275 73.4617 49.275C73.3617 49.275 73.3617 49.275 73.2617 49.275C73.2617 49.275 73.2617 49.275 73.1617 49.275C73.0617 49.275 73.0617 49.275 72.9617 49.275C72.7617 49.375 72.5617 49.375 72.2617 49.475C72.1617 49.475 72.1617 49.475 72.0617 49.475C71.9617 49.475 71.7617 49.475 71.9617 49.475C71.8617 49.475 71.7617 49.475 71.5617 49.475C71.4617 49.475 71.3617 49.475 71.2617 49.475C71.1617 49.475 71.1617 49.475 71.0617 49.475C71.0617 49.475 70.9617 49.475 70.9617 49.375V49.275C70.9617 49.275 70.9617 49.275 70.9617 49.175L71.0617 49.075C71.0617 49.075 71.0617 49.075 71.1617 49.075C71.2617 48.975 71.3617 48.975 71.4617 48.875C71.4617 48.875 71.5617 48.875 71.5617 48.775H71.6617C71.6617 48.775 71.6617 48.775 71.7617 48.775C72.2617 48.575 72.7617 48.475 73.1617 48.375C73.4617 48.275 73.2617 47.675 72.9617 47.875C72.4617 47.975 72.0617 48.075 71.5617 48.175C71.0617 48.375 70.4617 48.475 70.1617 48.975C69.8617 49.475 69.9617 50.175 70.3617 50.575C70.8617 50.975 71.4617 51.075 72.0617 51.075C72.3617 51.075 72.6617 50.975 73.0617 50.875C73.1617 50.775 73.3617 50.775 73.4617 50.675L73.5617 50.575C73.6617 50.475 73.7617 50.375 73.8617 50.275C73.9617 49.775 73.9617 49.575 73.8617 49.475Z" fill="#926C15"/>
<path d="M64.8617 50.775C64.8617 50.575 64.6617 50.275 64.3617 50.275H64.2617C64.1617 50.275 64.1617 50.275 64.1617 50.275C64.1617 50.275 64.0617 50.275 64.0617 50.175C64.0617 50.175 64.0617 50.175 63.9617 50.075C63.9617 49.975 63.8617 49.975 63.8617 49.875V49.975C63.8617 49.875 63.7617 49.775 63.7617 49.675L63.6617 49.575C63.5617 49.475 63.3617 49.475 63.1617 49.575C63.0617 49.675 62.8617 49.775 62.8617 49.875C62.8617 49.975 62.7617 49.975 62.7617 50.075C62.7617 50.175 62.7617 50.275 62.8617 50.375C62.9617 50.575 62.9617 50.675 63.0617 50.775L63.1617 50.875C63.2617 50.975 63.3617 50.975 63.3617 51.075C63.5617 51.175 63.6617 51.175 63.8617 51.275C64.0617 51.275 64.1617 51.275 64.3617 51.275C64.4617 51.275 64.6617 51.175 64.6617 51.075C64.8617 50.975 64.8617 50.875 64.8617 50.775Z" fill="#926C15"/>
<path d="M105.362 130.375C108.562 127.375 109.962 122.375 108.762 118.075C107.562 113.775 103.962 110.575 100.262 108.475C96.3617 106.175 91.7617 104.775 87.2617 104.475C84.6617 104.275 82.2617 104.575 79.9617 105.775C79.7617 105.875 79.4617 106.075 79.2617 106.175C77.6617 106.775 76.1617 107.575 74.7617 108.675C73.2617 109.975 72.1617 111.675 71.6617 113.475C71.5617 113.675 71.4617 113.775 71.3617 113.975C71.2617 114.075 71.3617 114.275 71.4617 114.275C71.0617 116.275 71.2617 118.475 71.9617 120.475C73.5617 124.675 77.0617 127.575 80.7617 129.775C84.6617 131.975 89.1617 133.475 93.6617 133.875C97.8617 134.075 102.262 133.275 105.362 130.375ZM84.5617 129.775C81.0617 128.275 77.4617 126.075 75.1617 122.975C72.7617 119.675 71.7617 115.175 73.9617 111.575C74.0617 111.275 74.2617 111.075 74.4617 110.875C75.1617 110.075 76.0617 109.375 76.9617 108.775C77.8617 108.175 78.7617 107.675 79.6617 107.175C81.7617 106.375 83.9617 106.075 86.0617 106.075C90.8617 106.175 95.5617 107.975 99.6617 110.475C100.662 111.075 101.562 111.675 102.562 112.375C102.762 112.475 103.062 112.175 102.862 111.975C100.962 110.575 98.8617 109.275 96.6617 108.175C100.362 109.875 104.062 112.275 106.262 115.875C108.362 119.375 108.162 123.675 106.062 127.175C101.462 134.375 91.0617 132.575 84.5617 129.775Z" fill="#926C15"/>
<path d="M103.962 119.075C102.062 118.275 99.8617 118.475 97.8617 117.875C95.5617 117.175 94.0617 115.375 92.0617 114.075C88.7617 111.875 84.2617 111.975 81.1617 114.375C80.9617 114.575 81.1617 114.875 81.3617 114.775C83.0617 113.675 85.1617 113.175 87.1617 113.275C89.3617 113.375 91.0617 114.375 92.6617 115.875C94.2617 117.375 95.6617 118.775 97.7617 119.475C98.8617 119.875 100.162 119.975 101.462 120.175C100.662 120.275 99.7617 120.275 98.9617 120.175C97.6617 119.975 96.5617 119.375 95.3617 118.775C92.9617 117.575 90.6617 116.075 88.0617 115.475C86.5617 115.075 84.9617 115.075 83.4617 115.475C82.5617 115.675 82.9617 116.975 83.8617 116.775C89.3617 115.675 93.7617 120.375 98.9617 120.875C100.262 120.975 101.562 120.775 102.762 120.275C103.162 120.275 103.462 120.275 103.862 120.275C104.262 120.175 104.462 119.275 103.962 119.075Z" fill="#926C15"/>
<path d="M99.8617 125.675C97.5617 126.075 95.2617 126.275 92.9617 125.975C90.7617 125.675 88.5617 124.875 86.5617 123.875C84.5617 122.875 82.6617 121.675 80.8617 120.275C78.9617 118.875 77.1617 117.075 76.7617 114.675C76.7617 114.575 76.5617 114.575 76.5617 114.675C77.0617 118.375 80.5617 120.875 83.4617 122.775C86.6617 124.875 90.0617 126.475 93.7617 126.975C95.8617 127.275 98.0617 127.275 100.062 126.575C100.762 126.475 100.462 125.575 99.8617 125.675Z" fill="#926C15"/>
<path d="M81.6617 125.975C80.3617 124.775 79.3617 123.175 78.7617 121.575C78.6617 121.275 78.1617 121.375 78.2617 121.675C78.5617 122.575 78.9617 123.375 79.4617 124.175C79.9617 124.975 80.5617 125.675 81.2617 126.275C81.5617 126.575 81.9617 126.175 81.6617 125.975Z" fill="#926C15"/>
<path d="M83.6617 127.275C83.4617 126.575 83.0617 125.975 82.7617 125.375C82.4617 124.775 82.1617 124.175 81.9617 123.475C81.8617 123.075 81.3617 123.275 81.4617 123.675C81.5617 124.375 81.8617 125.075 82.1617 125.675C82.4617 126.375 82.8617 126.975 83.3617 127.475C83.3617 127.675 83.6617 127.475 83.6617 127.275Z" fill="#926C15"/>
<path d="M85.6617 127.775C85.2617 127.375 85.0617 126.875 84.7617 126.375C84.5617 125.875 84.3617 125.275 84.1617 124.675C84.0617 124.375 83.5617 124.475 83.6617 124.775C83.9617 125.975 84.1617 127.375 85.1617 128.175C85.4617 128.475 85.8617 128.075 85.6617 127.775Z" fill="#926C15"/>
<path d="M88.1617 128.475C88.0617 128.275 87.9617 127.975 87.7617 127.775C87.6617 127.575 87.5617 127.275 87.3617 127.075C87.1617 126.575 86.8617 126.175 86.6617 125.675C86.5617 125.575 86.3617 125.475 86.2617 125.575C86.0617 125.675 86.0617 125.875 86.1617 125.975C86.3617 126.475 86.5617 126.975 86.7617 127.475C86.9617 127.975 87.2617 128.575 87.6617 128.875C87.9617 129.075 88.2617 128.775 88.1617 128.475Z" fill="#926C15"/>
<path d="M91.4617 129.675C91.2617 129.475 91.0617 129.175 90.8617 128.975C90.6617 128.775 90.3617 128.575 90.1617 128.375C89.6617 127.975 89.2617 127.575 88.8617 127.175C88.7617 126.975 88.4617 127.075 88.3617 127.175C88.1617 127.275 88.1617 127.575 88.2617 127.675C88.5617 128.175 89.0617 128.675 89.4617 129.175C89.6617 129.375 89.9617 129.575 90.2617 129.775C90.3617 129.875 90.4617 129.975 90.6617 129.975C90.8617 130.075 90.9617 130.075 91.1617 130.175C91.3617 130.275 91.5617 129.975 91.4617 129.675Z" fill="#926C15"/>
<path d="M93.2617 130.575C93.2617 130.475 93.2617 130.475 93.2617 130.375C93.2617 130.375 93.2617 130.375 93.2617 130.275C93.2617 130.275 93.2617 130.275 93.1617 130.275C93.0617 130.275 92.9617 130.175 92.9617 130.175H92.7617C92.7617 130.175 92.7617 130.275 92.6617 130.275V130.475L92.7617 130.575H93.1617C93.1617 130.675 93.1617 130.675 93.2617 130.575Z" fill="#926C15"/>
<path d="M95.2617 111.775C95.1617 111.675 95.2617 111.675 95.2617 111.775V111.775Z" fill="#926C15"/>
<path d="M97.5617 112.775C97.5617 112.575 97.4617 112.475 97.2617 112.375C97.1617 112.375 97.1617 112.375 97.0617 112.275C97.0617 112.275 97.0617 112.275 96.9617 112.275C96.8617 112.275 96.8617 112.175 96.7617 112.175C96.5617 112.175 96.3617 112.075 96.0617 111.975C95.9617 111.975 95.9617 111.975 95.8617 111.875C95.7617 111.875 95.6617 111.775 95.7617 111.875C95.6617 111.775 95.5617 111.775 95.4617 111.675C95.3617 111.675 95.2617 111.575 95.1617 111.475L95.0617 111.375C95.0617 111.375 95.0617 111.275 94.9617 111.275C94.9617 111.275 94.9617 111.275 94.9617 111.175V111.075H95.1617C95.1617 111.075 95.1617 111.075 95.2617 111.075C95.2617 111.075 95.2617 111.075 95.3617 111.075C95.4617 111.075 95.5617 111.075 95.6617 111.075C95.7617 111.075 95.7617 111.075 95.8617 111.075H95.9617C95.9617 111.075 95.9617 111.075 96.0617 111.075C96.5617 111.175 97.0617 111.275 97.5617 111.275C97.8617 111.275 97.9617 110.775 97.6617 110.675C97.1617 110.575 96.7617 110.475 96.2617 110.375C95.7617 110.275 95.1617 110.175 94.6617 110.475C94.1617 110.775 93.9617 111.475 94.1617 111.975C94.3617 112.575 94.9617 112.975 95.4617 113.175C95.7617 113.275 96.0617 113.375 96.3617 113.475C96.5617 113.475 96.6617 113.475 96.7617 113.475C96.8617 113.475 96.8617 113.475 96.9617 113.475C97.0617 113.475 97.2617 113.375 97.3617 113.275C97.4617 113.175 97.5617 112.975 97.5617 112.775Z" fill="#926C15"/>
<path d="M88.9617 109.875C89.0617 109.675 88.9617 109.375 88.7617 109.275H88.6617L88.4617 109.075V108.975C88.4617 108.875 88.4617 108.875 88.4617 108.775V108.875C88.4617 108.775 88.4617 108.675 88.4617 108.575C88.4617 108.575 88.4617 108.475 88.3617 108.475C88.2617 108.275 88.0617 108.275 87.9617 108.175C87.7617 108.175 87.6617 108.175 87.5617 108.275C87.4617 108.275 87.4617 108.375 87.4617 108.475C87.4617 108.575 87.3617 108.675 87.3617 108.775C87.3617 108.975 87.3617 109.075 87.3617 109.275C87.3617 109.375 87.3617 109.375 87.3617 109.475C87.3617 109.575 87.4617 109.675 87.4617 109.775C87.5617 109.975 87.6617 110.075 87.8617 110.175C87.9617 110.275 88.1617 110.375 88.2617 110.375C88.3617 110.375 88.5617 110.375 88.6617 110.275C88.8617 110.075 88.9617 109.975 88.9617 109.875Z" fill="#926C15"/>
<path d="M41.8617 38.775C40.9617 35.775 38.5617 33.575 35.9617 32.075C33.2617 30.475 30.0617 29.475 26.8617 29.275C25.0617 29.175 23.3617 29.375 21.7617 30.175C21.5617 30.275 21.4617 30.375 21.2617 30.475C20.1617 30.875 19.0617 31.375 18.1617 32.175C17.0617 33.075 16.3617 34.275 16.0617 35.575C15.9617 35.675 15.9617 35.775 15.8617 35.875C15.7617 35.975 15.8617 36.075 15.8617 36.075C15.5617 37.475 15.6617 38.975 16.1617 40.375C16.4617 40.375 16.8617 40.275 17.1617 40.275H17.2617C16.4617 38.275 16.3617 36.075 17.4617 34.175C17.5617 33.975 17.6617 33.875 17.7617 33.675C18.2617 33.075 18.8617 32.575 19.4617 32.175C20.0617 31.775 20.6617 31.375 21.3617 31.075C22.7617 30.575 24.3617 30.275 25.8617 30.375C29.2617 30.475 32.4617 31.675 35.2617 33.475C35.9617 33.875 36.6617 34.375 37.2617 34.775C37.3617 34.875 37.5617 34.675 37.4617 34.575C36.1617 33.575 34.6617 32.675 33.1617 31.875C35.7617 33.075 38.3617 34.775 39.8617 37.175C41.3617 39.675 41.1617 42.575 39.6617 45.075C36.5617 50.075 29.3617 48.875 24.8617 46.875C24.7617 46.875 24.6617 46.775 24.5617 46.775C24.6617 47.175 24.6617 47.575 24.7617 47.875C24.7617 47.975 24.7617 47.975 24.7617 48.075C26.8617 48.975 29.0617 49.575 31.3617 49.775C34.2617 49.975 37.3617 49.375 39.4617 47.375C41.6617 45.275 42.6617 41.775 41.8617 38.775Z" fill="#926C15"/>
<path d="M38.4617 39.475C37.1617 38.875 35.5617 39.075 34.1617 38.675C32.5617 38.175 31.4617 36.975 30.1617 35.975C27.8617 34.375 24.7617 34.475 22.5617 36.175C22.3617 36.275 22.5617 36.575 22.7617 36.475C23.9617 35.775 25.3617 35.375 26.7617 35.375C28.2617 35.475 29.4617 36.175 30.5617 37.175C31.6617 38.175 32.6617 39.175 34.1617 39.675C34.9617 39.875 35.8617 40.075 36.6617 40.175C36.0617 40.275 35.4617 40.275 34.8617 40.175C33.9617 39.975 33.1617 39.575 32.3617 39.175C30.6617 38.375 29.1617 37.375 27.2617 36.875C26.1617 36.575 25.0617 36.575 24.0617 36.875C23.4617 37.075 23.7617 37.875 24.3617 37.775C28.1617 36.975 31.2617 40.275 34.8617 40.575C35.7617 40.675 36.6617 40.475 37.4617 40.175C37.7617 40.175 37.9617 40.175 38.2617 40.175C38.6617 40.275 38.8617 39.675 38.4617 39.475Z" fill="#926C15"/>
<path d="M35.6617 44.175C34.0617 44.475 32.4617 44.575 30.8617 44.375C29.2617 44.175 27.7617 43.675 26.3617 42.975C24.9617 42.275 23.6617 41.375 22.3617 40.475C21.0617 39.475 19.7617 38.275 19.5617 36.575C19.5617 36.475 19.4617 36.475 19.4617 36.575C19.8617 39.175 22.2617 40.875 24.2617 42.175C26.4617 43.575 28.8617 44.775 31.4617 45.075C32.9617 45.275 34.4617 45.275 35.8617 44.875C36.2617 44.675 36.0617 44.075 35.6617 44.175Z" fill="#926C15"/>
<path d="M25.6617 45.575C25.3617 45.275 25.2617 44.875 25.0617 44.575C24.8617 44.175 24.7617 43.775 24.6617 43.375C24.5617 43.175 24.2617 43.275 24.2617 43.475C24.4617 44.275 24.5617 45.275 25.3617 45.875C25.6617 46.075 25.8617 45.775 25.6617 45.575Z" fill="#926C15"/>
<path d="M27.4617 46.075C27.3617 45.875 27.2617 45.775 27.1617 45.575C27.0617 45.375 26.9617 45.275 26.8617 45.075C26.6617 44.775 26.5617 44.375 26.3617 44.075C26.3617 43.975 26.2617 43.975 26.1617 43.975C26.0617 44.075 26.0617 44.175 26.0617 44.275C26.2617 44.575 26.3617 44.975 26.4617 45.275C26.5617 45.675 26.7617 46.075 27.0617 46.275C27.2617 46.475 27.5617 46.275 27.4617 46.075Z" fill="#926C15"/>
<path d="M29.7617 46.875C29.6617 46.675 29.4617 46.575 29.3617 46.375C29.1617 46.275 29.0617 46.075 28.8617 45.975C28.5617 45.675 28.2617 45.475 27.9617 45.075C27.8617 44.975 27.6617 44.975 27.5617 45.075C27.4617 45.175 27.4617 45.275 27.4617 45.475C27.6617 45.875 27.9617 46.175 28.3617 46.475C28.5617 46.675 28.6617 46.775 28.8617 46.875C28.9617 46.975 29.0617 46.975 29.1617 47.075C29.2617 47.075 29.3617 47.175 29.4617 47.175C29.6617 47.375 29.8617 47.075 29.7617 46.875Z" fill="#926C15"/>
<path d="M31.0617 47.575C31.0617 47.475 31.0617 47.475 31.0617 47.475C30.9617 47.475 30.9617 47.375 30.8617 47.375H30.6617C30.6617 47.375 30.6617 47.375 30.6617 47.475C30.6617 47.475 30.6617 47.475 30.6617 47.575C30.6617 47.575 30.6617 47.575 30.6617 47.675C30.6617 47.675 30.6617 47.675 30.7617 47.775H30.8617L31.0617 47.575Z" fill="#926C15"/>
<path d="M34.0617 35.175C34.0617 35.075 33.9617 34.975 33.8617 34.975C33.7617 34.975 33.7617 34.975 33.6617 34.975C33.6617 34.975 33.5617 34.975 33.5617 34.875C33.3617 34.875 33.2617 34.775 33.0617 34.775H32.9617C32.9617 34.775 32.7617 34.675 32.8617 34.775C32.7617 34.775 32.6617 34.675 32.6617 34.675C32.5617 34.675 32.5617 34.575 32.4617 34.575L32.3617 34.475C32.3617 34.475 32.3617 34.475 32.3617 34.375C32.3617 34.375 32.3617 34.375 32.3617 34.275H32.4617C32.5617 34.275 32.5617 34.275 32.6617 34.275H32.7617C32.7617 34.275 32.7617 34.275 32.8617 34.275C33.1617 34.275 33.5617 34.375 33.8617 34.475C34.0617 34.475 34.1617 34.075 33.8617 34.075C33.5617 33.975 33.2617 33.875 32.8617 33.875C32.4617 33.775 32.0617 33.775 31.7617 33.975C31.3617 34.175 31.2617 34.675 31.3617 35.075C31.5617 35.475 31.8617 35.775 32.2617 35.875C32.4617 35.975 32.6617 36.075 32.9617 36.075C33.0617 36.075 33.1617 36.075 33.2617 36.075H33.3617C33.4617 36.075 33.5617 35.975 33.6617 35.975C33.9617 35.375 34.0617 35.275 34.0617 35.175Z" fill="#926C15"/>
<path d="M28.0617 33.175C28.1617 32.975 28.0617 32.775 27.8617 32.775C27.8617 32.775 27.8617 32.775 27.7617 32.775C27.7617 32.775 27.6617 32.775 27.6617 32.675C27.6617 32.675 27.6617 32.575 27.5617 32.575C27.5617 32.575 27.5617 32.575 27.5617 32.475C27.5617 32.375 27.5617 32.375 27.5617 32.275V32.175C27.4617 32.075 27.3617 31.975 27.2617 31.975C27.1617 31.975 27.0617 31.975 26.9617 32.075L26.8617 32.175C26.8617 32.275 26.8617 32.275 26.8617 32.375C26.8617 32.475 26.8617 32.575 26.8617 32.675V32.775C26.8617 32.875 26.9617 32.875 26.9617 32.975C27.0617 33.075 27.1617 33.175 27.2617 33.275C27.3617 33.375 27.4617 33.375 27.5617 33.375C27.6617 33.375 27.7617 33.375 27.8617 33.375C27.9617 33.275 28.0617 33.175 28.0617 33.175Z" fill="#926C15"/>
<path d="M53.6617 130.275C54.7617 127.375 54.0617 123.875 52.0617 121.575C49.9617 119.275 46.7617 118.375 43.7617 118.175C40.5617 117.975 37.3617 118.475 34.3617 119.675C32.6617 120.375 31.2617 121.275 30.1617 122.775C30.0617 122.875 29.9617 123.075 29.8617 123.275C29.0617 124.075 28.3617 125.075 27.8617 126.175C27.2617 127.475 27.1617 128.875 27.4617 130.175C27.4617 130.275 27.4617 130.375 27.4617 130.575C27.4617 130.675 27.5617 130.775 27.5617 130.775C27.9617 132.175 28.6617 133.475 29.7617 134.475C32.0617 136.575 35.0617 137.375 38.1617 137.575C41.2617 137.775 44.5617 137.375 47.4617 136.175C50.1617 134.875 52.6617 133.075 53.6617 130.275ZM40.4617 136.275C37.8617 136.375 34.8617 136.175 32.4617 134.875C29.9617 133.575 27.9617 131.075 28.1617 128.075C28.1617 127.875 28.1617 127.675 28.2617 127.475C28.4617 126.775 28.7617 126.075 29.1617 125.375C29.5617 124.775 29.9617 124.175 30.3617 123.575C31.4617 122.475 32.7617 121.575 34.0617 120.975C37.0617 119.575 40.5617 119.275 43.8617 119.575C44.6617 119.675 45.4617 119.775 46.2617 119.875C46.4617 119.875 46.4617 119.575 46.3617 119.575C44.7617 119.275 43.0617 119.075 41.3617 119.075C44.1617 118.975 47.2617 119.375 49.6617 120.975C52.0617 122.575 53.2617 125.275 52.9617 128.075C52.4617 133.975 45.3617 136.075 40.4617 136.275Z" fill="#926C15"/>
<path d="M49.3617 123.675C47.8617 123.775 46.5617 124.575 45.1617 124.775C43.5617 125.075 41.9617 124.375 40.3617 124.175C37.6617 123.775 34.8617 125.275 33.5617 127.675C33.4617 127.875 33.6617 127.975 33.8617 127.875C34.5617 126.675 35.7617 125.675 36.9617 125.175C38.3617 124.575 39.7617 124.675 41.1617 125.075C42.5617 125.475 43.9617 125.975 45.4617 125.775C46.2617 125.675 47.1617 125.375 47.9617 125.075C47.4617 125.375 46.9617 125.675 46.3617 125.875C45.4617 126.075 44.5617 126.075 43.6617 126.075C41.8617 126.075 39.9617 125.875 38.1617 126.275C37.0617 126.475 36.0617 126.975 35.2617 127.675C34.7617 128.075 35.4617 128.775 35.8617 128.375C38.9617 125.975 43.1617 127.575 46.5617 126.275C47.4617 125.975 48.1617 125.475 48.7617 124.775C48.9617 124.675 49.2617 124.575 49.4617 124.475C49.8617 124.275 49.7617 123.575 49.3617 123.675Z" fill="#926C15"/>
<path d="M48.8617 129.075C47.5617 130.075 46.1617 130.875 44.6617 131.375C43.1617 131.875 41.5617 132.075 40.0617 132.075C38.4617 132.075 36.8617 131.875 35.3617 131.575C33.7617 131.275 32.0617 130.675 31.0617 129.275C31.0617 129.175 30.9617 129.275 30.9617 129.375C32.4617 131.575 35.3617 132.075 37.7617 132.275C40.3617 132.575 42.9617 132.575 45.4617 131.775C46.8617 131.275 48.2617 130.675 49.2617 129.575C49.5617 129.275 49.1617 128.775 48.8617 129.075Z" fill="#926C15"/>
<path d="M37.5617 134.775C36.4617 134.375 35.2617 133.775 34.4617 132.875C34.2617 132.675 34.0617 132.975 34.1617 133.075C34.6617 133.575 35.1617 133.975 35.6617 134.275C36.1617 134.575 36.7617 134.875 37.4617 135.075C37.6617 135.175 37.7617 134.875 37.5617 134.775Z" fill="#926C15"/>
<path d="M39.1617 134.975C38.8617 134.575 38.3617 134.375 37.9617 134.075C37.5617 133.775 37.1617 133.475 36.8617 133.175C36.6617 132.975 36.4617 133.275 36.5617 133.475C36.8617 133.875 37.2617 134.275 37.6617 134.575C38.0617 134.875 38.4617 135.175 38.9617 135.375C39.1617 135.275 39.2617 135.075 39.1617 134.975Z" fill="#926C15"/>
<path d="M40.5617 134.675C40.1617 134.575 39.8617 134.275 39.5617 134.075C39.2617 133.775 38.9617 133.475 38.6617 133.175C38.4617 132.975 38.2617 133.275 38.3617 133.375C38.9617 134.075 39.4617 134.875 40.3617 135.075C40.6617 135.175 40.8617 134.775 40.5617 134.675Z" fill="#926C15"/>
<path d="M42.3617 134.375C42.2617 134.275 42.0617 134.175 41.9617 134.075C41.7617 133.975 41.6617 133.875 41.4617 133.775C41.1617 133.575 40.8617 133.375 40.5617 133.175C40.4617 133.075 40.3617 133.175 40.2617 133.275C40.1617 133.375 40.2617 133.475 40.3617 133.575C40.6617 133.775 40.8617 134.075 41.1617 134.275C41.4617 134.575 41.7617 134.775 42.1617 134.875C42.3617 134.875 42.5617 134.475 42.3617 134.375Z" fill="#926C15"/>
<path d="M44.7617 134.075C44.5617 133.975 44.3617 133.875 44.1617 133.875C43.9617 133.775 43.7617 133.775 43.5617 133.775C43.1617 133.675 42.7617 133.575 42.3617 133.375C42.2617 133.275 42.0617 133.375 42.0617 133.575C41.9617 133.675 42.0617 133.875 42.1617 133.975C42.5617 134.175 42.9617 134.375 43.3617 134.475C43.5617 134.575 43.7617 134.575 44.0617 134.675C44.1617 134.675 44.2617 134.675 44.3617 134.675C44.4617 134.675 44.5617 134.675 44.7617 134.675C44.8617 134.475 44.9617 134.175 44.7617 134.075Z" fill="#926C15"/>
<path d="M46.2617 134.175C46.2617 134.075 46.2617 134.075 46.2617 134.175C46.2617 134.075 46.2617 134.075 46.2617 134.075C46.1617 134.075 46.1617 134.075 46.0617 134.075H45.9617C45.9617 134.075 45.9617 134.075 45.8617 134.175V134.275C45.8617 134.275 45.8617 134.275 45.8617 134.375H46.0617L46.2617 134.175Z" fill="#926C15"/>
<path d="M43.4617 121.675C43.3617 121.575 43.2617 121.475 43.1617 121.575C43.0617 121.575 43.0617 121.575 42.9617 121.575C42.8617 121.575 42.8617 121.575 42.7617 121.575C42.5617 121.575 42.4617 121.675 42.2617 121.675H42.1617C42.1617 121.675 41.9617 121.675 42.0617 121.675C41.9617 121.675 41.8617 121.675 41.7617 121.675C41.6617 121.675 41.6617 121.675 41.5617 121.675H41.4617C41.4617 121.675 41.4617 121.675 41.3617 121.675C41.3617 121.675 41.3617 121.675 41.3617 121.575C41.3617 121.575 41.4617 121.575 41.4617 121.475C41.5617 121.475 41.5617 121.375 41.6617 121.375H41.7617C41.7617 121.375 41.7617 121.375 41.8617 121.375C42.1617 121.275 42.5617 121.175 42.8617 121.075C43.0617 120.975 42.9617 120.575 42.7617 120.675C42.4617 120.775 42.0617 120.775 41.7617 120.875C41.3617 120.975 40.9617 121.075 40.7617 121.475C40.5617 121.775 40.5617 122.275 40.8617 122.575C41.1617 122.875 41.6617 122.975 42.0617 122.975C42.2617 122.975 42.5617 122.975 42.7617 122.875C42.8617 122.875 42.9617 122.775 43.0617 122.775L43.1617 122.675C43.2617 122.575 43.2617 122.575 43.3617 122.475C43.4617 121.875 43.4617 121.775 43.4617 121.675Z" fill="#926C15"/>
<path d="M37.1617 122.475C37.1617 122.275 36.9617 122.175 36.8617 122.175C36.8617 122.175 36.8617 122.175 36.7617 122.175H36.6617C36.6617 122.175 36.5617 122.175 36.5617 122.075C36.5617 122.075 36.5617 121.975 36.4617 121.975V122.075C36.4617 121.975 36.4617 121.975 36.3617 121.875C36.3617 121.875 36.2617 121.875 36.2617 121.775C36.1617 121.675 36.0617 121.675 35.9617 121.775C35.8617 121.775 35.7617 121.875 35.7617 121.975V122.075C35.7617 122.175 35.7617 122.175 35.7617 122.275C35.7617 122.375 35.8617 122.475 35.9617 122.575C35.9617 122.575 35.9617 122.675 36.0617 122.675C36.1617 122.675 36.1617 122.775 36.2617 122.775C36.3617 122.875 36.4617 122.875 36.6617 122.875C36.7617 122.875 36.8617 122.875 36.9617 122.875C37.0617 122.875 37.1617 122.775 37.1617 122.675C37.1617 122.675 37.1617 122.575 37.1617 122.475Z" fill="#926C15"/>
<path d="M23.3617 9.875C24.4617 7.975 24.3617 5.475 23.1617 3.675C21.9617 1.875 19.8617 0.875 17.8617 0.375C15.6617 -0.125 13.3617 -0.125 11.1617 0.375C9.96171 0.575 8.8617 1.075 7.8617 1.975C7.7617 2.075 7.7617 2.175 7.6617 2.275C6.9617 2.775 6.3617 3.375 5.8617 4.075C5.3617 4.875 5.1617 5.875 5.1617 6.775C5.1617 6.875 5.1617 6.975 5.0617 6.975C5.0617 7.075 5.0617 7.075 5.1617 7.075C5.2617 8.075 5.6617 9.075 6.2617 9.875C7.5617 11.575 9.66171 12.475 11.6617 12.975C13.8617 13.475 16.0617 13.575 18.2617 13.075C20.3617 12.775 22.2617 11.675 23.3617 9.875ZM13.4617 12.575C11.6617 12.375 9.5617 11.875 8.0617 10.775C6.4617 9.575 5.3617 7.575 5.8617 5.575C5.8617 5.475 5.9617 5.275 5.9617 5.175C6.16171 4.675 6.4617 4.275 6.8617 3.875C7.16171 3.475 7.5617 3.075 7.8617 2.775C8.76171 2.075 9.7617 1.675 10.7617 1.375C13.0617 0.775 15.4617 0.975 17.7617 1.475C18.2617 1.575 18.8617 1.775 19.3617 1.975C19.4617 1.975 19.5617 1.775 19.4617 1.775C18.3617 1.375 17.1617 1.075 16.0617 0.875C18.0617 1.075 20.1617 1.775 21.6617 3.075C23.1617 4.475 23.6617 6.475 23.1617 8.375C22.0617 12.375 16.8617 12.975 13.4617 12.575Z" fill="#926C15"/>
<path d="M20.0617 8.475C19.0617 8.975 18.0617 9.375 16.8617 9.575C15.7617 9.775 14.6617 9.675 13.5617 9.475C12.4617 9.275 11.3617 8.975 10.3617 8.575C9.2617 8.175 8.16171 7.575 7.6617 6.475H7.5617C8.3617 8.175 10.2617 8.775 11.9617 9.275C13.7617 9.775 15.5617 10.075 17.3617 9.775C18.3617 9.575 19.3617 9.275 20.2617 8.675C20.5617 8.775 20.3617 8.375 20.0617 8.475Z" fill="#926C15"/>
<path d="M11.5617 11.175C10.7617 10.775 10.0617 10.175 9.5617 9.575C9.4617 9.475 9.2617 9.575 9.3617 9.675C9.66171 10.075 9.9617 10.375 10.2617 10.675C10.5617 10.975 10.9617 11.275 11.3617 11.375C11.6617 11.475 11.7617 11.275 11.5617 11.175Z" fill="#926C15"/>
<path d="M12.6617 11.575C12.4617 11.275 12.1617 11.075 11.9617 10.775C11.7617 10.575 11.4617 10.275 11.2617 9.975C11.1617 9.775 10.9617 9.975 11.0617 10.075C11.2617 10.375 11.4617 10.675 11.6617 10.975C11.8617 11.275 12.1617 11.475 12.4617 11.675C12.6617 11.775 12.7617 11.675 12.6617 11.575Z" fill="#926C15"/>
<path d="M13.6617 11.475C13.4617 11.375 13.2617 11.175 13.0617 10.875C12.8617 10.675 12.7617 10.375 12.5617 10.175C12.4617 10.075 12.2617 10.175 12.3617 10.275C12.6617 10.775 12.9617 11.375 13.5617 11.675C13.7617 11.875 13.8617 11.575 13.6617 11.475Z" fill="#926C15"/>
<path d="M14.9617 11.475C14.8617 11.375 14.7617 11.275 14.6617 11.175C14.5617 11.075 14.4617 10.975 14.3617 10.875C14.1617 10.675 13.9617 10.475 13.8617 10.375C13.7617 10.275 13.6617 10.275 13.6617 10.375C13.5617 10.475 13.6617 10.575 13.6617 10.575C13.8617 10.775 13.9617 10.975 14.1617 11.175C14.3617 11.375 14.5617 11.575 14.7617 11.675C14.9617 11.775 15.0617 11.575 14.9617 11.475Z" fill="#926C15"/>
<path d="M16.6617 11.575C16.5617 11.475 16.4617 11.375 16.2617 11.375C16.1617 11.275 15.9617 11.275 15.8617 11.175C15.5617 11.075 15.3617 10.975 15.0617 10.775C14.9617 10.675 14.8617 10.775 14.7617 10.875C14.6617 10.975 14.7617 11.075 14.7617 11.175C14.9617 11.375 15.2617 11.575 15.5617 11.675C15.6617 11.775 15.8617 11.775 15.9617 11.875C16.0617 11.875 16.0617 11.875 16.1617 11.975C16.2617 11.975 16.3617 11.975 16.4617 11.975C16.7617 11.875 16.7617 11.675 16.6617 11.575Z" fill="#926C15"/>
<path d="M17.6617 11.775C17.6617 11.675 17.6617 11.675 17.6617 11.775C17.6617 11.675 17.6617 11.675 17.6617 11.675H17.5617C17.5617 11.675 17.5617 11.675 17.4617 11.675C17.4617 11.675 17.4617 11.675 17.4617 11.775C17.4617 11.775 17.4617 11.775 17.5617 11.775C17.5617 11.775 17.5617 11.775 17.6617 11.775Z" fill="#926C15"/>
<path d="M15.9617 2.675C15.8617 2.675 15.8617 2.675 15.9617 2.675V2.675Z" fill="#926C15"/>
<path d="M17.1617 2.775C17.1617 2.675 17.0617 2.675 16.9617 2.675H16.7617C16.6617 2.675 16.5617 2.675 16.4617 2.675H16.3617C16.2617 2.675 16.2617 2.675 16.1617 2.675H16.0617C16.0617 2.675 16.0617 2.675 15.9617 2.675C15.9617 2.675 15.9617 2.675 16.0617 2.675C16.0617 2.675 16.1617 2.675 16.1617 2.575H16.2617C16.4617 2.575 16.7617 2.575 16.9617 2.475C17.1617 2.475 17.0617 2.175 16.8617 2.175C16.6617 2.175 16.3617 2.175 16.1617 2.175C15.8617 2.175 15.5617 2.275 15.3617 2.475C15.1617 2.675 15.1617 3.075 15.3617 3.275C15.5617 3.475 15.8617 3.575 16.1617 3.675C16.3617 3.675 16.4617 3.675 16.6617 3.675C16.7617 3.675 16.7617 3.675 16.8617 3.575C16.8617 3.575 16.8617 3.575 16.9617 3.575C17.0617 3.575 17.0617 3.475 17.0617 3.475C17.1617 2.975 17.1617 2.875 17.1617 2.775Z" fill="#926C15"/>
<path d="M12.7617 2.675C12.7617 2.575 12.6617 2.475 12.5617 2.375C12.5617 2.375 12.5617 2.375 12.4617 2.375C12.4617 2.375 12.4617 2.375 12.3617 2.375V2.275C12.3617 2.275 12.3617 2.275 12.3617 2.375V2.275C12.3617 2.275 12.3617 2.275 12.3617 2.175C12.1617 1.975 12.0617 1.975 12.0617 1.975C11.9617 1.975 11.9617 2.075 11.8617 2.075V2.275C11.8617 2.375 11.8617 2.475 11.9617 2.475C11.9617 2.475 11.9617 2.475 11.9617 2.575L12.0617 2.675C12.1617 2.775 12.2617 2.775 12.2617 2.775C12.3617 2.775 12.4617 2.775 12.4617 2.775C12.5617 2.775 12.5617 2.775 12.6617 2.675C12.7617 2.775 12.7617 2.675 12.7617 2.675Z" fill="#926C15"/>
<path d="M82.6617 149.875C84.4617 147.375 84.6617 143.775 83.2617 140.975C81.8617 138.175 78.9617 136.575 76.1617 135.575C73.1617 134.575 69.8617 134.175 66.7617 134.575C64.9617 134.775 63.3617 135.375 61.9617 136.475C61.8617 136.575 61.6617 136.675 61.5617 136.875C60.5617 137.475 59.5617 138.275 58.8617 139.175C57.9617 140.275 57.5617 141.575 57.4617 142.875C57.4617 142.975 57.3617 143.075 57.3617 143.275C57.3617 143.375 57.3617 143.475 57.4617 143.475C57.4617 144.875 57.8617 146.375 58.6617 147.675C60.2617 150.275 63.0617 151.875 65.9617 152.775C68.9617 153.775 72.1617 154.175 75.3617 153.775C78.0617 153.475 80.9617 152.275 82.6617 149.875ZM68.3617 152.275C65.7617 151.675 62.9617 150.775 60.9617 148.975C58.8617 147.075 57.5617 144.175 58.5617 141.375C58.6617 141.175 58.6617 140.975 58.7617 140.775C59.1617 140.075 59.6617 139.475 60.1617 138.975C60.6617 138.475 61.2617 137.975 61.7617 137.475C63.0617 136.675 64.5617 136.175 65.9617 135.875C69.2617 135.275 72.6617 135.875 75.8617 136.975C76.6617 137.275 77.3617 137.575 78.0617 137.875C78.2617 137.975 78.3617 137.675 78.1617 137.575C76.6617 136.875 75.0617 136.275 73.4617 135.775C76.2617 136.375 79.0617 137.575 81.0617 139.675C82.9617 141.775 83.4617 144.775 82.4617 147.375C80.4617 153.175 73.1617 153.375 68.3617 152.275Z" fill="#926C15"/>
<path d="M80.0617 142.375C78.6617 142.075 77.1617 142.575 75.7617 142.375C74.0617 142.275 72.7617 141.175 71.2617 140.575C68.7617 139.475 65.6617 140.275 63.8617 142.275C63.7617 142.375 63.9617 142.675 64.0617 142.475C65.0617 141.475 66.4617 140.875 67.7617 140.675C69.2617 140.475 70.5617 140.875 71.8617 141.675C73.1617 142.475 74.3617 143.275 75.8617 143.375C76.6617 143.475 77.5617 143.375 78.4617 143.275C77.8617 143.475 77.3617 143.575 76.7617 143.575C75.8617 143.575 74.9617 143.375 74.0617 143.075C72.2617 142.575 70.5617 141.875 68.6617 141.875C67.5617 141.875 66.4617 142.075 65.4617 142.475C64.9617 142.775 65.3617 143.575 65.8617 143.275C69.4617 141.775 73.0617 144.375 76.7617 143.975C77.6617 143.875 78.4617 143.575 79.2617 143.075C79.5617 143.075 79.7617 142.975 80.0617 142.975C80.4617 143.075 80.4617 142.375 80.0617 142.375Z" fill="#926C15"/>
<path d="M78.2617 147.375C76.7617 147.975 75.2617 148.475 73.5617 148.475C71.9617 148.575 70.4617 148.375 68.8617 147.975C67.3617 147.575 65.8617 146.975 64.4617 146.275C62.9617 145.575 61.4617 144.575 60.8617 142.975C60.8617 142.875 60.7617 142.975 60.7617 142.975C61.6617 145.475 64.3617 146.675 66.5617 147.575C68.9617 148.575 71.5617 149.175 74.1617 148.975C75.6617 148.875 77.1617 148.575 78.4617 147.875C78.9617 147.775 78.6617 147.275 78.2617 147.375Z" fill="#926C15"/>
<path d="M65.8617 150.075C64.8617 149.475 63.9617 148.475 63.2617 147.475C63.1617 147.275 62.8617 147.475 62.9617 147.675C63.2617 148.275 63.6617 148.775 64.1617 149.175C64.5617 149.675 65.0617 150.075 65.6617 150.375C65.8617 150.575 66.0617 150.275 65.8617 150.075Z" fill="#926C15"/>
<path d="M67.3617 150.775C67.1617 150.375 66.7617 149.975 66.4617 149.575C66.1617 149.175 65.8617 148.875 65.6617 148.375C65.5617 148.175 65.2617 148.275 65.2617 148.575C65.4617 149.075 65.7617 149.475 66.0617 149.875C66.3617 150.275 66.7617 150.675 67.1617 150.975C67.2617 151.075 67.4617 150.875 67.3617 150.775Z" fill="#926C15"/>
<path d="M68.7617 150.775C68.4617 150.575 68.1617 150.275 67.9617 149.875C67.7617 149.575 67.5617 149.175 67.3617 148.775C67.2617 148.575 66.9617 148.675 67.0617 148.975C67.4617 149.775 67.7617 150.675 68.5617 151.075C68.7617 151.275 69.0617 150.975 68.7617 150.775Z" fill="#926C15"/>
<path d="M70.5617 150.875C70.4617 150.775 70.3617 150.575 70.1617 150.475C70.0617 150.375 69.9617 150.175 69.7617 150.075C69.5617 149.775 69.3617 149.475 69.0617 149.175C68.9617 149.075 68.8617 149.075 68.7617 149.175C68.6617 149.275 68.6617 149.375 68.7617 149.475C68.9617 149.775 69.1617 150.075 69.3617 150.375C69.5617 150.675 69.8617 151.075 70.1617 151.275C70.5617 151.375 70.7617 151.175 70.5617 150.875Z" fill="#926C15"/>
<path d="M72.9617 151.275C72.7617 151.175 72.6617 150.975 72.4617 150.875C72.2617 150.775 72.0617 150.675 71.8617 150.575C71.4617 150.375 71.1617 150.175 70.8617 149.875C70.7617 149.775 70.5617 149.875 70.4617 149.975C70.3617 150.075 70.3617 150.275 70.4617 150.375C70.7617 150.675 71.1617 150.975 71.4617 151.175C71.6617 151.275 71.8617 151.375 72.0617 151.475C72.1617 151.475 72.2617 151.575 72.3617 151.575C72.4617 151.575 72.5617 151.575 72.7617 151.675C73.0617 151.775 73.1617 151.475 72.9617 151.275Z" fill="#926C15"/>
<path d="M74.3617 151.675C74.4617 151.675 74.4617 151.675 74.3617 151.675C74.3617 151.575 74.3617 151.575 74.3617 151.575C74.2617 151.575 74.2617 151.575 74.1617 151.575H73.9617C73.9617 151.575 73.9617 151.575 73.9617 151.675C73.9617 151.675 73.9617 151.675 73.9617 151.775C73.9617 151.775 73.9617 151.775 73.9617 151.875C73.9617 151.875 73.9617 151.875 74.0617 151.875H74.1617L74.3617 151.675Z" fill="#926C15"/>
<path d="M73.1617 138.575C73.0617 138.475 73.0617 138.475 73.1617 138.575V138.575Z" fill="#926C15"/>
<path d="M74.8617 138.975C74.8617 138.875 74.7617 138.775 74.5617 138.775C74.4617 138.775 74.4617 138.775 74.3617 138.775C74.2617 138.775 74.2617 138.775 74.1617 138.775C73.9617 138.775 73.8617 138.775 73.6617 138.775H73.5617C73.5617 138.775 73.3617 138.775 73.4617 138.775C73.3617 138.775 73.2617 138.775 73.2617 138.675C73.1617 138.675 73.1617 138.675 73.0617 138.575C73.0617 138.575 72.9617 138.575 72.9617 138.475C72.9617 138.475 72.9617 138.475 72.8617 138.375C72.8617 138.375 72.8617 138.375 72.8617 138.275H72.9617C73.0617 138.275 73.0617 138.275 73.1617 138.175H73.2617C73.2617 138.175 73.2617 138.175 73.3617 138.175C73.6617 138.175 74.0617 138.175 74.3617 138.175C74.5617 138.175 74.5617 137.775 74.3617 137.775C74.0617 137.775 73.6617 137.775 73.3617 137.775C72.9617 137.775 72.5617 137.775 72.2617 138.075C71.9617 138.375 71.8617 138.875 72.1617 139.175C72.3617 139.575 72.8617 139.775 73.2617 139.775C73.4617 139.775 73.7617 139.875 73.9617 139.875C74.0617 139.875 74.1617 139.875 74.2617 139.775C74.2617 139.775 74.3617 139.775 74.3617 139.675C74.4617 139.675 74.5617 139.575 74.5617 139.475C74.8617 139.175 74.8617 139.075 74.8617 138.975Z" fill="#926C15"/>
<path d="M68.6617 138.175C68.6617 137.975 68.5617 137.875 68.4617 137.775C68.4617 137.775 68.4617 137.775 68.3617 137.775C68.3617 137.775 68.2617 137.775 68.2617 137.675C68.2617 137.675 68.2617 137.675 68.1617 137.575C68.1617 137.575 68.1617 137.575 68.1617 137.475C68.1617 137.375 68.1617 137.375 68.1617 137.275C68.1617 137.275 68.1617 137.175 68.0617 137.175C67.9617 137.075 67.8617 137.075 67.7617 137.075C67.6617 137.075 67.5617 137.175 67.4617 137.175L67.3617 137.275C67.3617 137.375 67.3617 137.375 67.3617 137.475C67.3617 137.575 67.3617 137.675 67.4617 137.775C67.4617 137.775 67.4617 137.875 67.5617 137.875C67.5617 137.975 67.6617 137.975 67.6617 138.075C67.7617 138.175 67.8617 138.275 67.9617 138.275C68.0617 138.275 68.1617 138.375 68.2617 138.375C68.3617 138.375 68.4617 138.375 68.5617 138.275C68.5617 138.275 68.5617 138.175 68.6617 138.175Z" fill="#926C15"/>
<path d="M26.0617 49.075C26.2617 45.975 24.6617 42.775 22.0617 41.175C19.4617 39.575 16.0617 39.575 13.1617 40.175C10.0617 40.875 7.0617 42.175 4.5617 44.175C3.1617 45.275 2.0617 46.575 1.3617 48.275C1.2617 48.475 1.2617 48.575 1.1617 48.775C0.561705 49.775 0.161704 50.975 0.0617045 52.175C-0.138296 53.575 0.161704 54.875 0.761704 56.075C0.761704 56.175 0.861704 56.275 0.861704 56.475C0.861704 56.575 0.961704 56.575 1.0617 56.575C1.7617 57.775 2.8617 58.875 4.2617 59.575C7.0617 60.975 10.1617 60.875 13.1617 60.275C16.2617 59.575 19.2617 58.275 21.7617 56.375C23.9617 54.575 25.8617 52.075 26.0617 49.075ZM15.0617 58.575C12.5617 59.375 9.66171 59.975 7.0617 59.475C4.2617 58.975 1.6617 57.075 1.0617 54.175C1.0617 53.975 0.961704 53.775 0.961704 53.575C0.961704 52.775 1.0617 52.075 1.2617 51.275C1.4617 50.575 1.6617 49.875 1.8617 49.175C2.5617 47.775 3.5617 46.575 4.6617 45.675C7.1617 43.475 10.4617 42.275 13.7617 41.575C14.5617 41.475 15.3617 41.275 16.1617 41.275C16.3617 41.275 16.2617 40.975 16.1617 40.975C14.4617 41.175 12.8617 41.375 11.1617 41.875C13.8617 40.975 16.9617 40.475 19.6617 41.375C22.3617 42.175 24.2617 44.575 24.8617 47.275C25.9617 53.075 19.7617 56.975 15.0617 58.575Z" fill="#926C15"/>
<path d="M20.0617 43.975C18.6617 44.475 17.6617 45.575 16.3617 46.275C14.8617 46.975 13.1617 46.775 11.5617 46.975C8.8617 47.375 6.5617 49.575 6.0617 52.275C6.0617 52.475 6.2617 52.575 6.3617 52.375C6.7617 51.075 7.56171 49.775 8.66171 48.875C9.8617 47.875 11.1617 47.575 12.6617 47.675C14.1617 47.675 15.5617 47.775 16.9617 47.175C17.7617 46.775 18.4617 46.375 19.1617 45.775C18.7617 46.275 18.3617 46.675 17.8617 46.975C17.0617 47.475 16.2617 47.675 15.3617 47.975C13.5617 48.475 11.7617 48.775 10.0617 49.675C9.0617 50.175 8.2617 50.875 7.6617 51.875C7.3617 52.375 8.0617 52.875 8.4617 52.375C10.7617 49.175 15.2617 49.575 18.1617 47.375C18.9617 46.775 19.4617 46.175 19.8617 45.275C20.0617 45.075 20.2617 44.975 20.4617 44.775C20.7617 44.375 20.4617 43.875 20.0617 43.975Z" fill="#926C15"/>
<path d="M21.0617 49.275C20.0617 50.575 18.9617 51.775 17.6617 52.675C16.3617 53.575 14.8617 54.175 13.3617 54.575C11.8617 54.975 10.2617 55.275 8.7617 55.375C7.1617 55.475 5.3617 55.475 4.0617 54.375C3.9617 54.375 3.9617 54.475 3.9617 54.475C5.9617 56.175 8.8617 55.775 11.2617 55.475C13.8617 55.075 16.3617 54.375 18.5617 52.875C19.7617 52.075 20.8617 50.975 21.6617 49.775C21.8617 49.275 21.3617 48.975 21.0617 49.275Z" fill="#926C15"/>
<path d="M11.7617 57.975C10.5617 57.975 9.2617 57.575 8.2617 57.075C8.0617 56.875 7.8617 57.175 8.0617 57.275C8.66171 57.575 9.2617 57.875 9.8617 57.975C10.4617 58.175 11.1617 58.275 11.7617 58.275C12.0617 58.275 12.0617 57.975 11.7617 57.975Z" fill="#926C15"/>
<path d="M13.3617 57.675C12.9617 57.375 12.4617 57.275 11.9617 57.075C11.4617 56.975 11.0617 56.775 10.6617 56.475C10.4617 56.375 10.2617 56.675 10.4617 56.775C10.8617 57.075 11.2617 57.275 11.7617 57.475C12.2617 57.675 12.7617 57.775 13.2617 57.875C13.4617 57.975 13.5617 57.775 13.3617 57.675Z" fill="#926C15"/>
<path d="M14.6617 56.975C14.2617 56.975 13.8617 56.775 13.5617 56.675C13.1617 56.475 12.8617 56.275 12.4617 56.075C12.2617 55.975 12.0617 56.275 12.2617 56.375C12.9617 56.875 13.7617 57.475 14.6617 57.475C14.9617 57.475 14.9617 57.075 14.6617 56.975Z" fill="#926C15"/>
<path d="M16.2617 56.175C16.0617 56.075 15.9617 56.075 15.7617 55.975C15.5617 55.875 15.3617 55.875 15.2617 55.775C14.9617 55.675 14.5617 55.475 14.2617 55.375C14.1617 55.375 14.0617 55.375 13.9617 55.475C13.9617 55.575 13.9617 55.675 14.0617 55.775C14.3617 55.875 14.7617 56.075 15.0617 56.275C15.4617 56.475 15.7617 56.575 16.1617 56.575C16.4617 56.675 16.5617 56.275 16.2617 56.175Z" fill="#926C15"/>
<path d="M18.5617 55.275C18.3617 55.275 18.1617 55.175 17.9617 55.175C17.7617 55.175 17.5617 55.175 17.3617 55.175C16.9617 55.175 16.5617 55.175 16.1617 55.075C16.0617 55.075 15.8617 55.175 15.8617 55.275C15.8617 55.375 15.9617 55.575 16.0617 55.575C16.4617 55.675 16.9617 55.775 17.3617 55.775C17.5617 55.775 17.8617 55.775 18.0617 55.775C18.1617 55.775 18.2617 55.775 18.3617 55.675C18.4617 55.675 18.5617 55.575 18.6617 55.575C18.7617 55.675 18.7617 55.375 18.5617 55.275Z" fill="#926C15"/>
<path d="M19.9617 54.875C19.8617 54.775 19.8617 54.775 19.8617 54.775C19.7617 54.775 19.7617 54.775 19.6617 54.875H19.5617C19.5617 54.875 19.5617 54.875 19.5617 54.975V55.075C19.5617 55.075 19.5617 55.075 19.6617 55.075H19.8617L19.9617 54.975C19.9617 54.975 19.9617 54.975 19.9617 54.875Z" fill="#926C15"/>
<path d="M13.8617 43.775C13.7617 43.675 13.6617 43.675 13.5617 43.775C13.5617 43.775 13.4617 43.775 13.4617 43.875C13.4617 43.875 13.3617 43.875 13.3617 43.975C13.0617 43.975 12.9617 43.975 12.7617 44.075H12.6617C12.6617 44.075 12.4617 44.175 12.5617 44.075C12.4617 44.075 12.3617 44.175 12.3617 44.175C12.2617 44.175 12.2617 44.175 12.1617 44.175H11.9617C11.9617 44.175 11.9617 44.175 11.9617 44.075C11.9617 44.075 11.9617 43.975 12.0617 43.975C12.1617 43.875 12.1617 43.875 12.2617 43.775C12.2617 43.775 12.3617 43.775 12.3617 43.675C12.3617 43.675 12.3617 43.675 12.4617 43.675C12.7617 43.475 13.0617 43.275 13.3617 43.075C13.5617 42.975 13.3617 42.575 13.1617 42.775C12.8617 42.975 12.5617 43.075 12.2617 43.275C11.9617 43.475 11.5617 43.675 11.4617 44.075C11.3617 44.475 11.5617 44.975 11.8617 45.075C12.2617 45.275 12.6617 45.175 13.0617 45.075C13.2617 44.975 13.4617 44.875 13.6617 44.775C13.7617 44.675 13.8617 44.675 13.8617 44.575C13.8617 44.575 13.8617 44.475 13.9617 44.475C13.9617 44.375 14.0617 44.275 14.0617 44.175C13.9617 43.975 13.9617 43.775 13.8617 43.775Z" fill="#926C15"/>
<path d="M8.0617 46.175C7.9617 46.075 7.8617 45.975 7.6617 45.975C7.6617 45.975 7.6617 45.975 7.5617 45.975H7.3617C7.3617 45.975 7.3617 45.975 7.2617 45.975L7.1617 45.875C7.1617 45.875 7.1617 45.875 7.1617 45.975C7.1617 45.875 7.0617 45.875 7.0617 45.875H6.9617C6.8617 45.875 6.7617 45.875 6.6617 45.975C6.5617 46.075 6.5617 46.075 6.4617 46.275C6.4617 46.375 6.4617 46.375 6.4617 46.475C6.4617 46.575 6.4617 46.575 6.5617 46.675C6.6617 46.775 6.7617 46.875 6.7617 46.875C6.7617 46.875 6.8617 46.875 6.8617 46.975C6.9617 46.975 6.9617 47.075 7.0617 47.075C7.1617 47.075 7.3617 47.075 7.4617 47.075C7.5617 47.075 7.6617 46.975 7.7617 46.975C7.8617 46.975 7.9617 46.875 7.9617 46.775C8.0617 46.375 8.0617 46.275 8.0617 46.175Z" fill="#926C15"/>
<path d="M46.4617 84.575C44.7617 84.675 43.1617 84.675 41.6617 84.475C37.8617 84.075 33.7617 83.175 30.5617 80.975C27.2617 78.675 24.8617 74.675 25.7617 70.575C25.8617 70.275 25.8617 69.975 25.9617 69.775C26.3617 68.775 26.9617 67.875 27.6617 66.975C28.3617 66.175 28.9617 65.375 29.7617 64.575C31.4617 63.175 33.5617 62.175 35.5617 61.575C40.1617 60.175 45.1617 60.375 49.8617 61.475C50.9617 61.775 52.0617 62.075 53.1617 62.375C53.3617 62.475 53.5617 62.075 53.2617 61.975C50.9617 61.175 48.6617 60.675 46.2617 60.275C50.3617 60.675 54.5617 61.775 57.7617 64.575C59.2617 65.875 60.2617 67.375 60.8617 69.175C61.2617 68.875 61.7617 68.575 62.2617 68.375C61.9617 67.475 61.5617 66.675 61.0617 65.875C58.5617 62.175 54.1617 60.275 49.9617 59.375C45.4617 58.475 40.7617 58.575 36.3617 59.675C33.8617 60.275 31.6617 61.375 29.7617 63.275C29.5617 63.475 29.4617 63.675 29.2617 63.875C27.8617 64.875 26.7617 66.175 25.8617 67.675C24.8617 69.375 24.3617 71.275 24.4617 73.275C24.4617 73.475 24.3617 73.575 24.3617 73.775C24.3617 73.975 24.4617 74.075 24.5617 74.075C24.7617 76.175 25.6617 78.175 26.9617 79.775C29.7617 83.275 33.9617 84.975 38.2617 85.775C40.1617 86.175 42.1617 86.375 44.0617 86.375C44.8617 85.575 45.6617 85.075 46.4617 84.575Z" fill="#926C15"/>
<path d="M56.8617 68.175C54.7617 67.975 52.7617 68.875 50.6617 68.975C48.2617 69.075 46.2617 67.775 43.9617 67.175C40.1617 66.075 35.8617 67.675 33.6617 70.875C33.4617 71.075 33.7617 71.375 33.9617 71.175C35.1617 69.675 37.0617 68.475 38.9617 67.875C41.0617 67.275 42.9617 67.675 44.9617 68.575C46.8617 69.475 48.7617 70.375 50.9617 70.375C52.1617 70.375 53.4617 70.175 54.6617 69.875C53.8617 70.275 53.0617 70.475 52.2617 70.675C50.9617 70.875 49.6617 70.675 48.3617 70.475C45.7617 70.075 43.0617 69.375 40.4617 69.675C38.8617 69.775 37.3617 70.275 36.0617 71.175C35.3617 71.675 36.0617 72.775 36.8617 72.275C41.7617 69.475 47.3617 72.575 52.5617 71.375C53.8617 71.075 54.9617 70.475 55.9617 69.575C56.3617 69.475 56.6617 69.375 57.0617 69.275C57.4617 69.175 57.3617 68.275 56.8617 68.175Z" fill="#926C15"/>
<path d="M55.0617 75.775C53.0617 76.875 50.9617 77.775 48.6617 78.175C46.4617 78.575 44.1617 78.575 41.9617 78.175C39.7617 77.875 37.5617 77.275 35.3617 76.575C33.1617 75.775 30.8617 74.675 29.7617 72.475C29.7617 72.375 29.5617 72.475 29.5617 72.575C31.2617 75.975 35.2617 77.175 38.6617 78.075C42.2617 79.075 46.0617 79.575 49.7617 78.875C51.8617 78.475 53.8617 77.775 55.6617 76.575C56.0617 76.275 55.5617 75.475 55.0617 75.775Z" fill="#926C15"/>
<path d="M37.8617 81.775C36.2617 81.075 34.8617 79.875 33.7617 78.575C33.5617 78.375 33.1617 78.575 33.3617 78.875C33.9617 79.575 34.5617 80.275 35.2617 80.875C35.9617 81.475 36.7617 81.975 37.6617 82.275C37.9617 82.375 38.1617 81.875 37.8617 81.775Z" fill="#926C15"/>
<path d="M40.0617 82.375C39.6617 81.775 39.1617 81.275 38.5617 80.875C38.0617 80.375 37.5617 79.975 37.1617 79.375C36.9617 79.075 36.5617 79.375 36.6617 79.675C36.9617 80.275 37.4617 80.875 37.9617 81.375C38.4617 81.875 39.0617 82.375 39.6617 82.675C39.9617 82.875 40.2617 82.575 40.0617 82.375Z" fill="#926C15"/>
<path d="M42.1617 82.275C41.6617 81.975 41.2617 81.575 40.8617 81.175C40.4617 80.775 40.1617 80.275 39.7617 79.775C39.5617 79.475 39.1617 79.775 39.3617 80.075C40.0617 81.175 40.6617 82.375 41.8617 82.875C42.2617 82.975 42.4617 82.475 42.1617 82.275Z" fill="#926C15"/>
<path d="M44.7617 82.075C44.5617 81.875 44.3617 81.675 44.1617 81.575C43.9617 81.375 43.7617 81.175 43.5617 80.975C43.1617 80.575 42.8617 80.175 42.4617 79.875C42.3617 79.775 42.1617 79.775 42.0617 79.875C41.9617 79.975 41.9617 80.175 42.0617 80.275C42.4617 80.675 42.7617 81.075 43.0617 81.475C43.4617 81.875 43.8617 82.375 44.3617 82.575C44.7617 82.775 44.9617 82.375 44.7617 82.075Z" fill="#926C15"/>
<path d="M48.2617 82.275C47.9617 82.075 47.7617 81.975 47.4617 81.875C47.1617 81.775 46.8617 81.675 46.5617 81.575C46.0617 81.275 45.5617 80.975 45.0617 80.675C44.8617 80.575 44.6617 80.675 44.5617 80.875C44.4617 81.075 44.4617 81.275 44.6617 81.375C45.1617 81.775 45.6617 82.075 46.2617 82.375C46.5617 82.475 46.8617 82.675 47.1617 82.775C47.2617 82.775 47.4617 82.875 47.5617 82.875C47.7617 82.875 47.9617 82.875 48.0617 82.875C48.3617 82.875 48.4617 82.375 48.2617 82.275Z" fill="#926C15"/>
<path d="M46.2617 63.975C46.1617 63.975 46.1617 63.975 46.2617 63.975V63.975Z" fill="#926C15"/>
<path d="M48.7617 64.275C48.6617 64.175 48.5617 63.975 48.3617 64.075C48.2617 64.075 48.2617 64.075 48.1617 64.075C48.1617 64.075 48.1617 64.075 48.0617 64.075C47.9617 64.075 47.9617 64.075 47.8617 64.075C47.6617 64.075 47.3617 64.175 47.1617 64.175C47.0617 64.175 47.0617 64.175 46.9617 64.175C46.8617 64.175 46.6617 64.175 46.8617 64.175C46.7617 64.175 46.6617 64.175 46.4617 64.175C46.3617 64.175 46.2617 64.175 46.1617 64.075C46.0617 64.075 46.0617 64.075 45.9617 63.975L45.8617 63.875V63.775C45.8617 63.775 45.8617 63.775 45.8617 63.675L45.9617 63.575C45.9617 63.575 45.9617 63.575 46.0617 63.575C46.0617 63.575 46.0617 63.575 46.1617 63.575C46.2617 63.575 46.3617 63.475 46.4617 63.475C46.5617 63.475 46.5617 63.475 46.6617 63.475H46.7617C46.7617 63.475 46.7617 63.475 46.8617 63.475C47.3617 63.375 47.8617 63.375 48.3617 63.275C48.6617 63.175 48.5617 62.675 48.2617 62.675C47.7617 62.775 47.2617 62.775 46.8617 62.775C46.3617 62.875 45.7617 62.975 45.3617 63.375C44.9617 63.775 44.9617 64.575 45.3617 64.975C45.7617 65.475 46.3617 65.675 46.9617 65.675C47.2617 65.675 47.6617 65.675 47.9617 65.675C48.1617 65.675 48.2617 65.675 48.3617 65.575C48.4617 65.575 48.4617 65.475 48.4617 65.475C48.5617 65.375 48.6617 65.275 48.7617 65.175C48.8617 64.675 48.8617 64.475 48.7617 64.275Z" fill="#926C15"/>
<path d="M39.7617 64.175C39.7617 63.875 39.5617 63.675 39.3617 63.675H39.2617C39.2617 63.675 39.1617 63.675 39.1617 63.575L39.0617 63.475C39.0617 63.475 39.0617 63.375 38.9617 63.375C38.9617 63.275 38.9617 63.275 38.8617 63.175V63.275C38.8617 63.175 38.8617 63.075 38.7617 62.975L38.6617 62.875C38.5617 62.775 38.3617 62.675 38.1617 62.775C37.9617 62.775 37.8617 62.875 37.7617 62.975C37.7617 63.075 37.6617 63.075 37.6617 63.175C37.6617 63.275 37.6617 63.375 37.6617 63.475C37.6617 63.675 37.7617 63.775 37.8617 63.875L37.9617 63.975C38.0617 64.075 38.0617 64.175 38.1617 64.175C38.3617 64.275 38.4617 64.375 38.6617 64.375C38.8617 64.375 38.9617 64.475 39.1617 64.475C39.2617 64.475 39.4617 64.375 39.4617 64.275C39.6617 64.475 39.7617 64.375 39.7617 64.175Z" fill="#926C15"/>
<path d="M93.6617 82.875C93.1617 78.475 90.1617 74.675 86.8617 71.975C83.3617 69.075 79.1617 66.875 74.6617 65.875C72.1617 65.275 69.6617 65.175 67.1617 65.975C66.9617 66.075 66.6617 66.175 66.4617 66.275C64.7617 66.575 63.1617 67.075 61.6617 67.975C59.9617 68.975 58.6617 70.475 57.8617 72.275C57.7617 72.375 57.6617 72.575 57.5617 72.675C57.4617 72.775 57.4617 72.975 57.5617 72.975C56.8617 74.875 56.6617 77.075 57.0617 79.175C57.0617 79.375 57.1617 79.675 57.2617 79.875C57.6617 79.775 58.1617 79.675 58.6617 79.675C57.8617 76.575 58.1617 73.275 60.3617 70.775C60.5617 70.575 60.7617 70.375 60.9617 70.175C61.7617 69.475 62.7617 68.975 63.7617 68.475C64.6617 68.075 65.6617 67.675 66.6617 67.375C68.8617 66.975 71.1617 66.975 73.1617 67.375C77.8617 68.275 82.1617 70.875 85.7617 73.975C86.6617 74.775 87.4617 75.575 88.2617 76.375C88.4617 76.575 88.7617 76.275 88.5617 76.075C86.8617 74.375 85.0617 72.675 83.1617 71.275C86.5617 73.575 89.8617 76.575 91.3617 80.375C92.8617 84.175 91.9617 88.375 89.2617 91.475C83.7617 97.775 73.9617 94.475 68.0617 90.675C68.1617 91.275 68.1617 91.975 68.0617 92.575C70.5617 94.075 73.3617 95.275 76.2617 96.075C80.2617 97.075 84.7617 96.975 88.2617 94.575C91.9617 91.875 94.1617 87.175 93.6617 82.875Z" fill="#926C15"/>
<path d="M88.7617 83.075C86.9617 81.975 84.7617 81.775 82.9617 80.875C80.8617 79.775 79.5617 77.775 77.9617 76.175C75.0617 73.375 70.6617 72.875 67.1617 74.675C66.9617 74.775 67.0617 75.175 67.3617 75.075C69.1617 74.275 71.3617 74.075 73.2617 74.475C75.4617 74.975 76.9617 76.175 78.2617 77.875C79.5617 79.575 80.7617 81.275 82.6617 82.275C83.7617 82.775 84.9617 83.175 86.1617 83.575C85.3617 83.575 84.4617 83.375 83.6617 83.175C82.4617 82.775 81.3617 81.975 80.3617 81.175C78.2617 79.575 76.1617 77.775 73.7617 76.775C72.2617 76.175 70.7617 75.875 69.1617 75.975C68.2617 76.075 68.4617 77.375 69.2617 77.275C74.8617 77.075 78.3617 82.375 83.5617 83.775C84.8617 84.175 86.0617 84.075 87.3617 83.775C87.7617 83.875 88.0617 83.975 88.4617 83.975C88.8617 84.175 89.2617 83.375 88.7617 83.075Z" fill="#926C15"/>
<path d="M83.6617 88.875C81.3617 88.975 79.0617 88.775 76.8617 87.975C74.7617 87.275 72.7617 86.175 70.8617 84.875C69.0617 83.575 67.3617 81.975 65.8617 80.375C64.2617 78.675 62.7617 76.575 62.7617 74.175C62.7617 74.075 62.5617 74.075 62.5617 74.175C62.4617 77.875 65.4617 80.875 67.9617 83.275C70.7617 85.775 73.8617 87.975 77.4617 89.175C79.4617 89.775 81.6617 90.175 83.7617 89.875C84.3617 89.775 84.2617 88.875 83.6617 88.875Z" fill="#926C15"/>
<path d="M67.2617 87.375C67.1617 86.775 66.9617 86.275 66.7617 85.675C66.5617 85.075 66.3617 84.375 66.2617 83.675C66.2617 83.275 65.6617 83.375 65.6617 83.775C66.1617 85.075 66.7617 86.175 67.2617 87.375Z" fill="#926C15"/>
<path d="M69.2617 88.575C68.9617 88.075 68.7617 87.575 68.6617 86.975C68.5617 86.375 68.4617 85.775 68.3617 85.275C68.2617 84.975 67.8617 84.975 67.8617 85.375C67.9617 86.575 67.8617 87.975 68.7617 88.975C68.9617 89.275 69.4617 88.875 69.2617 88.575Z" fill="#926C15"/>
<path d="M71.5617 89.675C71.4617 89.375 71.3617 89.175 71.2617 88.975C71.1617 88.675 71.0617 88.475 71.0617 88.175C70.8617 87.675 70.7617 87.175 70.5617 86.675C70.4617 86.475 70.3617 86.475 70.1617 86.475C69.9617 86.575 69.9617 86.675 69.9617 86.875C70.0617 87.375 70.1617 87.875 70.2617 88.375C70.3617 88.875 70.5617 89.475 70.8617 89.975C71.2617 90.275 71.6617 90.075 71.5617 89.675Z" fill="#926C15"/>
<path d="M74.6617 91.475C74.5617 91.175 74.3617 90.975 74.1617 90.675C73.9617 90.475 73.7617 90.175 73.5617 89.975C73.1617 89.475 72.7617 89.075 72.5617 88.575C72.4617 88.375 72.1617 88.375 72.0617 88.475C71.8617 88.575 71.7617 88.775 71.8617 88.975C72.1617 89.575 72.4617 90.075 72.8617 90.575C73.0617 90.875 73.2617 91.075 73.5617 91.275C73.6617 91.375 73.7617 91.475 73.8617 91.575C73.9617 91.675 74.1617 91.775 74.3617 91.875C74.4617 91.975 74.7617 91.675 74.6617 91.475Z" fill="#926C15"/>
<path d="M76.2617 92.675C76.3617 92.675 76.3617 92.675 76.2617 92.675C76.3617 92.575 76.3617 92.575 76.3617 92.575C76.3617 92.575 76.3617 92.575 76.3617 92.475C76.3617 92.475 76.3617 92.475 76.3617 92.375C76.2617 92.275 76.1617 92.275 76.1617 92.175H75.9617C75.9617 92.175 75.9617 92.175 75.8617 92.175L75.7617 92.275V92.475C75.7617 92.475 75.7617 92.575 75.8617 92.575H75.9617L76.2617 92.675Z" fill="#926C15"/>
<path d="M83.4617 75.775C83.4617 75.575 83.3617 75.475 83.1617 75.375C83.0617 75.375 83.0617 75.275 82.9617 75.275C82.9617 75.275 82.9617 75.275 82.8617 75.275C82.7617 75.275 82.7617 75.175 82.6617 75.175C82.4617 75.075 82.2617 74.975 82.0617 74.875L81.9617 74.775C81.9617 74.775 81.7617 74.575 81.8617 74.775C81.7617 74.675 81.6617 74.675 81.5617 74.575C81.4617 74.475 81.3617 74.475 81.3617 74.375L81.2617 74.275V74.175C81.2617 74.175 81.2617 74.175 81.2617 74.075V73.975H81.3617C81.4617 73.975 81.4617 73.975 81.5617 73.975C81.5617 73.975 81.5617 73.975 81.6617 73.975C81.6617 73.975 81.6617 73.975 81.7617 73.975C81.8617 73.975 81.9617 73.975 82.0617 73.975C82.1617 73.975 82.1617 73.975 82.2617 73.975H82.3617C82.3617 73.975 82.3617 73.975 82.4617 73.975C82.9617 74.075 83.3617 74.375 83.8617 74.475C84.1617 74.575 84.3617 73.975 84.0617 73.875C83.5617 73.675 83.1617 73.475 82.7617 73.275C82.0617 72.975 81.5617 72.775 80.9617 72.975C80.3617 73.175 80.0617 73.775 80.1617 74.375C80.2617 74.975 80.7617 75.475 81.2617 75.775C81.5617 75.975 81.8617 76.075 82.1617 76.175C82.3617 76.175 82.4617 76.275 82.5617 76.275C82.6617 76.275 82.6617 76.275 82.7617 76.275C82.8617 76.275 83.0617 76.175 83.1617 76.175C83.3617 76.175 83.4617 75.975 83.4617 75.775Z" fill="#926C15"/>
<path d="M75.4617 71.475C75.5617 71.275 75.5617 70.975 75.3617 70.775C75.3617 70.775 75.3617 70.775 75.2617 70.675L75.1617 70.575C75.1617 70.575 75.1617 70.475 75.0617 70.475V70.375C75.0617 70.275 75.0617 70.275 75.0617 70.175V70.275C75.0617 70.175 75.1617 70.075 75.0617 69.975V69.875C74.9617 69.675 74.8617 69.575 74.6617 69.575C74.4617 69.575 74.3617 69.575 74.2617 69.575C74.1617 69.575 74.1617 69.675 74.0617 69.675C74.1617 69.875 74.0617 69.975 74.0617 70.075C74.0617 70.275 73.9617 70.375 74.0617 70.575C74.0617 70.675 74.0617 70.675 74.0617 70.775C74.0617 70.875 74.0617 70.975 74.1617 71.075C74.2617 71.275 74.3617 71.375 74.4617 71.575C74.5617 71.675 74.7617 71.775 74.8617 71.875C74.9617 71.975 75.1617 71.975 75.2617 71.875C75.3617 71.675 75.4617 71.575 75.4617 71.475Z" fill="#926C15"/>
</svg>
