<svg width="65" height="70" viewBox="0 0 65 70" fill="none" xmlns="http://www.w3.org/2000/svg">
<rect x="0.5" y="0.5" width="64" height="69" rx="10.5" stroke="#62412B"/>
<path d="M18.4607 34.1007H45.7982V45.6844H18.4607V34.1007Z" fill="#FBCA20"/>
<path d="M49.8988 37.4831C48.8887 35.0737 47.6192 32.8219 45.6731 30.9963C43.2266 28.7305 40.3446 28.5035 37.5784 30.3429C36.8373 30.8766 35.9878 31.2404 35.0902 31.4086C36.7305 28.851 36.0494 26.664 34.3211 24.6206C34.006 24.2453 33.6538 23.8978 33.3017 23.5503C32.7808 23.0381 32.3149 22.4728 31.9117 21.8637C31.5669 21.3901 31.3866 20.8167 31.3983 20.231C31.41 19.6454 31.6131 19.0797 31.9765 18.6202C32.3529 18.0918 32.773 17.5958 33.2322 17.1375C33.3591 17.0354 33.4641 16.9087 33.5408 16.765C33.6176 16.6213 33.6645 16.4636 33.6788 16.3013C33.6931 16.139 33.6744 15.9756 33.6239 15.8207C33.5735 15.6658 33.4922 15.5227 33.3851 15.4C32.9218 14.8764 32.2036 14.881 31.5919 15.4509C30.7053 16.2567 29.9844 17.2278 29.4698 18.3098C29.1678 18.9306 29.0109 19.6119 29.0109 20.3022C29.0109 20.9925 29.1678 21.6738 29.4698 22.2946C30.0223 23.4445 30.7881 24.4791 31.7263 25.3434C32.3812 25.939 32.931 26.6408 33.3527 27.4192C33.556 27.7714 33.6631 28.1709 33.6631 28.5776C33.6631 28.9843 33.556 29.3838 33.3527 29.736C33.08 30.2092 32.7701 30.6601 32.426 31.0843C32.3243 31.2157 32.1936 31.3217 32.0441 31.394C31.8945 31.4664 31.7303 31.5031 31.5641 31.5013C30.0004 31.5903 28.4548 31.1297 27.1948 30.1993C26.1792 29.4822 24.9624 29.1057 23.7193 29.124C22.4762 29.1424 21.271 29.5545 20.277 30.3012C19.0098 31.2174 17.9411 32.3806 17.1355 33.7207C14.4882 38.021 12.9222 42.8987 12.5715 47.9363C12.3846 49.5191 12.5653 51.1237 13.0997 52.6253C13.8921 54.6687 15.5138 55.4054 17.5988 54.7243C18.4065 54.4407 19.1671 54.0377 19.8554 53.5289C21.0583 52.6201 22.1806 51.6093 23.21 50.5078C24.0001 49.6964 24.9456 49.0525 25.9901 48.6147C27.0346 48.1768 28.1566 47.954 29.2891 47.9594C31.4483 47.9594 33.6075 47.9594 35.776 47.9594C37.6597 47.9594 39.4901 48.5853 40.9794 49.7387C41.9061 50.4337 42.6057 51.3419 43.4583 52.1064C44.663 53.186 45.9048 54.2007 47.4662 54.7289C49.5328 55.424 51.1081 54.6919 51.9144 52.6763C52.3012 51.6822 52.4992 50.6247 52.4982 49.558C52.5492 45.3369 51.5159 41.3428 49.8988 37.4831ZM25.3414 40.8239C24.5398 40.7729 24.2571 40.9953 24.3174 41.834C24.3776 42.6726 23.8911 43.1823 23.1683 43.173C22.4455 43.1638 21.9868 42.6865 22.0424 41.783C22.0933 41.0092 21.8848 40.7405 21.074 40.8007C20.2631 40.8609 19.7071 40.4022 19.6839 39.6887C19.6607 38.9751 20.1473 38.4747 21.0091 38.5257C21.8709 38.5766 22.0979 38.3542 22.0377 37.5156C21.9775 36.6769 22.4594 36.1672 23.1822 36.1765C23.3462 36.1682 23.51 36.1972 23.6612 36.2611C23.8125 36.3251 23.9473 36.4225 24.0556 36.5459C24.1639 36.6694 24.2428 36.8157 24.2866 36.974C24.3303 37.1323 24.3377 37.2984 24.3081 37.46C24.2479 38.3079 24.4796 38.5998 25.3553 38.5303C25.5163 38.4972 25.6827 38.5011 25.842 38.5417C26.0012 38.5824 26.1492 38.6587 26.2746 38.7649C26.4 38.8712 26.4996 39.0045 26.5659 39.1549C26.6322 39.3053 26.6635 39.4688 26.6573 39.6331C26.6758 40.3837 26.1939 40.8748 25.3414 40.8239ZM34.7983 40.8239C34.0477 40.8239 33.2971 40.8239 32.5464 40.8239C31.7958 40.8239 31.0452 40.8239 30.2946 40.8239C30.1331 40.8407 29.9699 40.8225 29.8161 40.7705C29.6623 40.7186 29.5214 40.6341 29.4032 40.5229C29.2849 40.4117 29.192 40.2763 29.1307 40.1259C29.0695 39.9756 29.0413 39.8138 29.0482 39.6516C29.0472 39.4949 29.0795 39.3397 29.1427 39.1963C29.206 39.0528 29.2989 38.9244 29.4153 38.8194C29.5316 38.7144 29.6689 38.6352 29.8181 38.587C29.9672 38.5387 30.1248 38.5226 30.2807 38.5396C31.7819 38.5149 33.2832 38.5149 34.7844 38.5396C34.9466 38.5208 35.111 38.538 35.2658 38.5899C35.4206 38.6419 35.5621 38.7273 35.6802 38.84C35.7983 38.9528 35.8901 39.0902 35.9491 39.2425C36.0081 39.3948 36.0328 39.5582 36.0215 39.7211C35.9984 40.393 35.5628 40.81 34.7891 40.8378L34.7983 40.8239ZM39.6032 40.8239C39.3778 40.8307 39.1553 40.771 38.9635 40.6522C38.7718 40.5334 38.6192 40.3608 38.5249 40.156C38.4305 39.9511 38.3985 39.7229 38.4329 39.5C38.4673 39.2771 38.5666 39.0692 38.7183 38.9023C38.8701 38.7354 39.0675 38.6169 39.2862 38.5614C39.5048 38.506 39.735 38.5161 39.9479 38.5906C40.1608 38.6651 40.3471 38.8005 40.4836 38.9801C40.62 39.1597 40.7006 39.3755 40.7153 39.6006C40.7308 39.757 40.7134 39.9148 40.6641 40.064C40.6147 40.2131 40.5346 40.3502 40.4289 40.4664C40.3232 40.5826 40.1942 40.6753 40.0504 40.7385C39.9066 40.8017 39.7511 40.8339 39.594 40.8331L39.6032 40.8239ZM41.92 43.1638C41.6942 43.1681 41.4721 43.1057 41.2816 42.9846C41.091 42.8634 40.9404 42.6888 40.8485 42.4825C40.7566 42.2762 40.7275 42.0474 40.7649 41.8247C40.8023 41.602 40.9044 41.3952 41.0586 41.2303C41.2128 41.0653 41.4122 40.9494 41.6319 40.8971C41.8516 40.8447 42.0818 40.8583 42.2938 40.936C42.5058 41.0138 42.6902 41.1523 42.824 41.3342C42.9578 41.5162 43.035 41.7335 43.0459 41.9591C43.0581 42.1142 43.038 42.2701 42.9868 42.417C42.9357 42.564 42.8547 42.6987 42.7489 42.8128C42.6432 42.9268 42.5149 43.0177 42.3722 43.0797C42.2295 43.1418 42.0756 43.1735 41.92 43.173V43.1638ZM41.8829 38.484C41.657 38.4812 41.437 38.4119 41.2503 38.2848C41.0636 38.1577 40.9185 37.9784 40.8331 37.7693C40.7477 37.5601 40.7259 37.3305 40.7703 37.109C40.8147 36.8875 40.9234 36.6841 41.0828 36.524C41.2422 36.364 41.4452 36.2545 41.6665 36.2092C41.8878 36.1639 42.1176 36.1848 42.327 36.2694C42.5365 36.3539 42.7164 36.4983 42.8442 36.6845C42.9721 36.8707 43.0423 37.0905 43.0459 37.3163C43.0538 37.4718 43.0291 37.6271 42.9736 37.7725C42.9181 37.9179 42.833 38.0502 42.7236 38.1609C42.6142 38.2716 42.483 38.3583 42.3382 38.4155C42.1935 38.4728 42.0384 38.4992 41.8829 38.4932V38.484ZM45.3858 39.7489C45.3712 39.9731 45.2909 40.188 45.1549 40.3668C45.019 40.5457 44.8334 40.6805 44.6213 40.7546C44.4092 40.8288 44.18 40.8388 43.9623 40.7836C43.7445 40.7283 43.5479 40.6102 43.3968 40.4439C43.2457 40.2777 43.1469 40.0706 43.1127 39.8486C43.0785 39.6266 43.1103 39.3994 43.2043 39.1954C43.2983 38.9913 43.4503 38.8195 43.6413 38.7012C43.8323 38.5829 44.0539 38.5235 44.2784 38.5303C44.4326 38.5317 44.5849 38.5649 44.7257 38.6278C44.8665 38.6907 44.9928 38.7819 45.0968 38.8959C45.2007 39.0098 45.28 39.144 45.3297 39.2899C45.3795 39.4359 45.3986 39.5906 45.3858 39.7443V39.7489Z" fill="#62412B"/>
</svg>
