<svg width="62" height="54" viewBox="0 0 62 54" fill="none" xmlns="http://www.w3.org/2000/svg">
<rect x="0.35" y="0.35" width="61.3" height="53.3" rx="10.65" stroke="#F3EDE7" stroke-width="0.7"/>
<path d="M43.5431 41.9598C41.6294 41.9598 39.7157 41.9598 37.802 41.9598H37.3088C37.3306 41.9 37.3645 41.8462 37.408 41.8022C37.4515 41.7582 37.5035 41.7251 37.5603 41.7053C41.4074 40.0401 43.839 37.0544 44.7268 32.69C45.1904 30.4309 44.9191 28.1187 44.9389 25.8331C44.9389 25.1702 44.3963 24.7724 43.6516 24.7724H23.6417C23.2965 24.7724 22.8526 24.7725 22.7145 25.0906C22.3889 25.8861 21.728 25.8596 21.1115 26.0399C20.3874 26.2451 19.6982 26.5727 19.0696 27.0104C18.3032 27.5241 17.7026 28.2793 17.3496 29.1732C16.9966 30.0671 16.9083 31.0561 17.0967 32.0059C17.7034 34.9438 20.5493 37.0597 23.4444 36.6938C23.7108 36.662 23.9377 36.5665 24.1152 36.9006C25.5149 39.1927 27.5364 40.9664 29.9056 41.981H23.5332C22.601 41.981 22.0881 42.4424 22.0881 43.2272C22.0881 44.0121 22.6257 44.5 23.5283 44.5H43.5233C44.4062 44.5 44.9487 43.9697 44.929 43.1954C44.9093 42.4212 44.4161 41.9598 43.5431 41.9598ZM19.3458 31.2104C19.2373 29.7467 20.3963 28.596 22.2656 28.3574C22.2311 30.3036 22.2657 32.2445 22.8772 34.1165C21.1954 34.2544 19.4691 32.8066 19.3458 31.2104Z" fill="#FBCA20"/>
<path d="M34.2311 20.1482C34.235 20.4647 34.3547 20.7668 34.5642 20.9891C34.7738 21.2114 35.0563 21.3361 35.3507 21.336C35.5018 21.3417 35.6524 21.3151 35.7939 21.2578C35.9354 21.2005 36.0649 21.1136 36.175 21.0022C36.285 20.8907 36.3735 20.7569 36.4352 20.6085C36.4969 20.4601 36.5306 20.3001 36.5344 20.1376C36.5798 19.5266 36.5029 18.9123 36.3089 18.336C36.115 17.7597 35.8084 17.2348 35.4099 16.7966C35.0942 16.4042 34.7638 16.0276 34.453 15.6299C34.1384 15.2797 33.9502 14.8204 33.9222 14.3344C33.8942 13.8484 34.0282 13.3677 34.3001 12.9784C34.6207 12.4481 34.9808 11.9708 35.2866 11.4458C35.4507 11.2026 35.5199 10.9001 35.4794 10.6028C35.4388 10.3055 35.2917 10.0371 35.0696 9.85483C34.9793 9.74595 34.8691 9.65827 34.7459 9.59726C34.6227 9.53625 34.4891 9.50321 34.3535 9.50022C34.2178 9.49724 34.0831 9.52437 33.9576 9.57991C33.8322 9.63545 33.7188 9.7182 33.6244 9.82301C32.5246 11.0586 31.6812 12.4746 31.5578 14.1344C31.6072 15.8049 32.347 16.9981 33.2989 18.0693C33.5852 18.3224 33.8169 18.6394 33.9779 18.9984C34.1389 19.3574 34.2253 19.7497 34.2311 20.1482Z" fill="#F3EDE7"/>
<path d="M30.1818 20.5088C30.614 20.8876 30.9415 21.3864 31.1288 21.9512C31.1633 22.1103 31.2284 22.2598 31.3201 22.3901C31.4117 22.5203 31.5278 22.6284 31.6608 22.7074C31.7937 22.7864 31.9406 22.8345 32.092 22.8486C32.2433 22.8626 32.3958 22.8424 32.5394 22.7891C32.6859 22.7471 32.823 22.6737 32.9426 22.5735C33.0622 22.4732 33.1618 22.3481 33.2354 22.2055C33.3091 22.063 33.3553 21.906 33.3712 21.7439C33.3872 21.5817 33.3727 21.4178 33.3285 21.2618C33.1471 20.3943 32.7197 19.6086 32.1053 19.0133C31.5283 18.414 30.9463 17.8201 30.3889 17.2102C30.075 16.9204 29.8482 16.5368 29.7376 16.1081C29.6269 15.6794 29.6373 15.225 29.7675 14.8026C29.8038 14.6428 29.8104 14.4769 29.787 14.3143C29.7636 14.1517 29.7107 13.9957 29.6312 13.8551C29.5518 13.7145 29.4473 13.5921 29.3239 13.4949C29.2004 13.3977 29.0604 13.3276 28.9117 13.2886C28.7631 13.2496 28.6087 13.2425 28.4575 13.2676C28.3063 13.2927 28.1612 13.3496 28.0304 13.4351C27.8997 13.5205 27.7859 13.6328 27.6955 13.7655C27.6051 13.8983 27.5399 14.0489 27.5036 14.2087C27.292 14.8908 27.2417 15.6187 27.3571 16.327C27.4724 17.0352 27.7499 17.7014 28.1645 18.2656C28.7611 19.0881 29.4373 19.84 30.1818 20.5088Z" fill="#F3EDE7"/>
</svg>
