<svg width="97" height="54" viewBox="0 0 97 54" fill="none" xmlns="http://www.w3.org/2000/svg">
<path d="M1.02447 53.296C0.37939 46.5399 1.22682 39.7246 3.50682 33.3321C5.78682 26.9397 9.44365 21.1264 14.2187 16.3035C18.4307 12.085 23.7316 8.65791 29.6373 8.26974C35.5429 7.88157 41.9538 11.3079 43.516 17.0254C44.0134 18.7233 43.995 20.5308 43.4631 22.2182C42.9311 23.9056 41.9097 25.3969 40.5285 26.5026C37.6654 28.5614 33.0962 28.0505 31.1703 25.0916C30.4629 23.9298 30.0723 22.603 30.0373 21.2433C29.6723 13.5976 36.873 7.77624 43.9596 4.77197C52.4908 1.30016 61.7361 -0.0532648 70.9045 0.827508C80.0729 1.70828 88.8914 4.79701 96.6056 9.82946" stroke="#1D1D1B" stroke-width="0.77" stroke-miterlimit="10" stroke-dasharray="2.58 2.58"/>
</svg>
