<svg width="63" height="54" viewBox="0 0 63 54" fill="none" xmlns="http://www.w3.org/2000/svg">
<rect x="0.85" y="0.35" width="61.3" height="53.3" rx="10.65" stroke="#F3EDE7" stroke-width="0.7"/>
<path d="M24.6247 43.9955C22.7142 43.9955 20.863 43.9955 19.0075 43.9955C18.8721 44.0093 18.7355 43.9912 18.6073 43.9426C18.4792 43.8941 18.3627 43.8162 18.2661 43.7145C18.1695 43.6127 18.0951 43.4897 18.0483 43.3541C18.0015 43.2185 17.9833 43.0736 17.9951 42.9297C17.6562 36.9963 17.3187 31.0645 16.9827 25.1341C16.8979 23.6095 16.8175 22.0895 16.72 20.5694C16.6946 20.2366 16.7412 20.1197 17.0928 20.1197C22.9048 20.1197 28.7139 20.1197 34.5203 20.1197C34.7194 20.1197 34.9439 20.0522 34.9058 20.43C34.8507 21.0461 34.821 21.6622 34.8168 22.2828C34.8168 22.6831 34.6685 22.7775 34.2958 22.782C32.9649 22.7243 31.6319 22.7589 30.3053 22.8855C26.5987 23.4521 23.6207 27.1849 23.752 31.1514C23.7662 31.6734 23.9085 32.1823 24.1649 32.628C24.4212 33.0736 24.7826 33.4405 25.2135 33.6924C25.4676 33.8588 25.5651 33.9262 25.4041 34.268C25.1328 34.8175 24.9911 35.4286 24.9911 36.0489C24.9911 36.6693 25.1328 37.2804 25.4041 37.8298C25.5015 38.0322 25.6329 38.1761 25.3279 38.3425C23.8028 39.17 23.3877 40.8475 24.057 42.7453C24.1968 43.1501 24.4086 43.5278 24.6247 43.9955Z" fill="#FBCA20"/>
<path d="M36.5748 32.0554H26.8317C25.9209 32.0554 25.599 31.7001 25.6244 30.7287C25.6964 27.6211 28.3186 24.8058 31.2585 24.7743C34.7999 24.7324 38.3399 24.7324 41.8784 24.7743C44.7929 24.8103 47.3854 27.6031 47.4871 30.6927C47.5167 31.7046 47.2033 32.0419 46.2544 32.0419L36.5748 32.0554Z" fill="#F3EDE7"/>
<path d="M46.2332 40.0155C47.2626 40.0155 47.6692 40.5596 47.4362 41.6165C47.3041 42.2924 46.9554 42.8988 46.4495 43.3326C45.9436 43.7663 45.3118 44.0006 44.6616 43.9955C39.2506 43.9955 33.8425 43.9955 28.4372 43.9955C27.7766 43.9968 27.1364 43.7524 26.6279 43.3046C26.1195 42.8568 25.7749 42.234 25.654 41.5445C25.4677 40.5551 25.8743 40.02 26.8274 40.02L46.2332 40.0155Z" fill="#F3EDE7"/>
<path d="M36.5579 34.0477H44.1829C45.4114 34.0477 46.2374 34.8347 46.2501 36.004C46.2628 37.1732 45.4283 38.0187 44.1575 38.0187H28.9074C27.6832 38.0187 26.8529 37.2272 26.8402 36.0579C26.8275 34.8887 27.6577 34.0387 28.9116 34.0387L36.5579 34.0477Z" fill="#F3EDE7"/>
<path d="M27.5434 16.1351H34.9227C35.6979 16.1351 36.1258 16.5039 36.1173 17.147C36.1088 17.7901 35.6937 18.1229 34.9524 18.1229H16.6523C15.9279 18.1229 15.5043 17.7496 15.5 17.1335C15.4958 16.5174 15.9236 16.1351 16.6395 16.1351C19.3676 16.1351 22.0957 16.1351 24.8238 16.1351C24.9753 16.146 25.1265 16.1092 25.2584 16.0291C25.3903 15.9491 25.497 15.8295 25.5651 15.6854C26.5267 14.0889 27.5307 12.5373 28.4711 10.9093C28.6154 10.6082 28.8427 10.3608 29.1227 10.2002C29.4027 10.0395 29.7221 9.97312 30.0384 10.0099C31.0763 10.0728 32.1184 10.0099 33.1605 10.0099C33.8256 10.0099 34.2449 10.4056 34.2407 11.0038C34.2365 11.6019 33.8171 11.9887 33.1562 11.9977C32.2624 11.9977 31.3686 11.9977 30.4705 11.9977C30.2757 11.9977 30.085 11.9572 29.9368 12.209C29.17 13.5132 28.3821 14.7724 27.5434 16.1351Z" fill="#FBCA20"/>
</svg>
