<svg width="65" height="70" viewBox="0 0 65 70" fill="none" xmlns="http://www.w3.org/2000/svg">
<rect x="0.5" y="0.5" width="64" height="69" rx="10.5" stroke="#62412B"/>
<path d="M15.6497 47.3414H49.643C50.0327 47.3414 50.3993 47.4435 50.3065 46.7753C49.766 43.0978 48.1002 39.6779 45.5379 36.9852C42.9757 34.2925 39.6426 32.4591 35.9965 31.7368C35.3329 31.6115 35.2123 31.4723 35.3051 30.8088C35.3603 30.4357 35.3392 30.0553 35.2429 29.6906C35.1467 29.3259 34.9773 28.9846 34.7452 28.6874C34.513 28.3902 34.2229 28.1432 33.8924 27.9615C33.562 27.7798 33.198 27.6671 32.8226 27.6303C32.4488 27.582 32.069 27.6101 31.7064 27.7129C31.3437 27.8157 31.0057 27.991 30.7129 28.2284C30.42 28.4657 30.1784 28.76 30.0027 29.0935C29.8269 29.427 29.7208 29.7927 29.6906 30.1684C29.6581 30.6324 29.9087 31.3238 29.6906 31.5604C29.3704 31.8621 28.7254 31.8249 28.215 31.9317L28.1454 31.9595C20.7955 34.0847 16.3364 38.8779 14.833 46.3902C14.6196 47.3367 14.6381 47.3414 15.6497 47.3414ZM36.609 35.1704C36.6507 34.9013 36.9106 34.9384 37.3374 35.008C37.6947 35.1472 38.2655 35.3375 38.7991 35.5834C41.6532 36.8549 43.9795 39.0746 45.3834 41.8661C45.504 42.0888 45.8056 42.3904 45.4158 42.5899C45.0261 42.7895 44.9518 42.3626 44.8451 42.1259C44.0506 40.5863 42.9587 39.2194 41.6326 38.1044C40.3065 36.9894 38.7725 36.1483 37.1194 35.6298C36.8781 35.5417 36.5533 35.5231 36.609 35.1704Z" fill="#62412B"/>
<path d="M51.5779 47.977H12.9863C12.5687 47.977 12.4434 48.1533 12.5223 48.571C12.7309 49.6538 13.3228 50.6252 14.1895 51.307C15.0563 51.9888 16.1397 52.3353 17.2412 52.283H47.7034C50.0234 52.283 51.5964 51.1462 52.3156 48.9514C52.6451 48.0095 52.608 47.977 51.5779 47.977Z" fill="#FBCA20"/>
<path d="M39.4348 24.9066C39.2477 25.407 39.1846 25.9452 39.2509 26.4753C39.3172 27.0054 39.5108 27.5115 39.8153 27.9505C39.9266 28.1221 40.0519 28.3356 40.3071 28.2057C40.5623 28.0757 40.5159 27.8716 40.3813 27.6767C39.5972 26.5538 39.8431 25.417 40.3535 24.2848C40.6488 23.71 40.8075 23.0749 40.8175 22.4288C40.857 22.0727 40.7926 21.7127 40.632 21.3925C40.4715 21.0722 40.2216 20.8052 39.9127 20.6238C39.7549 20.5217 39.5415 20.4799 39.4208 20.6609C39.3954 20.6982 39.3781 20.7405 39.3702 20.785C39.3622 20.8294 39.3638 20.8751 39.3748 20.9189C39.3857 20.9627 39.4058 21.0038 39.4338 21.0393C39.4617 21.0748 39.4968 21.1039 39.5368 21.1249C40.4324 21.7467 40.2514 22.5958 40.0009 23.4449C39.8385 23.9553 39.5972 24.4194 39.4348 24.9066Z" fill="#FBCA20"/>
<path d="M31.8853 22.1364C31.7134 22.6277 31.6582 23.1522 31.7242 23.6685C31.7903 24.1848 31.9757 24.6786 32.2658 25.1107C32.3818 25.287 32.5164 25.5515 32.8134 25.3427C33.1103 25.1339 32.9433 24.9854 32.8134 24.8091C32.1081 23.7651 32.2658 22.7025 32.7345 21.6307C33.0686 20.9937 33.2542 20.2894 33.2774 19.5705C33.3105 19.2263 33.2468 18.8797 33.0934 18.5698C32.9401 18.2599 32.7033 17.999 32.4097 17.8165C32.2612 17.7191 32.0617 17.6402 31.9132 17.8165C31.8849 17.8512 31.8645 17.8917 31.8534 17.935C31.8422 17.9784 31.8405 18.0236 31.8485 18.0677C31.8564 18.1117 31.8737 18.1536 31.8993 18.1903C31.9249 18.227 31.9581 18.2578 31.9967 18.2805C32.9247 18.9626 32.7113 19.8442 32.405 20.7305C32.2426 21.2223 32.0338 21.6678 31.8853 22.1364Z" fill="#FBCA20"/>
<path d="M24.0483 26.0944C24.0188 26.7561 24.2098 27.4089 24.5911 27.9504C24.7071 28.1267 24.8417 28.4144 25.1387 28.1917C25.4356 27.969 25.2825 27.8391 25.1387 27.6535C24.4334 26.6141 24.5865 25.5469 25.0505 24.4704C25.4128 23.7788 25.6023 23.0099 25.6027 22.2292C25.5923 21.9166 25.5047 21.6115 25.3476 21.341C25.1905 21.0706 24.9689 20.8433 24.7025 20.6794C24.6353 20.6161 24.5465 20.5809 24.4543 20.5809C24.362 20.5809 24.2732 20.6161 24.206 20.6794C24.1744 20.7027 24.1486 20.7331 24.1309 20.7682C24.1132 20.8032 24.1039 20.842 24.1039 20.8813C24.1039 20.9206 24.1132 20.9593 24.1309 20.9944C24.1486 21.0294 24.1744 21.0598 24.206 21.0831C25.3985 21.9508 24.9113 22.9855 24.5169 24.0156C24.2121 24.6665 24.0522 25.3757 24.0483 26.0944Z" fill="#FBCA20"/>
</svg>
