<svg width="62" height="54" viewBox="0 0 62 54" fill="none" xmlns="http://www.w3.org/2000/svg">
<rect x="0.35" y="0.35" width="61.3" height="53.3" rx="10.65" stroke="#F3EDE7" stroke-width="0.7"/>
<path d="M16.5064 32.3684C21.3226 32.3392 26.1389 32.3684 30.9551 32.3684H45.6929C46.0114 32.3684 46.3593 32.4901 46.2858 31.8816C45.8474 28.676 44.4032 25.6893 42.1585 23.3462C39.9138 21.003 36.9827 19.4226 33.7822 18.8296C33.2922 18.7468 33.1501 18.7128 33.2677 18.1529C33.3203 17.8459 33.3089 17.5315 33.2342 17.2291C33.1594 16.9267 33.023 16.6427 32.8333 16.3949C32.6435 16.147 32.4046 15.9405 32.1313 15.7882C31.8579 15.6359 31.556 15.541 31.2442 15.5094C30.6274 15.4545 30.0133 15.6411 29.5329 16.0294C29.0524 16.4177 28.7435 16.977 28.6719 17.5882C28.6278 17.9874 29.01 18.4694 28.6719 18.7128C28.3339 18.9562 27.8488 18.8978 27.4275 18.9805C27.3785 18.9805 27.3344 19.0146 27.2903 19.0243C20.8915 20.8548 17.0404 24.9929 15.7616 31.5067C15.6245 32.2808 15.8106 32.3733 16.5064 32.3684ZM19.4461 29.5886C21.1511 25.3694 24.2411 22.7859 28.716 21.8382C29.1129 21.7506 29.5245 21.7117 29.9262 21.6532C30.4799 21.6143 30.9355 21.7603 30.9796 22.3689C31.0237 22.9774 30.6171 23.1186 30.0928 23.177C28.2619 23.3213 26.4993 23.9314 24.9745 24.9486C23.4496 25.9658 22.2139 27.3558 21.3863 28.9849C21.1932 29.3412 21.0293 29.7124 20.8964 30.0949C20.7102 30.6304 20.377 30.9322 19.8136 30.718C19.2501 30.5038 19.2403 30.0754 19.4412 29.5886H19.4461Z" fill="#FBCA20"/>
<path d="M49.4019 34.3108C49.1471 33.824 48.7012 33.8921 48.2652 33.8921H13.5813C12.5426 33.8921 12.2242 34.4179 12.7484 35.304C13.2744 36.2791 14.0607 37.0914 15.021 37.6514C15.9814 38.2113 17.0785 38.4974 18.1918 38.4781C26.717 38.5073 35.2438 38.5073 43.7723 38.4781C44.8494 38.4953 45.9118 38.2281 46.8509 37.7038C47.79 37.1795 48.5723 36.4169 49.1177 35.4938C49.3627 35.1433 49.6566 34.783 49.4019 34.3108Z" fill="#F3EDE7"/>
</svg>
