<svg width="46" height="46" viewBox="0 0 46 46" fill="none" xmlns="http://www.w3.org/2000/svg">
<path d="M15.4116 38.3968C15.9219 37.4517 14.5106 36.6516 14.9076 35.5995C14.958 35.4546 14.9076 35.2656 15.0084 35.1459C15.3189 34.764 15.4884 34.2868 15.4884 33.7945C15.4884 33.3023 15.3189 32.825 15.0084 32.4431C14.9616 32.3796 14.9295 32.3066 14.9143 32.2293C14.899 32.152 14.901 32.0723 14.9201 31.9958C15.4872 30.7862 14.9202 29.5829 14.958 28.3921C15.1281 24.2025 17.1252 21.0084 20.9872 19.2947C22.3858 18.6647 22.9591 17.9969 22.8772 16.529C22.8394 16.0186 22.8331 15.8233 22.2472 15.8233C15.7455 15.8233 9.24792 15.8233 2.75458 15.8233C2.27577 15.8233 2.12457 15.9179 2.16867 16.4534C2.34507 18.2048 2.45218 19.9563 2.59079 21.7077C3.1536 28.9991 3.7143 36.2862 4.27291 43.5692C4.39892 45.1568 4.85253 45.5663 6.47796 45.5663C9.55243 45.5663 12.6269 45.5663 15.7014 45.5663C16.1241 45.6389 16.5584 45.5998 16.9614 45.4529C15.8225 44.3484 15.1144 42.8742 14.9642 41.2948C14.8125 40.3058 14.9686 39.294 15.4116 38.3968Z" fill="#FFCB18"/>
<path d="M16.5141 28.1212C16.4763 29.3812 16.596 29.482 17.8245 29.482H30.9162C35.3263 29.482 39.7364 29.482 44.1906 29.482C44.997 29.482 45.4506 29.2678 45.4191 28.3732C45.3372 23.9316 41.5067 19.9373 37.1155 19.868C32.9995 19.805 28.8876 19.805 24.7799 19.868C20.5021 19.9436 16.6338 23.8623 16.5141 28.1212ZM32.1762 23.8308C32.7433 23.8308 33.304 23.9001 33.3229 24.6183C33.3418 25.3365 32.7496 25.4751 32.2392 25.4751C31.6092 25.4751 31.0233 25.4121 30.9792 24.6813C30.9351 23.9505 31.5777 23.8308 32.1762 23.8308ZM27.3881 21.4367C27.974 21.4367 28.5411 21.5564 28.5222 22.2495C28.5033 22.9425 27.8921 23.0874 27.3125 23.0433C26.7329 22.9992 26.147 22.9299 26.1596 22.2431C26.1722 21.5564 26.7959 21.4556 27.3881 21.4556V21.4367ZM24.9185 24.6687C25.517 24.6687 26.1344 24.7065 26.1029 25.5003C26.0714 26.2942 25.5107 26.2879 24.9122 26.2438C24.2822 26.3131 23.7277 26.1556 23.7466 25.4184C23.7655 24.6813 24.3452 24.675 24.9185 24.6876V24.6687Z" fill="#62412B"/>
<path d="M44.0205 39.1086H17.8623C16.6905 39.1086 16.5204 39.2913 16.5204 40.4821C16.5204 43.4935 18.4545 45.5222 21.4849 45.56C27.8228 45.602 34.1629 45.602 40.505 45.56C43.4724 45.56 45.3876 43.5124 45.4506 40.5199C45.4506 39.3354 45.2364 39.1086 44.0205 39.1086Z" fill="#62412B"/>
<path d="M16.5582 36.3933C16.8669 37.2816 17.5851 37.5651 18.4923 37.5588C22.6315 37.5588 26.777 37.5588 30.9162 37.5588H43.2456C43.5276 37.5748 43.8104 37.5621 44.0898 37.521C44.4808 37.4519 44.8323 37.2405 45.0766 36.9276C45.3209 36.6146 45.4407 36.2223 45.4128 35.8262C45.3938 35.4315 45.226 35.0587 44.9431 34.7828C44.6602 34.507 44.2832 34.3485 43.8882 34.3394C42.0675 34.2008 40.3097 34.2323 39.0056 35.8073C38.9407 35.8762 38.8665 35.9356 38.7851 35.9837C37.5251 36.9603 36.706 37.0296 35.5594 35.9334C34.9595 35.3496 34.2413 34.9012 33.4534 34.6186C32.6654 34.3361 31.826 34.2258 30.9918 34.2953C26.7581 34.4213 22.5244 34.2953 18.2844 34.3394C16.9992 34.3394 16.1865 35.3033 16.5582 36.3933Z" fill="#62412B"/>
<path d="M23.3371 14.2293C24.1057 14.2293 24.5216 13.9899 24.5531 13.1772C24.5972 12.1062 24.3073 11.7849 23.1922 11.7849H1.77175C0.681822 11.7849 0.436114 12.0117 0.429814 12.9945C0.423514 13.9773 0.650336 14.2167 1.72766 14.2167H12.4379C16.0668 14.2167 19.702 14.2041 23.3371 14.2293Z" fill="#FFCB18"/>
<path d="M18.0387 32.6888C22.5244 32.6888 27.0101 32.7518 31.4958 32.6888C32.3047 32.6299 33.117 32.7357 33.8837 32.9999C34.6505 33.2642 35.3556 33.6813 35.9563 34.2261C37.1407 35.3097 37.2164 35.2908 38.426 34.2261C38.9761 33.6673 39.6456 33.2404 40.3843 32.9775C41.123 32.7145 41.9117 32.6223 42.6912 32.7078C43.2834 32.7771 43.8819 32.7078 44.4804 32.7078C45.0789 32.7078 45.3624 32.5124 45.3813 31.9769C45.4002 31.4414 45.0348 31.139 44.4867 31.1264H18.0261C17.745 31.1075 17.463 31.1075 17.1819 31.1264C17.087 31.1303 16.9938 31.1534 16.908 31.1942C16.8221 31.2351 16.7454 31.2928 16.6825 31.364C16.6195 31.4352 16.5716 31.5184 16.5416 31.6085C16.5116 31.6987 16.5001 31.794 16.5078 31.8887C16.499 32.0791 16.5643 32.2656 16.6899 32.4089C16.8156 32.5522 16.992 32.6413 17.1819 32.6573C17.4665 32.6871 17.7527 32.6976 18.0387 32.6888Z" fill="#62412B"/>
<path d="M20.2375 8.57188H4.71393C3.2334 8.57188 3.1704 8.62228 2.62858 10.1847H22.3165C21.7999 8.63488 21.718 8.57188 20.2375 8.57188Z" fill="#FFCB18"/>
<path d="M8.02781 2.21505C8.87833 2.42296 9.70365 2.71276 10.5479 2.92067C11.3921 3.12857 11.7512 3.47509 11.6504 4.35081C11.5748 4.98082 11.6504 5.67381 11.6504 6.32902C11.6189 6.85193 11.789 7.00944 12.3308 7.04094C13.0742 7.07874 13.4459 6.91497 13.3325 6.08965C13.301 5.61977 13.301 5.14827 13.3325 4.67839C13.3325 4.04838 13.3325 3.48139 13.3325 2.88917C13.3609 2.65229 13.3016 2.41321 13.1658 2.21705C13.03 2.0209 12.8271 1.88124 12.5954 1.82445C11.222 1.42124 9.83595 1.04323 8.45622 0.646324C7.8262 0.45732 7.76949 0.904615 7.61829 1.33932C7.46708 1.77403 7.4797 2.08275 8.02781 2.21505Z" fill="#FFCB18"/>
</svg>
