<svg width="65" height="70" viewBox="0 0 65 70" fill="none" xmlns="http://www.w3.org/2000/svg">
<rect x="0.5" y="0.5" width="64" height="69" rx="10.5" stroke="#62412B"/>
<path d="M16.9672 32.9265V19.0164H41.4164L41.9784 22.7068L40.5733 33.7781L16.9672 32.9265Z" fill="#FBCA20"/>
<path d="M43.0747 26.3826C44.9984 26.1479 46.7687 25.2045 48.0465 23.7331C49.3243 22.2617 50.0198 20.3657 49.9996 18.4085C49.9794 16.4513 49.245 14.5704 47.9371 13.1262C46.6292 11.682 44.8398 10.776 42.9117 10.5819C39.2808 10.0141 35.4814 12.4555 34.3741 16.1573C34.2055 16.725 33.9976 16.9067 33.4186 16.901C30.2037 16.8708 26.9869 16.8708 23.7682 16.901C23.6568 16.9206 23.5426 16.9177 23.4322 16.8926C23.3218 16.8675 23.2174 16.8207 23.125 16.7547C23.0326 16.6888 22.954 16.6051 22.8936 16.5084C22.8333 16.4118 22.7924 16.304 22.7734 16.1913C22.335 14.7379 21.8573 13.2958 21.3683 11.8593C21.0029 10.7806 20.1599 10.298 19.2774 10.6103C18.395 10.9225 18.0241 11.7855 18.3725 12.8813C18.6873 13.8749 18.9852 14.8798 19.3617 15.8507C19.6596 16.6285 19.6428 17.0259 18.6479 16.901C18.0198 16.8416 17.3876 16.8416 16.7594 16.901C15.4611 16.9805 14.8597 17.8095 15.1351 19.1039C15.1969 19.3821 15.2475 19.6717 15.3206 19.9385C16.329 23.6615 16.3697 27.5843 15.4386 31.3278C14.2021 36.4376 15.6129 40.9797 19.255 44.7212C21.286 46.8522 23.9731 48.2234 26.8764 48.6104C27.4384 48.6842 27.7419 48.8375 27.7194 49.5358C27.6632 51.54 27.6745 53.5499 27.7194 55.5541C27.7194 56.1673 27.5396 56.2978 26.9775 56.2808C25.7804 56.2354 24.5776 56.2808 23.3804 56.2808C22.0933 56.2808 21.3851 56.8883 21.402 57.933C21.4189 58.9777 22.0989 59.5 23.3523 59.5H35.2509C36.4762 59.5 37.1619 58.9322 37.1563 57.8876C37.1507 56.8429 36.4256 56.2922 35.2172 56.2808C34.0088 56.2695 32.7554 56.2808 31.5301 56.2808C30.9681 56.2808 30.8501 56.1048 30.8557 55.5825C30.8838 53.5726 30.895 51.5627 30.8557 49.5585C30.8557 48.9226 31.0355 48.6955 31.665 48.5934C33.5705 48.2706 35.3904 47.5576 37.013 46.4982C38.6356 45.4388 40.0266 44.0554 41.1005 42.433C42.1744 40.8106 42.9085 38.9835 43.2576 37.064C43.6068 35.1444 43.5637 33.1731 43.1309 31.271C42.7992 29.9125 42.5681 28.5309 42.4396 27.1377C42.4002 26.6267 42.5295 26.4564 43.0747 26.3826ZM23.712 30.4932C21.9753 30.8111 20.3397 31.5606 18.4568 32.0943C19.6207 28.2141 19.6733 24.0804 18.6086 20.1713C18.6929 20.1295 18.7815 20.0971 18.8728 20.0748C20.705 20.001 20.705 20.001 21.2896 21.7781C22.1776 24.4522 23.0544 27.1264 23.9425 29.7948C24.0661 30.1469 24.2291 30.4194 23.712 30.4932ZM39.8035 20.6993C39.1009 23.6151 39.028 26.6494 39.59 29.5961C39.6405 29.8914 39.6462 30.1241 39.2583 30.2547C37.6565 30.7941 36.0771 31.4357 34.4641 31.958C33.019 32.3536 31.4815 32.2126 30.1306 31.5606C29.7806 31.3465 29.4021 31.184 29.0065 31.078C27.6857 30.9304 27.2923 30.0219 26.9494 28.9035C26.0614 26.0022 25.0778 23.1294 24.0942 20.1259C29.237 20.1259 34.2786 20.1259 39.3258 20.1259C39.8429 20.0862 39.8991 20.2735 39.8035 20.6993Z" fill="#62412B"/>
</svg>
