<svg width="65" height="70" viewBox="0 0 65 70" fill="none" xmlns="http://www.w3.org/2000/svg">
<rect x="0.5" y="0.5" width="64" height="69" rx="10.5" stroke="#62412B"/>
<path d="M38.1827 34.0345C37.9001 33.5436 37.7195 33.5714 37.3582 33.9604C35.8159 35.5398 34.2458 37.1007 32.671 38.6476C32.3698 38.9259 32.186 39.3085 32.1569 39.7175C32.0156 40.6803 31.5211 41.5561 30.7697 42.1744C30.0182 42.7927 29.0636 43.1092 28.0916 43.0624C27.1196 43.0156 26.1998 42.6088 25.5113 41.9212C24.8227 41.2335 24.4147 40.3143 24.3665 39.3424C24.314 38.3462 24.6525 37.3689 25.3101 36.6188C25.9676 35.8687 26.8921 35.4051 27.8866 35.3267C28.1947 35.316 28.4868 35.1866 28.7017 34.9655C30.3274 33.3213 31.9439 31.677 33.6113 30.0606C33.9679 29.7086 33.8799 29.5604 33.5094 29.3288C32.6085 28.7644 31.6235 28.3469 30.5914 28.0922C28.8175 27.6522 27.3169 28.0042 26.1034 29.4353C25.5311 30.0379 25.0391 30.712 24.6398 31.4408C23.4773 33.8817 21.4672 34.9423 18.8781 35.3592C14.0102 36.1373 10.921 40.3937 13.3433 45.2014C15.5202 49.5134 18.7854 52.8296 23.3939 54.6035C24.6689 55.0778 26.0647 55.1184 27.3651 54.719C28.6655 54.3196 29.7979 53.5025 30.5868 52.3943C31.4893 51.0593 32.0841 49.5407 32.3283 47.9479C32.7451 45.6969 33.7178 43.8582 35.9688 42.8809C36.8494 42.4311 37.648 41.8361 38.3309 41.1209C38.7303 40.7739 39.0476 40.3425 39.2598 39.8579C39.4721 39.3733 39.574 38.8476 39.5583 38.3188C39.4948 36.7927 39.0195 35.3123 38.1827 34.0345ZM24.4129 48.5454C24.0331 48.9206 23.7089 48.6704 23.4124 48.374C21.9674 46.9197 20.5192 45.4669 19.068 44.0157C18.8596 43.8072 18.665 43.5942 18.7901 43.27C18.8401 43.161 18.9177 43.067 19.0152 42.9971C19.1126 42.9273 19.2266 42.884 19.3459 42.8717C19.5724 42.9024 19.7808 43.0123 19.9341 43.182L24.2785 47.545C24.5935 47.8506 24.7834 48.1888 24.4129 48.5454Z" fill="#62412B"/>
<path d="M44.8846 21.5291C44.5002 21.0428 44.2408 21.066 43.8101 21.5291C39.3699 26.0064 34.9112 30.4697 30.434 34.9192C30.1875 35.1281 29.9258 35.3185 29.6512 35.4888C30.6677 35.9167 31.4918 36.7029 31.967 37.6981C36.3115 33.3398 40.6004 29.0416 44.8892 24.7296C45.3987 24.2201 46.2787 23.7106 46.2787 23.1595C46.3297 22.5296 45.3431 22.1081 44.8846 21.5291Z" fill="#FBCA20"/>
<path d="M52.0775 19.7784C52.7445 18.514 52.638 17.8841 51.6422 16.8883C51.1466 16.3927 50.6556 15.8925 50.1554 15.4015C49.7247 14.98 48.3028 14.8457 47.872 15.2579C47.5756 15.5312 47.4089 15.4895 47.2004 15.2301C47.1687 15.18 47.1263 15.1375 47.0763 15.1056C47.0263 15.0738 46.9698 15.0533 46.911 15.0458C46.8521 15.0383 46.7923 15.0439 46.7359 15.0621C46.6795 15.0804 46.6277 15.1108 46.5844 15.1514C46.5366 15.1862 46.4977 15.2318 46.4708 15.2846C46.444 15.3373 46.43 15.3956 46.43 15.4548C46.43 15.5139 46.444 15.5723 46.4708 15.625C46.4977 15.6777 46.5366 15.7233 46.5844 15.7581C46.9364 16.0499 46.9086 16.2722 46.5844 16.5548C46.2602 16.8373 46.0703 17.1847 45.6581 16.6706C45.6238 16.6305 45.5811 16.5983 45.5332 16.5762C45.4852 16.5541 45.433 16.5427 45.3802 16.5427C45.3274 16.5427 45.2752 16.5541 45.2273 16.5762C45.1793 16.5983 45.1367 16.6305 45.1023 16.6706C45.0568 16.7079 45.02 16.7549 44.9948 16.8082C44.9696 16.8615 44.9566 16.9197 44.9566 16.9786C44.9566 17.0375 44.9696 17.0957 44.9948 17.1489C45.02 17.2022 45.0568 17.2492 45.1023 17.2866C45.2088 17.3977 45.3107 17.5182 45.4126 17.6293C45.2922 17.9165 44.9495 18.0323 44.9495 18.4121C44.9495 19.2921 44.8754 20.1443 45.76 20.7557C46.2625 21.1659 46.7275 21.62 47.1495 22.1127C47.659 22.6222 49.0021 22.7658 49.544 22.3119C49.8127 22.0896 49.9516 22.0849 50.16 22.3397C50.3685 22.5944 50.5954 22.6685 50.827 22.4091C50.872 22.3611 50.9056 22.3036 50.9252 22.2407C50.9448 22.1779 50.9499 22.1114 50.9401 22.0463C50.9303 21.9812 50.9058 21.9192 50.8686 21.8649C50.8313 21.8107 50.7823 21.7655 50.7251 21.7329C50.3129 21.3902 50.6695 21.2096 50.8733 21.0058C51.0771 20.802 51.2809 20.399 51.6514 20.8483C51.6865 20.9042 51.7342 20.951 51.7907 20.9851C51.8472 21.0191 51.9109 21.0395 51.9767 21.0444C52.0425 21.0494 52.1085 21.0388 52.1694 21.0136C52.2304 20.9884 52.2846 20.9492 52.3276 20.8992C52.587 20.6399 52.3832 20.4361 52.2165 20.2323C52.11 20.098 51.9432 20.0331 52.0775 19.7784Z" fill="#FBCA20"/>
<path d="M25.6263 39.0274C25.5956 39.5621 25.7246 40.0938 25.9969 40.5549C26.2691 41.0161 26.6723 41.3859 27.1553 41.6173C27.6382 41.8488 28.1791 41.9313 28.7091 41.8546C29.2391 41.7779 29.7343 41.5452 30.1318 41.1863C30.5292 40.8274 30.811 40.3585 30.9413 39.839C31.0715 39.3196 31.0444 38.7731 30.8633 38.2691C30.6822 37.7652 30.3553 37.3264 29.9243 37.0087C29.4932 36.6909 28.9774 36.5085 28.4424 36.4847C27.7354 36.4626 27.0473 36.715 26.5223 37.189C25.9974 37.663 25.6763 38.3219 25.6263 39.0274Z" fill="#FBCA20"/>
</svg>
