<svg width="27" height="26" viewBox="0 0 27 26" fill="none" xmlns="http://www.w3.org/2000/svg">
<path d="M17.3273 12.3722C17.1436 12.0529 17.0262 12.071 16.7914 12.324C15.7889 13.351 14.7683 14.366 13.7447 15.3719C13.5489 15.5529 13.4294 15.8017 13.4106 16.0677C13.3187 16.6938 12.9973 17.2633 12.5088 17.6653C12.0204 18.0674 11.3999 18.2732 10.7681 18.2428C10.1363 18.2123 9.53844 17.9478 9.09088 17.5007C8.64332 17.0535 8.37808 16.4557 8.3468 15.8237C8.31262 15.176 8.53268 14.5404 8.96008 14.0527C9.38749 13.5649 9.98843 13.2634 10.6348 13.2125C10.8351 13.2055 11.025 13.1213 11.1647 12.9775C12.2214 11.9083 13.2721 10.8391 14.3559 9.788C14.5877 9.5591 14.5305 9.46272 14.2896 9.31213C13.7041 8.9451 13.0638 8.67365 12.393 8.50797C11.2399 8.22184 10.2645 8.45074 9.47576 9.3814C9.10375 9.77324 8.78398 10.2116 8.52442 10.6855C7.76877 12.2728 6.46219 12.9625 4.7793 13.2335C1.6152 13.7395 -0.392835 16.5074 1.18168 19.6337C2.59664 22.4377 4.71909 24.5942 7.71459 25.7477C8.54333 26.0561 9.45061 26.0825 10.2959 25.8228C11.1411 25.5631 11.8772 25.0317 12.39 24.3111C12.9766 23.443 13.3632 22.4554 13.5219 21.4197C13.7929 19.956 14.4251 18.7603 15.8882 18.1248C16.4607 17.8323 16.9797 17.4454 17.4236 16.9803C17.6832 16.7546 17.8895 16.4741 18.0274 16.159C18.1654 15.8438 18.2317 15.502 18.2214 15.1581C18.1802 14.1657 17.8712 13.2031 17.3273 12.3722ZM8.37691 21.8082C8.13004 22.0522 7.9193 21.8896 7.72663 21.6968C6.78733 20.7511 5.84604 19.8064 4.90273 18.8627C4.76725 18.7271 4.64081 18.5886 4.7221 18.3777C4.75463 18.3069 4.80506 18.2458 4.86841 18.2003C4.93176 18.1549 5.00584 18.1268 5.08336 18.1187C5.23063 18.1387 5.36608 18.2102 5.4657 18.3205L8.2896 21.1577C8.49432 21.3565 8.61775 21.5763 8.37691 21.8082Z" fill="#62412B"/>
<path d="M21.6835 4.24019C21.4337 3.92395 21.2651 3.93901 20.9851 4.24019C18.099 7.15163 15.2008 10.054 12.2906 12.9474C12.1304 13.0833 11.9603 13.2071 11.7818 13.3179C12.4426 13.5961 12.9782 14.1073 13.2871 14.7545C16.111 11.9204 18.8988 9.12539 21.6866 6.32137C22.0177 5.99007 22.5897 5.65877 22.5897 5.30036C22.6228 4.89075 21.9816 4.61667 21.6835 4.24019Z" fill="#FFCE23"/>
<path d="M26.3589 3.10172C26.7925 2.27949 26.7232 1.86988 26.076 1.22233C25.7538 0.900065 25.4347 0.57479 25.1096 0.255535C24.8296 -0.0185419 23.9053 -0.105884 23.6254 0.162169C23.4327 0.339867 23.3243 0.312757 23.1888 0.144094C23.1682 0.11149 23.1407 0.0838423 23.1081 0.0631225C23.0756 0.0424027 23.0389 0.0291247 23.0007 0.0242337C22.9624 0.0193427 22.9236 0.0229624 22.8869 0.0348314C22.8502 0.0467004 22.8166 0.0665242 22.7884 0.0928934C22.7573 0.115527 22.732 0.1452 22.7146 0.179486C22.6971 0.213771 22.688 0.251695 22.688 0.290168C22.688 0.328641 22.6971 0.36657 22.7146 0.400856C22.732 0.435141 22.7573 0.464809 22.7884 0.487443C23.0172 0.677189 22.9992 0.821757 22.7884 1.00548C22.5777 1.1892 22.4543 1.41509 22.1863 1.08078C22.164 1.0547 22.1363 1.03376 22.1051 1.01941C22.0739 1.00505 22.04 0.997621 22.0057 0.997621C21.9714 0.997621 21.9374 1.00505 21.9063 1.01941C21.8751 1.03376 21.8474 1.0547 21.8251 1.08078C21.7954 1.10507 21.7716 1.13564 21.7552 1.17027C21.7388 1.20491 21.7303 1.24275 21.7303 1.28106C21.7303 1.31938 21.7388 1.35722 21.7552 1.39185C21.7716 1.42649 21.7954 1.45705 21.8251 1.48135C21.8943 1.55363 21.9605 1.63194 22.0268 1.70423C21.9485 1.89096 21.7257 1.96626 21.7257 2.21323C21.7257 2.78548 21.6775 3.33965 22.2525 3.73722C22.5792 4.00398 22.8814 4.2993 23.1557 4.61968C23.4869 4.95098 24.3599 5.04435 24.7122 4.74919C24.8868 4.60463 24.9771 4.60161 25.1126 4.76726C25.248 4.93291 25.3956 4.9811 25.5461 4.81244C25.5754 4.78123 25.5972 4.74378 25.6099 4.70292C25.6227 4.66205 25.626 4.61883 25.6196 4.57651C25.6132 4.53418 25.5973 4.49385 25.5731 4.45855C25.5489 4.42325 25.517 4.39391 25.4799 4.37271C25.2119 4.14984 25.4437 4.03237 25.5762 3.89985C25.7087 3.76733 25.8411 3.5053 26.082 3.79745C26.1048 3.83378 26.1358 3.86424 26.1725 3.88639C26.2092 3.90854 26.2506 3.92176 26.2934 3.92498C26.3361 3.92821 26.3791 3.92134 26.4187 3.90495C26.4583 3.88855 26.4935 3.86308 26.5215 3.83058C26.6901 3.66192 26.5576 3.5294 26.4493 3.39688C26.38 3.30953 26.2716 3.26737 26.3589 3.10172Z" fill="#FFCE23"/>
<path d="M9.16567 15.6189C9.14571 15.9666 9.22954 16.3124 9.4065 16.6122C9.58346 16.9121 9.84556 17.1526 10.1595 17.3031C10.4734 17.4536 10.8249 17.5073 11.1694 17.4574C11.514 17.4075 11.8358 17.2562 12.0942 17.0228C12.3526 16.7894 12.5357 16.4845 12.6204 16.1467C12.705 15.8089 12.6874 15.4536 12.5697 15.1258C12.452 14.7981 12.2395 14.5128 11.9593 14.3062C11.6791 14.0995 11.3438 13.9809 10.9961 13.9654C10.5365 13.951 10.0893 14.1152 9.74806 14.4234C9.40683 14.7317 9.19811 15.1601 9.16567 15.6189Z" fill="#FFCE23"/>
</svg>
