<svg width="66" height="70" viewBox="0 0 66 70" fill="none" xmlns="http://www.w3.org/2000/svg">
<rect x="1.25" y="0.5" width="64" height="69" rx="10.5" stroke="#62412B"/>
<path d="M53.0572 46.922C52.8306 46.3486 52.3902 45.8857 51.8288 45.6307C51.2675 45.3758 50.6291 45.3487 50.0483 45.5553C49.5185 45.7089 49.455 45.5553 49.296 45.1685C48.1765 42.587 47.0499 40.0124 45.9163 37.445C45.8346 37.3215 45.7813 37.1814 45.7602 37.0349C45.7391 36.8883 45.7508 36.7389 45.7945 36.5974C46.5831 34.731 46.7321 32.6561 46.2183 30.6961C47.3042 31.5649 47.3572 32.582 47.4949 33.562C47.5419 34.1305 47.8035 34.6599 48.2266 35.0426C48.6496 35.4253 49.2024 35.6327 49.7728 35.6227C50.3413 35.5877 50.8766 35.3429 51.2749 34.9357C51.6733 34.5286 51.9063 33.9881 51.9288 33.419C52.0984 30.4206 49.6404 27.364 46.6314 26.9614C44.6343 26.6913 42.5736 27.025 40.6189 26.2569C39.9673 25.9973 39.6389 26.2887 39.6707 27.0886C39.7342 28.503 39.8402 29.9439 39.1409 31.2841C38.3781 32.7886 37.2869 33.8639 35.5175 33.8851C33.7482 33.9063 32.5722 32.8256 31.8094 31.2841C31.6555 30.9417 31.5297 30.5874 31.4333 30.2246C31.126 29.1651 31.269 28.1057 31.2743 27.0462C31.2743 26.4688 31.2055 26.1562 30.5274 26.2516C29.7487 26.3575 29.3938 25.9443 29.2984 25.1921C29.2344 24.5719 29.1084 23.9596 28.9223 23.3645C28.2124 21.2456 27.6032 19.0365 25.7121 17.5374C23.3547 15.6886 20.5842 15.1748 17.6971 15.09C17.5538 15.0622 17.4054 15.0787 17.2715 15.1372C17.1377 15.1956 17.0249 15.2934 16.9479 15.4175C16.8709 15.5416 16.8335 15.6861 16.8405 15.832C16.8475 15.9779 16.8987 16.1181 16.9873 16.2342C17.8825 17.9135 17.4429 19.312 16.3145 20.647C16.1731 20.8378 16.0474 21.0398 15.9384 21.2509C15.218 22.411 14.4551 23.5446 13.8194 24.7365C13.2777 25.6731 13.1147 26.7815 13.3639 27.8344C13.6131 28.8873 14.2556 29.805 15.1597 30.3994C16.9608 31.6814 19.085 31.4165 20.6902 29.7108C21.0164 29.3961 21.3192 29.0579 21.596 28.699C21.9615 28.1692 22.3217 28.3176 22.6979 28.6407C23.0572 28.9549 23.3169 29.3674 23.4448 29.8273C23.7982 30.9097 23.7588 32.082 23.3335 33.1382C21.7443 37.09 20.1869 41.0525 18.6454 45.0202C18.4017 45.6347 18.2428 45.8837 17.4958 45.55C17.2071 45.3918 16.8886 45.2958 16.5606 45.2679C16.2326 45.2401 15.9024 45.2811 15.5911 45.3883C15.2799 45.4956 14.9945 45.6667 14.7533 45.8906C14.5121 46.1146 14.3203 46.3865 14.1903 46.6889C14.045 47.0064 13.9649 47.3499 13.9547 47.6989C13.9445 48.0479 14.0044 48.3954 14.1308 48.7209C14.2573 49.0463 14.4477 49.3432 14.6908 49.5938C14.934 49.8444 15.2249 50.0437 15.5464 50.1799C17.5609 51.18 19.6404 52.0437 21.7708 52.765C32.1643 56.2931 42.1869 55.5408 51.8123 50.1746C52.3965 49.8946 52.8511 49.4013 53.0827 48.7963C53.3143 48.1913 53.3051 47.5205 53.0572 46.922ZM20.2134 23.8784C20.0573 23.8705 19.9045 23.8311 19.7641 23.7624C19.6237 23.6937 19.4987 23.5973 19.3967 23.4789C19.2947 23.3606 19.2177 23.2227 19.1705 23.0738C19.1233 22.9248 19.1069 22.7678 19.1221 22.6123C19.1163 22.4625 19.1412 22.3131 19.1954 22.1733C19.2495 22.0336 19.3318 21.9064 19.437 21.7996C19.5423 21.6929 19.6683 21.6089 19.8073 21.5528C19.9463 21.4966 20.0953 21.4696 20.2452 21.4733C20.4021 21.4732 20.5574 21.5048 20.7017 21.5664C20.846 21.628 20.9764 21.7182 21.0848 21.8316C21.1933 21.9451 21.2776 22.0793 21.3327 22.2262C21.3878 22.3731 21.4125 22.5297 21.4053 22.6864C21.4027 22.9972 21.2799 23.2949 21.0626 23.5171C20.8454 23.7393 20.5505 23.8688 20.2399 23.8784H20.2134ZM45.1111 47.6265C40.6842 49.1679 35.9819 49.7582 31.3114 49.3588C28.508 49.1144 25.7421 48.5473 23.0687 47.6689L22.2688 47.3882C23.5243 45.0626 24.7691 42.7741 25.9769 40.5016C26.0335 40.3842 26.1265 40.2884 26.242 40.2282C26.3575 40.1681 26.4894 40.1469 26.6179 40.1678C31.428 40.1678 36.238 40.1678 41.048 40.1678C41.205 40.1532 41.3625 40.1889 41.4978 40.2699C41.633 40.3509 41.739 40.4728 41.8002 40.6181C42.9763 42.737 44.1611 44.856 45.3548 46.975C45.5932 47.3193 45.5773 47.4782 45.1429 47.6265H45.1111Z" fill="#62412B"/>
<path d="M33.1655 30.8179C33.6687 31.782 34.3733 32.5184 35.5652 32.4919C36.7571 32.4654 37.3716 31.7185 37.859 30.7861C38.0157 30.5021 38.1249 30.1943 38.1821 29.875C38.3295 28.7029 38.3526 27.5186 38.251 26.3416C37.3504 26.1138 36.434 26.294 35.5281 26.2357C34.76 26.2357 33.9866 26.2357 33.2185 26.2357C33.0013 26.2357 32.6887 26.1403 32.6887 26.5323C32.7841 27.952 32.4503 29.4353 33.1655 30.8179Z" fill="#FBCA20"/>
</svg>
