<svg width="44" height="46" viewBox="0 0 44 46" fill="none" xmlns="http://www.w3.org/2000/svg">
<path d="M43.3506 24.4496C43.2314 23.4977 42.8216 22.6058 42.177 21.8954C41.5325 21.1849 40.6845 20.6906 39.7487 20.4796C38.8855 20.3025 38.0035 20.2336 37.1233 20.2744H5.92996C4.73403 20.2744 4.24574 20.7415 4.25989 21.9303C4.25989 23.6216 4.36605 25.3129 4.45097 27.0042C4.52898 29.5114 5.16911 31.9691 6.32411 34.1958C7.47911 36.4226 9.11949 38.3614 11.1241 39.8693C11.521 40.2026 12.0212 40.3877 12.5394 40.393C18.0025 40.393 23.468 40.393 28.9358 40.393C29.4296 40.4147 29.9123 40.2419 30.2803 39.9118C32.2488 38.3032 33.9495 36.3924 35.3188 34.2505C35.3977 34.0815 35.521 33.9369 35.6755 33.8323C35.83 33.7276 36.0099 33.6667 36.1963 33.6561C41.1427 33.1466 44.0371 29.3819 43.3506 24.4496ZM36.7624 30.8184C37.2027 28.4248 37.3807 25.9902 37.2931 23.5579C37.2931 23.3456 37.2931 23.1475 37.5266 23.0343C38.5244 22.5743 40.3573 23.3527 40.5625 24.4496C41.1215 27.0891 40.3926 29.9056 36.7624 30.8043V30.8184Z" fill="#FFCB18"/>
<path d="M39.8477 43.1246C33.4789 43.0892 27.1666 43.1246 20.8331 43.1246H17.6628C12.2705 43.1246 6.87822 43.1246 1.49298 43.1246C0.898553 43.1246 0.523485 43.1246 0.551791 43.9313C0.608403 45.4528 0.905622 45.7924 2.54738 45.7924H38.9986C39.3151 45.8092 39.6324 45.7974 39.9468 45.7571C40.796 45.6084 41.1357 44.8866 41.0366 43.6341C40.9658 42.6434 40.244 43.1246 39.8477 43.1246Z" fill="#FFCB18"/>
<path d="M16.0706 17.097C15.9008 17.3447 15.639 17.6702 15.9786 17.9321C16.1311 18.022 16.3086 18.0603 16.4846 18.0412C16.6605 18.0221 16.8256 17.9465 16.9552 17.8259C18.7102 16.6512 20.0901 13.3819 19.7433 11.3155C19.4343 9.87206 18.8532 8.50071 18.0308 7.27482C16.3891 4.53621 16.4528 4.0267 18.6323 1.74806C18.7096 1.67776 18.7763 1.59674 18.8305 1.50746C19.0994 1.05456 18.8871 0.87057 18.2007 0.799805C18.1228 0.799805 17.8751 0.955483 17.6487 1.10409C16.4386 1.85072 15.5658 3.03813 15.2144 4.4159C14.719 6.23456 15.3276 7.82678 16.1768 9.36946C17.6487 11.9878 17.7902 14.5353 16.0706 17.097Z" fill="#62412B"/>
<path d="M23.968 16.9414C23.7699 17.2174 23.2604 17.5358 23.6496 17.9109C24.0388 18.286 24.52 18.0454 24.895 17.7482C25.5027 17.2962 25.9972 16.7095 26.3398 16.0342C26.6824 15.3589 26.8636 14.6133 26.8694 13.8561C26.926 12.1789 26.0273 10.8627 25.2489 9.48984C24.4704 8.11699 24.5412 7.36688 25.7867 6.29832C26.0627 6.05772 26.3811 5.83835 26.1476 5.43498C25.9141 5.03162 25.4399 5.18025 25.1286 5.36424C24.541 5.68686 24.043 6.15085 23.6798 6.71426C23.3165 7.27767 23.0994 7.92274 23.0481 8.59113C23.0309 9.75279 23.3478 10.8949 23.961 11.8817C24.8101 13.5376 25.1569 15.2218 23.968 16.9414Z" fill="#62412B"/>
</svg>
