<svg width="25" height="25" viewBox="0 0 25 25" fill="none" xmlns="http://www.w3.org/2000/svg">
<circle cx="12.5" cy="12.5" r="12.5" fill="#FFCE23"/>
<path d="M10.8973 19.2307H14.7435C17.9486 19.2307 19.2307 17.9486 19.2307 14.7435V10.8973C19.2307 7.69221 17.9486 6.41016 14.7435 6.41016H10.8973C7.69221 6.41016 6.41016 7.69221 6.41016 10.8973V14.7435C6.41016 17.9486 7.69221 19.2307 10.8973 19.2307Z" stroke="#271910" stroke-width="1.5" stroke-linecap="round" stroke-linejoin="round"/>
<path d="M12.8205 15.0641C14.0596 15.0641 15.0641 14.0596 15.0641 12.8205C15.0641 11.5814 14.0596 10.5769 12.8205 10.5769C11.5814 10.5769 10.5769 11.5814 10.5769 12.8205C10.5769 14.0596 11.5814 15.0641 12.8205 15.0641Z" stroke="#271910" stroke-width="1.5" stroke-linecap="round" stroke-linejoin="round"/>
<path d="M16.4334 9.61543H16.4408" stroke="#271910" stroke-width="2" stroke-linecap="round" stroke-linejoin="round"/>
</svg>
