<svg width="21" height="21" viewBox="0 0 21 21" fill="none" xmlns="http://www.w3.org/2000/svg">
<path d="M20.5189 6.19825C20.5078 5.3165 20.3507 4.44352 20.0549 3.61836C19.7984 2.92234 19.4066 2.29023 18.9046 1.76242C18.4025 1.2346 17.8013 0.822689 17.1392 0.552999C16.3644 0.247228 15.5459 0.081892 14.7185 0.0640316C13.6532 0.0139706 13.3155 0 10.6113 0C7.90707 0 7.56046 7.48297e-08 6.50292 0.0640316C5.67589 0.0820233 4.85775 0.247357 4.08331 0.552999C3.42117 0.822501 2.81983 1.23435 2.31776 1.76218C1.81569 2.29002 1.42395 2.92223 1.1676 3.61836C0.876177 4.4323 0.719254 5.29262 0.703614 6.16216C0.655997 7.28329 0.641602 7.63838 0.641602 10.4814C0.641602 13.3244 0.641602 13.6876 0.703614 14.8006C0.720225 15.6714 0.876364 16.5306 1.1676 17.3467C1.42438 18.0426 1.81641 18.6746 2.31865 19.2022C2.82088 19.7298 3.42228 20.1415 4.08442 20.4109C4.85674 20.729 5.67502 20.9061 6.50403 20.9348C7.57043 20.9849 7.90818 21 10.6124 21C13.3166 21 13.6632 21 14.7207 20.9348C15.5481 20.9177 16.3667 20.7527 17.1414 20.447C17.8033 20.177 18.4044 19.765 18.9064 19.2372C19.4084 18.7094 19.8003 18.0775 20.0571 17.3816C20.3484 16.5667 20.5045 15.7075 20.5211 14.8355C20.5688 13.7155 20.5831 13.3605 20.5831 10.5163C20.5809 7.6733 20.5809 7.3124 20.5189 6.19825ZM10.6046 15.8577C7.7764 15.8577 5.48525 13.4489 5.48525 10.4756C5.48525 7.50216 7.7764 5.09341 10.6046 5.09341C11.9624 5.09341 13.2645 5.66046 14.2246 6.66981C15.1846 7.67915 15.724 9.04812 15.724 10.4756C15.724 11.903 15.1846 13.272 14.2246 14.2813C13.2645 15.2906 11.9624 15.8577 10.6046 15.8577ZM15.9278 6.14935C15.771 6.1495 15.6157 6.11715 15.4708 6.05413C15.3259 5.99112 15.1942 5.89868 15.0833 5.78211C14.9725 5.66554 14.8845 5.52713 14.8246 5.37479C14.7646 5.22246 14.7339 5.05919 14.734 4.89433C14.734 4.7296 14.7649 4.56648 14.8248 4.41428C14.8848 4.26209 14.9727 4.1238 15.0835 4.00732C15.1943 3.89083 15.3258 3.79843 15.4706 3.73539C15.6154 3.67235 15.7705 3.6399 15.9272 3.6399C16.0839 3.6399 16.2391 3.67235 16.3838 3.73539C16.5286 3.79843 16.6601 3.89083 16.7709 4.00732C16.8817 4.1238 16.9696 4.26209 17.0296 4.41428C17.0895 4.56648 17.1204 4.7296 17.1204 4.89433C17.1204 5.5882 16.5866 6.14935 15.9278 6.14935Z" fill="#1D1D1B"/>
<path d="M10.6046 13.9717C12.4412 13.9717 13.9301 12.4064 13.9301 10.4756C13.9301 8.5447 12.4412 6.97943 10.6046 6.97943C8.76804 6.97943 7.27919 8.5447 7.27919 10.4756C7.27919 12.4064 8.76804 13.9717 10.6046 13.9717Z" fill="#1D1D1B"/>
</svg>
