<svg width="33" height="32" viewBox="0 0 33 32" fill="none" xmlns="http://www.w3.org/2000/svg">
<circle cx="16.5555" cy="16" r="16" fill="#62412B"/>
<path d="M25.3871 12.1761C25.3772 11.3923 25.2372 10.6163 24.9735 9.88283C24.7448 9.26414 24.3955 8.70226 23.948 8.2331C23.5004 7.76393 22.9644 7.39778 22.3742 7.15806C21.6834 6.88626 20.9537 6.7393 20.2161 6.72342C19.2664 6.67892 18.9653 6.6665 16.5545 6.6665C14.1437 6.6665 13.8347 6.6665 12.892 6.72342C12.1547 6.73941 11.4253 6.88638 10.7349 7.15806C10.1446 7.39762 9.6085 7.7637 9.16091 8.23289C8.71332 8.70208 8.36408 9.26404 8.13555 9.88283C7.87575 10.6063 7.73585 11.3711 7.72191 12.144C7.67946 13.1405 7.66663 13.4562 7.66663 15.9833C7.66663 18.5104 7.66663 18.8333 7.72191 19.8226C7.73672 20.5967 7.87592 21.3604 8.13555 22.0858C8.36447 22.7044 8.71396 23.2661 9.1617 23.7351C9.60944 24.2041 10.1456 24.57 10.7359 24.8095C11.4244 25.0923 12.1539 25.2497 12.8929 25.2752C13.8436 25.3197 14.1447 25.3332 16.5555 25.3332C18.9663 25.3332 19.2753 25.3332 20.2181 25.2752C20.9557 25.26 21.6854 25.1134 22.3761 24.8416C22.9662 24.6016 23.5021 24.2354 23.9496 23.7662C24.3971 23.2971 24.7465 22.7354 24.9755 22.1168C25.2351 21.3925 25.3743 20.6287 25.3891 19.8536C25.4316 18.8581 25.4444 18.5425 25.4444 16.0143C25.4424 13.4872 25.4424 13.1664 25.3871 12.1761ZM16.5486 20.7622C14.0273 20.7622 11.9847 18.6211 11.9847 15.9781C11.9847 13.3351 14.0273 11.194 16.5486 11.194C17.759 11.194 18.9199 11.698 19.7758 12.5952C20.6317 13.4924 21.1125 14.7093 21.1125 15.9781C21.1125 17.2469 20.6317 18.4638 19.7758 19.361C18.9199 20.2582 17.759 20.7622 16.5486 20.7622ZM21.2942 12.1326C21.1544 12.1327 21.0159 12.104 20.8867 12.048C20.7576 11.9919 20.6402 11.9098 20.5413 11.8062C20.4425 11.7025 20.3641 11.5795 20.3107 11.4441C20.2572 11.3087 20.2298 11.1636 20.2299 11.017C20.2299 10.8706 20.2574 10.7256 20.3109 10.5903C20.3644 10.455 20.4427 10.3321 20.5415 10.2286C20.6403 10.125 20.7575 10.0429 20.8866 9.98685C21.0156 9.93081 21.154 9.90197 21.2937 9.90197C21.4333 9.90197 21.5717 9.93081 21.7007 9.98685C21.8298 10.0429 21.947 10.125 22.0458 10.2286C22.1446 10.3321 22.223 10.455 22.2764 10.5903C22.3299 10.7256 22.3574 10.8706 22.3574 11.017C22.3574 11.6338 21.8815 12.1326 21.2942 12.1326Z" fill="white"/>
<path d="M16.5486 19.0858C18.1859 19.0858 19.5132 17.6944 19.5132 15.9781C19.5132 14.2618 18.1859 12.8704 16.5486 12.8704C14.9113 12.8704 13.584 14.2618 13.584 15.9781C13.584 17.6944 14.9113 19.0858 16.5486 19.0858Z" fill="white"/>
</svg>
