<svg width="35" height="36" viewBox="0 0 35 36" fill="none" xmlns="http://www.w3.org/2000/svg">
<circle cx="18" cy="18" r="13" fill="#1D1D1B"/>
<path d="M17.28 0.719971C7.7364 0.719971 0 8.45637 0 18C0 27.5436 7.7364 35.28 17.28 35.28C26.8236 35.28 34.56 27.5436 34.56 18C34.56 8.45637 26.8236 0.719971 17.28 0.719971ZM13.05 25.1622H9.5508V13.9014H13.05V25.1622ZM11.2788 12.519C10.1736 12.519 9.459 11.736 9.459 10.7676C9.459 9.77937 10.1952 9.01977 11.3238 9.01977C12.4524 9.01977 13.1436 9.77937 13.1652 10.7676C13.1652 11.736 12.4524 12.519 11.2788 12.519ZM25.83 25.1622H22.3308V18.9216C22.3308 17.469 21.8232 16.4826 20.5578 16.4826C19.5912 16.4826 19.017 17.1504 18.7632 17.793C18.6696 18.0216 18.6462 18.3456 18.6462 18.6678V25.1604H15.1452V17.4924C15.1452 16.0866 15.1002 14.9112 15.0534 13.8996H18.0936L18.2538 15.4638H18.324C18.7848 14.7294 19.9134 13.6458 21.8016 13.6458C24.1038 13.6458 25.83 15.1884 25.83 18.504V25.1622Z" fill="#FFCE23"/>
</svg>
