<svg width="33" height="32" viewBox="0 0 33 32" fill="none" xmlns="http://www.w3.org/2000/svg">
<circle cx="16" cy="15.5554" r="12.8889" fill="white"/>
<path d="M16.4445 0.640137C7.96127 0.640137 1.08447 7.51694 1.08447 16.0001C1.08447 24.4833 7.96127 31.3601 16.4445 31.3601C24.9277 31.3601 31.8045 24.4833 31.8045 16.0001C31.8045 7.51694 24.9277 0.640137 16.4445 0.640137ZM12.6845 22.3665H9.57407V12.3569H12.6845V22.3665ZM11.1101 11.1281C10.1277 11.1281 9.49247 10.4321 9.49247 9.57134C9.49247 8.69294 10.1469 8.01774 11.1501 8.01774C12.1533 8.01774 12.7677 8.69294 12.7869 9.57134C12.7869 10.4321 12.1533 11.1281 11.1101 11.1281ZM24.0445 22.3665H20.9341V16.8193C20.9341 15.5281 20.4829 14.6513 19.3581 14.6513C18.4989 14.6513 17.9885 15.2449 17.7629 15.8161C17.6797 16.0193 17.6589 16.3073 17.6589 16.5937V22.3649H14.5469V15.5489C14.5469 14.2993 14.5069 13.2545 14.4653 12.3553H17.1677L17.3101 13.7457H17.3725C17.7821 13.0929 18.7853 12.1297 20.4637 12.1297C22.5101 12.1297 24.0445 13.5009 24.0445 16.4481V22.3665Z" fill="#62412B"/>
</svg>
