<svg width="27" height="27" viewBox="0 0 27 27" fill="none" xmlns="http://www.w3.org/2000/svg">
<path d="M18.9 22.95V25.65C18.9 26.0325 18.7709 26.3529 18.5126 26.6112C18.2534 26.8704 17.9325 27 17.55 27H1.35C0.9675 27 0.6471 26.8704 0.3888 26.6112C0.1296 26.3529 0 26.0325 0 25.65V14.85C0 14.4675 0.1296 14.1467 0.3888 13.8875C0.6471 13.6291 0.9675 13.5 1.35 13.5H5.4V8.1C5.4 5.85 6.1875 3.9375 7.7625 2.3625C9.3375 0.7875 11.25 0 13.5 0H18.9C21.15 0 23.0625 0.7875 24.6375 2.3625C26.2125 3.9375 27 5.85 27 8.1V27H24.3V22.95H18.9ZM18.9 20.25H24.3V8.1C24.3 6.615 23.7713 5.34375 22.7138 4.28625C21.6562 3.22875 20.385 2.7 18.9 2.7H13.5C12.015 2.7 10.7438 3.22875 9.68625 4.28625C8.62875 5.34375 8.1 6.615 8.1 8.1V13.5H17.55C17.9325 13.5 18.2534 13.6291 18.5126 13.8875C18.7709 14.1467 18.9 14.4675 18.9 14.85V20.25ZM10.8 10.8V8.1H21.6V10.8H10.8ZM9.45 20.0475L16.2 16.2H2.7L9.45 20.0475ZM9.45 22.41L2.7 18.5625V24.3H16.2V18.5625L9.45 22.41Z" fill="#62412B"/>
</svg>
