<svg width="25" height="25" viewBox="0 0 25 25" fill="none" xmlns="http://www.w3.org/2000/svg">
<path d="M11.2222 18.8889L8.66667 17.6111M8.66667 17.6111L1 21.4444V4.83333L8.66667 1M8.66667 17.6111V1M8.66667 1L16.3333 4.83333M16.3333 4.83333L24 1V13.7778M16.3333 4.83333V11.2222M20.8056 20.8056L24 24M15.0556 18.25C15.0556 19.0972 15.3921 19.9097 15.9912 20.5088C16.5903 21.1079 17.4028 21.4444 18.25 21.4444C19.0972 21.4444 19.9097 21.1079 20.5088 20.5088C21.1079 19.9097 21.4444 19.0972 21.4444 18.25C21.4444 17.4028 21.1079 16.5903 20.5088 15.9912C19.9097 15.3921 19.0972 15.0556 18.25 15.0556C17.4028 15.0556 16.5903 15.3921 15.9912 15.9912C15.3921 16.5903 15.0556 17.4028 15.0556 18.25Z" stroke="#685019" stroke-width="2" stroke-linecap="round" stroke-linejoin="round"/>
</svg>
