<svg width="65" height="70" viewBox="0 0 65 70" fill="none" xmlns="http://www.w3.org/2000/svg">
<rect x="0.5" y="0.5" width="64" height="69" rx="10.5" stroke="#62412B"/>
<path d="M12.5874 33.4621C13.8078 34.0939 15.217 34.2579 16.5499 33.9232C17.7834 33.6322 18.8661 32.896 19.5902 31.8558C19.6901 31.6878 19.8352 31.5512 20.009 31.4616C20.1828 31.372 20.3783 31.333 20.5732 31.3491C28.5353 31.3491 36.4958 31.3491 44.4546 31.3491C44.6188 31.3257 44.7862 31.3467 44.9395 31.41C45.0928 31.4732 45.2263 31.5765 45.3262 31.7089C47.1301 34.0246 49.4103 34.6276 52.1111 33.5533L52.481 33.4368C52.6482 36.0261 51.7158 38.0428 49.5826 39.416C49.3431 39.5423 49.1475 39.7382 49.0218 39.978C48.896 40.2177 48.846 40.49 48.8782 40.7588C48.9036 44.0525 48.8782 47.3461 48.9036 50.6499C48.9036 51.263 48.7364 51.3897 48.1536 51.3846C44.9951 51.3508 41.84 51.3508 38.6882 51.3846C38.0751 51.3846 37.9484 51.2225 37.9484 50.6347C37.9484 49.2767 38.1156 47.9086 37.8167 46.581C37.5334 45.2802 36.7837 44.1282 35.709 43.3426C34.6343 42.5569 33.3092 42.192 31.9838 42.3168C30.6584 42.4415 29.4246 43.0473 28.5154 44.0196C27.6062 44.992 27.0846 46.2636 27.049 47.5944C27.049 48.6078 27.0186 49.6212 27.049 50.6651C27.049 51.1718 26.978 51.3947 26.3751 51.3897C23.1625 51.3559 19.9533 51.3559 16.7475 51.3897C16.1901 51.3897 16.109 51.2073 16.1141 50.7157C16.1141 47.3309 16.1141 43.946 16.1141 40.5815C16.1372 40.3653 16.0926 40.1472 15.9864 39.9575C15.8802 39.7678 15.7176 39.6157 15.5212 39.5224C13.3474 38.2202 12.1567 35.7322 12.5874 33.4621Z" fill="#62412B"/>
<path d="M32.5164 29.525C28.8782 29.525 25.2349 29.525 21.5967 29.525C20.1367 29.5261 18.7202 29.0276 17.5826 28.1122C16.4451 27.1969 15.6551 25.9198 15.3439 24.4933C15.1969 23.8751 15.3895 23.8396 15.9114 23.9359C17.4716 24.2422 19.0899 23.9405 20.4351 23.0928C21.7802 22.245 22.7505 20.9152 23.1473 19.3755C23.3094 18.7826 23.5324 18.6053 24.1607 18.6103C29.7616 18.634 35.3625 18.634 40.9634 18.6103C41.5157 18.6103 41.7133 18.7522 41.8552 19.2893C42.7622 22.6438 45.6961 24.4933 49.1975 23.9359C49.7701 23.8447 49.8005 24.022 49.7042 24.5085C49.3893 25.9395 48.5923 27.2188 47.4465 28.1321C46.3008 29.0453 44.8759 29.5371 43.4108 29.525C39.7726 29.5554 36.1293 29.525 32.5164 29.525Z" fill="#FBCA20"/>
</svg>
