<svg width="25" height="25" viewBox="0 0 25 25" fill="none" xmlns="http://www.w3.org/2000/svg">
<path d="M9.72112 1.55791C9.66717 1.36059 9.53781 1.1924 9.36095 1.08963C9.18409 0.986856 8.97391 0.957747 8.77577 1.00858C6.91397 1.509 5.2164 2.48997 3.85318 3.85319C2.48997 5.2164 1.509 6.91397 1.00858 8.77577C0.981659 8.87393 0.974556 8.97646 0.987684 9.07738C1.00081 9.17831 1.03391 9.27561 1.08504 9.36361C1.13618 9.45161 1.20433 9.52855 1.28551 9.58993C1.3667 9.65131 1.4593 9.69591 1.5579 9.72112L1.74953 9.74667C1.91925 9.7464 2.08408 9.68981 2.21818 9.58577C2.35227 9.48173 2.44805 9.33613 2.49048 9.1718C2.92372 7.57166 3.76848 6.11289 4.94069 4.94069C6.11289 3.76848 7.57166 2.92372 9.17179 2.49048C9.36633 2.43647 9.5323 2.30907 9.63477 2.13512C9.73724 1.96116 9.76819 1.75423 9.72112 1.55791ZM10.2321 6.43795C9.32463 6.68638 8.49751 7.16691 7.8322 7.83221C7.1669 8.49751 6.68638 9.32463 6.43795 10.2321C6.39552 10.3965 6.29975 10.5421 6.16565 10.6461C6.03156 10.7501 5.86672 10.8067 5.697 10.807L5.50537 10.7814C5.30986 10.7247 5.14372 10.5948 5.04143 10.4188C4.93914 10.2427 4.90857 10.0341 4.95605 9.8361C5.27168 8.66695 5.88843 7.60104 6.74473 6.74474C7.60104 5.88843 8.66695 5.27168 9.83609 4.95605C10.0341 4.90857 10.2427 4.93915 10.4188 5.04143C10.5948 5.14372 10.7247 5.30986 10.7814 5.50538C10.8319 5.70187 10.8025 5.91038 10.6995 6.08519C10.5965 6.26 10.4285 6.38685 10.2321 6.43795ZM0.0121288 18.9702C0.226274 20.6355 1.03933 22.1659 2.29943 23.2756C3.55953 24.3852 5.18049 24.9982 6.85952 25C16.8623 25 25 16.8623 25 6.85952C24.9982 5.18049 24.3852 3.55954 23.2756 2.29944C22.1659 1.03934 20.6355 0.226278 18.9702 0.0121322C18.587 -0.0327261 18.1996 0.0475329 17.8657 0.240931C17.5319 0.434329 17.2695 0.730495 17.1178 1.08523L14.5501 7.0767C14.4336 7.34779 14.3855 7.64334 14.41 7.93738C14.4345 8.23141 14.5308 8.51493 14.6906 8.763L16.824 12.0078C16.8451 12.0444 16.8572 12.0855 16.8595 12.1277C16.8617 12.1699 16.8539 12.212 16.8368 12.2506C15.8555 14.2625 14.2269 15.8866 12.2122 16.8623C12.1731 16.8799 12.1301 16.8868 12.0874 16.8823C12.0448 16.8778 12.0041 16.8621 11.9695 16.8368L8.76299 14.7034C8.51737 14.5383 8.23416 14.4378 7.93946 14.411C7.64476 14.3842 7.34805 14.432 7.0767 14.5501L1.08523 17.1178C0.730494 17.2695 0.434328 17.5319 0.240929 17.8657C0.0475311 18.1996 -0.0327282 18.587 0.0121288 18.9702ZM1.53235 18.7786C1.52797 18.7253 1.5404 18.672 1.5679 18.6262C1.5954 18.5803 1.63659 18.5443 1.68565 18.5231L7.67712 15.9553C7.71672 15.9401 7.75936 15.9344 7.80156 15.9389C7.84375 15.9433 7.88429 15.9577 7.91985 15.9809L11.1136 18.1143C11.3722 18.2841 11.6699 18.385 11.9785 18.4074C12.287 18.4298 12.5962 18.3728 12.8765 18.242C15.2003 17.1108 17.0797 15.2359 18.2165 12.9149C18.3492 12.6378 18.4084 12.3313 18.3883 12.0247C18.3681 11.7182 18.2694 11.422 18.1015 11.1647L15.9809 7.91985C15.9555 7.88525 15.9398 7.84456 15.9354 7.80193C15.9309 7.7593 15.9378 7.71623 15.9553 7.67712L18.5231 1.68566C18.5427 1.64074 18.5748 1.60241 18.6155 1.57523C18.6563 1.54805 18.704 1.53317 18.753 1.53236H18.7786C20.0725 1.70243 21.2607 2.33608 22.1229 3.31573C22.9851 4.29537 23.4627 5.55451 23.467 6.85952C23.4636 11.2631 21.7128 15.4853 18.599 18.599C15.4853 21.7128 11.2631 23.4636 6.85952 23.467C5.55451 23.4627 4.29537 22.9851 3.31573 22.1229C2.33608 21.2607 1.70243 20.0725 1.53235 18.7786Z" fill="#62412B"/>
</svg>
