<svg width="28" height="15" viewBox="0 0 28 15" fill="none" xmlns="http://www.w3.org/2000/svg">
<path d="M21.8629 2.46286H25.2148C27.0788 2.46286 28.0467 3.77515 27.4653 5.50273C27.3285 5.90805 27.1848 6.31005 27.0378 6.71204C26.695 7.7326 26.4253 8.77495 26.2306 9.83164C25.9221 11.3339 25.0712 12.6796 23.8314 13.6262C22.5915 14.5729 21.0443 15.0581 19.4687 14.9944C15.6585 14.9081 12.6281 13.3333 10.316 10.4064C9.15309 8.93131 8.03808 7.41636 6.8957 5.93131C6.84149 5.8835 6.79756 5.82574 6.76647 5.76135C6.73538 5.69696 6.71773 5.62723 6.71455 5.55617C6.71137 5.48512 6.72272 5.41416 6.74794 5.34739C6.77317 5.28063 6.81176 5.21938 6.8615 5.16719C7.49767 4.3034 8.11675 3.42964 8.67426 2.50938C8.98208 2.00771 9.19414 2.10073 9.53959 2.4396C10.8085 3.68877 11.9714 5.02766 13.124 6.37317C13.5297 6.84694 14.0388 7.22716 14.6143 7.48631C15.1899 7.74545 15.8176 7.87702 16.452 7.87151C16.794 7.87151 16.9992 7.84493 16.818 7.40639C16.5512 6.77184 16.3562 6.11071 16.1339 5.45622C15.6038 3.83164 16.6127 2.46619 18.3673 2.46619C19.5234 2.4529 20.6931 2.46286 21.8629 2.46286Z" fill="#FFCE23"/>
<path d="M7.99022 1.37318C7.30617 2.36986 6.62211 3.36654 5.93805 4.36322C5.79782 4.5692 5.71231 4.64894 5.47289 4.4496C4.27254 3.51801 2.86856 2.86569 1.36854 2.54262C0.571617 2.34661 0.516896 2.07418 0.763156 1.33664C1.13597 0.220359 1.91579 -0.0520665 3.00002 0.00773426C4.75689 0.036733 6.4761 0.507148 7.99022 1.37318Z" fill="#62412B"/>
</svg>
