<svg width="65" height="70" viewBox="0 0 65 70" fill="none" xmlns="http://www.w3.org/2000/svg">
<rect x="0.5" y="0.5" width="64" height="69" rx="10.5" stroke="#62412B"/>
<path d="M43.9509 27.3174H48.9166C51.6782 27.3174 53.1122 29.3189 52.2507 31.9538C52.0481 32.5719 51.8352 33.1851 51.6174 33.7982C51.1096 35.3547 50.71 36.9445 50.4215 38.5562C49.9645 40.8473 48.704 42.8999 46.8672 44.3437C45.0304 45.7875 42.7382 46.5275 40.4039 46.4304C34.7592 46.2987 30.2697 43.8969 26.8444 39.4328C25.1216 37.183 23.4697 34.8724 21.7773 32.6074C21.697 32.5345 21.6319 32.4464 21.5858 32.3482C21.5398 32.25 21.5136 32.1436 21.5089 32.0353C21.5042 31.9269 21.521 31.8187 21.5584 31.7168C21.5957 31.615 21.6529 31.5216 21.7266 31.442C22.6691 30.1245 23.5862 28.7919 24.4122 27.3883C24.8682 26.6232 25.1824 26.7651 25.6941 27.2819C27.574 29.1871 29.2968 31.2292 31.0044 33.2813C31.6054 34.0039 32.3596 34.5838 33.2123 34.9791C34.065 35.3743 34.9949 35.575 35.9347 35.5666C36.4414 35.5666 36.7455 35.5261 36.4769 34.8572C36.0817 33.8894 35.7928 32.881 35.4635 31.8828C34.6781 29.405 36.1729 27.3224 38.7723 27.3224C40.485 27.3022 42.2179 27.3174 43.9509 27.3174Z" fill="#62412B"/>
<path d="M23.3988 25.6554C22.3854 27.1755 21.3719 28.6957 20.3585 30.2158C20.1508 30.5299 20.0241 30.6516 19.6694 30.3475C17.8911 28.9267 15.8111 27.9318 13.5889 27.439C12.4083 27.1401 12.3272 26.7246 12.692 25.5997C13.2443 23.8971 14.3996 23.4816 16.0059 23.5728C18.6087 23.6171 21.1556 24.3345 23.3988 25.6554Z" fill="#FBCA20"/>
</svg>
