<svg width="66" height="70" viewBox="0 0 66 70" fill="none" xmlns="http://www.w3.org/2000/svg">
<rect x="1" y="0.5" width="64" height="69" rx="10.5" stroke="#62412B"/>
<path d="M38.3197 33.1684C34.8372 29.1578 30.4322 26.4841 25.5527 24.4788C24.8842 24.2114 24.0487 23.5564 23.5875 23.7569C23.0193 24.0042 23.0594 25.0938 22.7386 25.7622C22.4177 26.4306 22.5046 26.7448 23.3401 26.9988C24.0879 27.2404 24.7789 27.6313 25.3712 28.1477C25.9635 28.6641 26.445 29.2953 26.7863 30.0031C27.1276 30.711 27.3217 31.4807 27.3569 32.2658C27.3922 33.0508 27.2677 33.8348 26.9911 34.5704C26.7146 35.306 26.2916 35.9778 25.7479 36.5451C25.2042 37.1125 24.551 37.5636 23.8279 37.8712C23.1047 38.1788 22.3267 38.3365 21.5409 38.3347C20.755 38.3329 19.9778 38.1717 19.256 37.8608C18.7079 37.6269 18.5876 37.7739 18.4339 38.2619C18.1999 39.0573 17.8857 39.826 17.605 40.6081C16.1166 44.8326 14.6193 49.066 13.1131 53.3083C13.0105 53.5273 12.9766 53.7723 13.016 54.0109C13.0553 54.2496 13.1661 54.4707 13.3337 54.6451C13.4911 54.8207 13.6997 54.9424 13.9301 54.9928C14.1604 55.0431 14.4008 55.0197 14.6171 54.9259C16.8697 54.0903 19.1357 53.2748 21.395 52.446C19.871 49.3177 19.9445 47.0985 21.6958 45.0932C22.4283 44.198 23.4168 43.5479 24.529 43.2301C25.6413 42.9124 26.824 42.942 27.9189 43.3152C30.2651 43.9837 31.7022 45.9889 31.9696 48.783L42.8182 45.0398C43.3062 44.8727 44.0014 44.8259 44.2219 44.4783C44.4425 44.1307 43.9546 43.5291 43.7941 43.0345C42.6536 39.4102 40.7914 36.0541 38.3197 33.1684ZM28.467 40.6615C28.1639 40.6571 27.8749 40.5324 27.6637 40.3149C27.4524 40.0975 27.3363 39.805 27.3407 39.5018C27.3451 39.1987 27.4698 38.9097 27.6873 38.6985C27.9048 38.4873 28.1973 38.3711 28.5004 38.3755C28.6487 38.3737 28.7959 38.4015 28.9333 38.4572C29.0707 38.5129 29.1956 38.5955 29.3008 38.7C29.406 38.8046 29.4893 38.929 29.5458 39.0661C29.6023 39.2032 29.631 39.3502 29.6301 39.4985C29.6388 39.6535 29.6147 39.8086 29.5593 39.9537C29.504 40.0987 29.4186 40.2305 29.3088 40.3402C29.199 40.45 29.0673 40.5354 28.9222 40.5908C28.7772 40.6461 28.622 40.6703 28.467 40.6615ZM29.9509 30.8824C29.77 30.6624 29.6771 30.3831 29.6903 30.0986C29.7036 29.8141 29.8219 29.5446 30.0225 29.3424C30.2231 29.1401 30.4916 29.0196 30.776 29.004C31.0604 28.9884 31.3404 29.079 31.5618 29.2581C32.4308 30.0469 33.2329 30.9024 34.0618 31.738C34.2402 31.9612 34.3302 32.2422 34.3146 32.5275C34.2991 32.8128 34.179 33.0824 33.9774 33.2849C33.7757 33.4874 33.5066 33.6085 33.2214 33.6252C32.9362 33.642 32.6547 33.5531 32.4308 33.3756C31.5752 32.5735 30.733 31.7714 29.9509 30.8824ZM35.5257 43.0144C34.5985 43.0144 33.7093 42.6461 33.0537 41.9905C32.3981 41.3349 32.0297 40.4457 32.0297 39.5185C32.0297 38.5914 32.3981 37.7022 33.0537 37.0466C33.7093 36.3909 34.5985 36.0226 35.5257 36.0226C36.4528 36.0226 37.342 36.3909 37.9976 37.0466C38.6532 37.7022 39.0215 38.5914 39.0215 39.5185C39.0215 40.4457 38.6532 41.3349 37.9976 41.9905C37.342 42.6461 36.4528 43.0144 35.5257 43.0144Z" fill="#62412B"/>
<path d="M52.7912 40.3474C50.9097 34.4393 47.636 29.0699 43.2459 24.6914C38.8557 20.3129 33.4776 17.0534 27.5646 15.1876C26.7984 14.9108 25.9593 14.9125 25.1942 15.1924C24.4292 15.4723 23.787 16.0125 23.3803 16.7183C22.1503 18.8239 23.1664 21.1634 25.6663 21.9989C33.3999 24.4949 39.8674 29.8869 43.7139 37.0453C44.6926 38.8769 45.5068 40.7916 46.147 42.7671C46.3975 43.5425 46.9196 44.2014 47.6171 44.6226C48.3147 45.0439 49.1408 45.1991 49.9437 45.0598C50.7844 44.9415 51.5549 44.5258 52.1154 43.8881C52.6758 43.2504 52.9891 42.4329 52.9985 41.584C53.0116 41.1621 52.9411 40.7419 52.7912 40.3474Z" fill="#FBCA20"/>
<path d="M26.1676 45.374C25.4864 45.3691 24.8184 45.5614 24.2441 45.9278C23.6698 46.2942 23.2138 46.8189 22.9311 47.4387C22.6484 48.0584 22.5511 48.7468 22.651 49.4206C22.7509 50.0945 23.0436 50.725 23.4939 51.2362C23.5797 51.3621 23.7084 51.4526 23.8559 51.4907C24.0035 51.5288 24.1599 51.512 24.296 51.4434C25.8334 50.8819 27.3708 50.3405 28.9349 49.8592C29.1591 49.8184 29.3583 49.6911 29.4896 49.5048C29.6209 49.3185 29.6737 49.0881 29.6368 48.8632C29.6298 47.9434 29.2627 47.063 28.6142 46.4107C27.9657 45.7584 27.0873 45.3862 26.1676 45.374Z" fill="#62412B"/>
<path d="M21.014 35.9624L21.4151 36.0025C22.2532 36.0117 23.0671 35.7211 23.7099 35.1831C24.3527 34.6452 24.7822 33.8953 24.9209 33.0687C25.0596 32.242 24.8984 31.393 24.4664 30.6747C24.0344 29.9564 23.36 29.4161 22.5648 29.1511C21.9632 28.9439 21.6022 28.9439 21.375 29.7059C20.9338 31.2166 20.3656 32.6938 19.8576 34.1844C19.3897 35.5413 19.5435 35.782 21.014 35.9624Z" fill="#62412B"/>
<path d="M35.5858 38.3421C35.2718 38.3348 34.9676 38.4513 34.7387 38.6664C34.5099 38.8815 34.3748 39.178 34.3626 39.4918C34.3533 39.7919 34.4611 40.0838 34.6632 40.3059C34.8653 40.5279 35.1458 40.6627 35.4454 40.6816C35.6 40.6934 35.7554 40.6746 35.9027 40.6262C36.05 40.5778 36.1862 40.5007 36.3036 40.3995C36.421 40.2982 36.5173 40.1748 36.5868 40.0362C36.6563 39.8976 36.6978 39.7467 36.7088 39.5921C36.7183 39.2793 36.6069 38.9748 36.3978 38.7421C36.1886 38.5093 35.8978 38.366 35.5858 38.3421Z" fill="#62412B"/>
</svg>
