<svg width="23" height="23" viewBox="0 0 23 23" fill="none" xmlns="http://www.w3.org/2000/svg">
<path d="M14.6687 10.4936C12.7534 8.28982 10.3306 6.82065 7.64688 5.71877C7.27924 5.57185 6.8197 5.2119 6.56603 5.32209C6.25353 5.45799 6.27559 6.05668 6.09912 6.42397C5.92266 6.79126 5.97045 6.96389 6.43 7.10347C6.84127 7.23624 7.2213 7.451 7.54708 7.73475C7.87287 8.01851 8.13764 8.36536 8.32537 8.75431C8.51309 9.14326 8.61987 9.56622 8.63924 9.99759C8.65861 10.429 8.59016 10.8598 8.43805 11.264C8.28594 11.6681 8.05332 12.0373 7.75427 12.349C7.45522 12.6608 7.09597 12.9087 6.69825 13.0777C6.30053 13.2467 5.87261 13.3334 5.44041 13.3324C5.0082 13.3314 4.58068 13.2428 4.18374 13.072C3.88227 12.9434 3.8161 13.0242 3.73154 13.2924C3.60287 13.7294 3.43008 14.1518 3.27567 14.5816C2.45706 16.9029 1.63356 19.2291 0.805146 21.5601C0.748676 21.6805 0.730041 21.8151 0.7517 21.9462C0.773358 22.0774 0.834292 22.1989 0.926467 22.2947C1.01301 22.3912 1.12777 22.4581 1.25446 22.4857C1.38116 22.5134 1.51336 22.5006 1.63233 22.449C2.87127 21.9899 4.11756 21.5418 5.36018 21.0863C4.52196 19.3674 4.5624 18.148 5.52561 17.0461C5.92847 16.5542 6.47217 16.197 7.08389 16.0224C7.69561 15.8477 8.34613 15.8641 8.94831 16.0691C10.2387 16.4364 11.0291 17.5383 11.1762 19.0736L17.143 17.0167C17.4113 16.9249 17.7937 16.8992 17.915 16.7082C18.0363 16.5172 17.7679 16.1866 17.6797 15.9148C17.0524 13.9233 16.0282 12.0792 14.6687 10.4936ZM9.24978 14.6109C9.08305 14.6085 8.92411 14.54 8.80794 14.4205C8.69176 14.301 8.62787 14.1403 8.63031 13.9737C8.63274 13.8071 8.70131 13.6483 8.82094 13.5323C8.94056 13.4162 9.10143 13.3524 9.26816 13.3548C9.34971 13.3538 9.43064 13.3691 9.50622 13.3997C9.5818 13.4303 9.65053 13.4757 9.70837 13.5331C9.76621 13.5906 9.81201 13.659 9.84311 13.7343C9.8742 13.8096 9.88996 13.8904 9.88947 13.9719C9.89426 14.057 9.881 14.1423 9.85054 14.222C9.82009 14.3017 9.77314 14.3741 9.71275 14.4344C9.65237 14.4947 9.57992 14.5416 9.50014 14.5721C9.42035 14.6025 9.33504 14.6157 9.24978 14.6109ZM10.0659 9.23744C9.96641 9.11658 9.91534 8.96311 9.92261 8.80677C9.92988 8.65043 9.99498 8.50235 10.1053 8.39123C10.2156 8.28011 10.3633 8.21385 10.5197 8.20529C10.6761 8.19673 10.8301 8.24649 10.9519 8.34492C11.4299 8.77833 11.871 9.24846 12.3269 9.70758C12.425 9.83022 12.4745 9.98466 12.466 10.1414C12.4574 10.2982 12.3914 10.4463 12.2805 10.5576C12.1696 10.6688 12.0216 10.7354 11.8647 10.7446C11.7078 10.7538 11.553 10.705 11.4299 10.6074C10.9593 10.1667 10.4961 9.72594 10.0659 9.23744ZM13.132 15.9038C12.6221 15.9038 12.133 15.7014 11.7724 15.3412C11.4119 14.9809 11.2093 14.4923 11.2093 13.9829C11.2093 13.4734 11.4119 12.9848 11.7724 12.6246C12.133 12.2643 12.6221 12.0619 13.132 12.0619C13.642 12.0619 14.131 12.2643 14.4916 12.6246C14.8522 12.9848 15.0548 13.4734 15.0548 13.9829C15.0548 14.4923 14.8522 14.9809 14.4916 15.3412C14.131 15.7014 13.642 15.9038 13.132 15.9038Z" fill="#62412B"/>
<path d="M22.6281 14.4383C21.5933 11.1919 19.7927 8.24152 17.3781 5.83558C14.9636 3.42964 12.0056 1.63863 8.75347 0.613379C8.33206 0.461303 7.87053 0.462239 7.44974 0.616024C7.02896 0.769809 6.67577 1.06663 6.45206 1.45448C5.77561 2.61146 6.33441 3.89698 7.70938 4.3561C11.9628 5.72761 15.52 8.69045 17.6356 12.6239C18.1738 13.6303 18.6217 14.6824 18.9738 15.7679C19.1116 16.194 19.3987 16.5561 19.7823 16.7875C20.166 17.019 20.6204 17.1043 21.062 17.0277C21.5244 16.9627 21.9481 16.7343 22.2564 16.3839C22.5646 16.0335 22.7369 15.5843 22.7421 15.1178C22.7493 14.886 22.7105 14.6551 22.6281 14.4383Z" fill="#FFCE23"/>
<path d="M7.9851 17.2004C7.61045 17.1977 7.24302 17.3034 6.92716 17.5047C6.6113 17.706 6.3605 17.9943 6.20502 18.3349C6.04955 18.6754 5.99605 19.0537 6.05097 19.4239C6.10589 19.7942 6.26689 20.1407 6.51455 20.4216C6.56175 20.4908 6.63253 20.5405 6.71369 20.5614C6.79485 20.5824 6.88086 20.5731 6.95571 20.5354C7.80128 20.2269 8.64684 19.9294 9.50712 19.6649C9.63044 19.6425 9.74 19.5726 9.81221 19.4702C9.88442 19.3678 9.91348 19.2412 9.89314 19.1177C9.88933 18.6122 9.68743 18.1284 9.33074 17.77C8.97404 17.4116 8.49096 17.2071 7.9851 17.2004Z" fill="#62412B"/>
<path d="M5.15062 12.0289L5.37121 12.0509C5.83219 12.0559 6.27981 11.8962 6.63335 11.6006C6.9869 11.3051 7.22311 10.893 7.2994 10.4388C7.3757 9.98454 7.28705 9.51802 7.04944 9.12332C6.81184 8.72863 6.44092 8.43172 6.00354 8.28614C5.67267 8.17227 5.47415 8.17228 5.34915 8.59099C5.10651 9.42107 4.79402 10.2328 4.51461 11.0519C4.25727 11.7975 4.34182 11.9297 5.15062 12.0289Z" fill="#62412B"/>
<path d="M13.1651 13.3364C12.9924 13.3325 12.8251 13.3965 12.6992 13.5147C12.5734 13.6328 12.499 13.7957 12.4923 13.9682C12.4872 14.1331 12.5465 14.2935 12.6577 14.4155C12.7688 14.5375 12.9231 14.6116 13.0879 14.622C13.1729 14.6285 13.2584 14.6181 13.3394 14.5915C13.4204 14.5649 13.4953 14.5226 13.5599 14.467C13.6245 14.4113 13.6774 14.3435 13.7157 14.2673C13.7539 14.1912 13.7767 14.1083 13.7827 14.0233C13.788 13.8514 13.7267 13.6841 13.6117 13.5562C13.4967 13.4283 13.3367 13.3496 13.1651 13.3364Z" fill="#62412B"/>
</svg>
