<svg width="59" height="45" viewBox="0 0 59 45" fill="none" xmlns="http://www.w3.org/2000/svg">
<path d="M44.152 6.41751C44.2662 6.11706 44.2733 5.7864 44.1721 5.48131C44.071 5.17622 43.8678 4.91537 43.5967 4.74267C39.9313 1.89756 35.4783 0.250777 30.8437 0.026419C26.2091 -0.197939 21.6179 1.011 17.6948 3.48876C16.3693 4.33065 15.5274 5.19049 15.823 6.87429C15.8903 7.67596 15.8903 8.48182 15.823 9.2835C15.823 10.4478 15.823 11.6032 15.823 12.7675C15.8307 13.8262 15.5772 14.8704 15.0852 15.8077C14.5931 16.745 13.8775 17.5465 13.0017 18.1414C12.567 18.3925 12.2176 18.7683 11.9989 19.2202C11.7801 19.6721 11.702 20.1793 11.7747 20.676C12.0732 25.9782 12.3509 31.2774 12.6076 36.5736C12.6543 37.0131 12.8694 37.4176 13.2077 37.7021C15.3411 40.0325 17.9419 41.8869 20.8404 43.1441C23.7389 44.4014 26.87 45.0333 30.0292 44.9986C33.1885 44.964 36.3049 44.2636 39.1751 42.943C42.0454 41.6225 44.6049 39.7115 46.6866 37.3348C47.0541 36.9495 47.2676 36.4429 47.2867 35.9108C47.5016 30.746 47.7285 25.5782 47.9674 20.4073C48.0043 20.1228 47.9723 19.8334 47.8741 19.5638C47.776 19.2942 47.6144 19.052 47.4031 18.8579C43.8385 15.347 43.0862 11.1106 44.152 6.41751ZM29.8218 33.197C27.6916 33.2183 25.6032 32.6061 23.8217 31.4382C22.0402 30.2703 20.6459 28.5992 19.8159 26.6373C18.986 24.6754 18.7578 22.5111 19.1602 20.4193C19.5627 18.3274 20.5777 16.4024 22.0765 14.8885C23.5752 13.3746 25.49 12.3403 27.5777 11.9168C29.6654 11.4933 31.8319 11.6998 33.802 12.51C35.7722 13.3202 37.4571 14.6976 38.6429 16.4673C39.8287 18.237 40.4618 20.3191 40.4619 22.4494C40.4621 25.2782 39.347 27.9931 37.3585 30.0051C35.3699 32.0171 32.6683 33.164 29.8397 33.197H29.8218Z" fill="#FFCB18"/>
<path d="M13.7003 12.445V8.0295C13.7003 6.41735 13.7003 4.81416 13.7003 3.21097C13.7003 2.12725 13.3063 1.37492 12.1151 1.31222C10.9239 1.24953 10.494 1.93021 10.485 3.2647C10.485 5.18137 10.485 7.10101 10.485 9.02364C10.485 9.57894 10.485 10.1701 9.74162 10.2149C8.99824 10.2596 8.84598 9.64162 8.84598 9.01468C8.84598 7.14578 8.84598 5.27394 8.84598 3.39907C8.84598 1.94814 8.30861 1.24953 7.20697 1.31222C5.93517 1.38387 5.61273 2.20787 5.63065 3.33637C5.63065 5.21721 5.63065 7.08906 5.63065 8.96094C5.63065 9.56102 5.63064 10.2149 4.81561 10.2149C4.00058 10.2149 4.01851 9.54314 4.01851 8.94306C4.01851 7.0264 4.01851 5.10073 4.01851 3.18407C4.01851 2.0914 3.59756 1.33012 2.42428 1.32116C1.251 1.3122 0.794214 2.0377 0.794214 3.11246C0.794214 6.28301 0.794214 9.4446 0.794214 12.6152C0.753323 13.3807 0.921821 14.1429 1.28161 14.8199C1.6414 15.4969 2.17888 16.063 2.83626 16.4574C3.56617 16.8459 4.15432 17.4555 4.51635 18.1988C4.87837 18.9422 4.99567 19.7811 4.85145 20.5952C4.60962 24.0614 4.35885 27.5364 4.15285 31.0025C3.86628 34.2489 3.82138 37.512 4.01851 40.765C4.04417 41.5974 4.39354 42.3869 4.99235 42.9656C5.59115 43.5443 6.39212 43.8667 7.22488 43.8639C8.08247 43.8451 8.89788 43.4881 9.49343 42.8708C10.089 42.2534 10.4164 41.4257 10.4044 40.568C10.4044 38.1139 10.4671 35.6599 10.3059 33.2058C10.0193 28.8083 9.83117 24.3928 9.59831 19.9862C9.51383 19.299 9.63982 18.6024 9.95965 17.9883C10.2795 17.3742 10.7781 16.8717 11.3896 16.547C12.1176 16.1452 12.7194 15.5487 13.1275 14.8242C13.5357 14.0997 13.734 13.2758 13.7003 12.445Z" fill="#62412B"/>
<path d="M56.3237 3.03189C53.9144 0.407678 50.708 0.389765 48.2629 3.03189C44.976 6.55174 44.976 13.475 48.4152 16.8516C49.0286 17.412 49.4997 18.1106 49.7894 18.8893C50.0791 19.6681 50.1791 20.5046 50.0811 21.3297C49.6333 27.7335 49.4452 34.1463 49.3198 40.5681C49.3198 42.5832 50.5199 43.9267 52.3112 43.8998C54.1025 43.8729 55.222 42.5564 55.222 40.6128V31.7908H55.016C54.8369 28.2709 54.7115 24.7511 54.4608 21.2402C54.3596 20.4517 54.4446 19.6505 54.709 18.9008C54.9735 18.1511 55.4099 17.4738 55.9833 16.9232C59.539 13.3407 59.6196 6.65026 56.3237 3.03189Z" fill="#62412B"/>
<path d="M29.7232 13.9229C28.028 13.9318 26.3735 14.4431 24.969 15.3923C23.5644 16.3415 22.4728 17.6858 21.8323 19.2554C21.1918 20.8249 21.031 22.5492 21.3705 24.2101C21.7099 25.871 22.5342 27.394 23.7391 28.5864C24.9441 29.7788 26.4755 30.5871 28.1399 30.9092C29.8042 31.2312 31.5267 31.0525 33.0895 30.3956C34.6523 29.7387 35.9851 28.6331 36.9196 27.2187C37.854 25.8043 38.3481 24.1445 38.3393 22.4493C38.337 21.3227 38.1119 20.2077 37.6769 19.1684C37.242 18.1291 36.6058 17.1861 35.8051 16.3937C35.0043 15.6012 34.0547 14.9749 33.0109 14.5509C31.9671 14.1269 30.8498 13.9135 29.7232 13.9229Z" fill="#FFCB18"/>
</svg>
