<svg width="65" height="70" viewBox="0 0 65 70" fill="none" xmlns="http://www.w3.org/2000/svg">
<rect x="0.5" y="0.5" width="64" height="69" rx="10.5" stroke="#62412B"/>
<path d="M36.5812 34.5119L35.4745 35.6311L36.963 36.9237C37.2342 36.6831 37.4943 36.3921 37.7544 36.1235C38.4715 35.4834 39.0677 35.4539 39.2761 35.5192C40.001 35.8102 40.0563 36.4033 40.0563 37.0636V45.6365C40.0619 49.0275 40.0176 52.4186 40.1117 55.8097C40.1454 56.3968 40.3093 56.9686 40.5914 57.4829C40.8734 57.9971 41.2664 58.4406 41.741 58.7803C42.2157 59.12 42.7599 59.3472 43.3333 59.4452C43.9067 59.5432 44.4945 59.5094 45.0532 59.3463C46.99 58.7923 47.9861 57.3486 47.9861 55.0039V32.9563C47.9643 32.7138 47.9962 32.4695 48.0795 32.2411C48.1628 32.0126 48.2953 31.8058 48.4675 31.6356C48.6497 31.4611 48.7931 31.2492 48.8879 31.0142C48.9828 30.7791 49.027 30.5263 49.0175 30.2727C49.0081 30.019 48.9453 29.7702 48.8333 29.5431C48.7212 29.3159 48.5626 29.1155 48.3679 28.9552C47.9031 28.4908 47.8809 28.183 48.3679 27.7298C48.704 27.4637 48.9292 27.0798 48.9989 26.6539C49.0685 26.228 48.9776 25.7912 48.7442 25.4299C48.4564 24.9486 48.6778 24.8255 48.971 24.5625C49.5494 24.0731 49.9142 23.3733 49.9867 22.6143C50.0592 21.8552 49.8335 21.0978 49.3584 20.5055C49.0849 20.1715 48.9103 19.766 48.8548 19.336C48.628 17.7244 48.3513 16.1184 48.0746 14.5124C47.975 13.9136 47.892 13.3093 47.0343 13.2981C46.1766 13.2869 46.0382 13.9248 45.9275 14.5571C45.7671 15.4972 45.6785 16.4373 45.4904 17.3551C45.2469 18.6197 45.1528 19.9795 44.3837 21.0595C43.6145 22.1395 44.0018 23.628 45.0256 24.5401C45.3576 24.8367 45.5513 24.9822 45.258 25.4858C45.0315 25.8381 44.944 26.2635 45.0127 26.6779C45.0813 27.0924 45.3011 27.4657 45.6287 27.7242C46.1434 28.2054 46.1323 28.5244 45.6287 29.0224C45.4376 29.1867 45.2834 29.3903 45.1762 29.6197C45.069 29.849 45.0114 30.0988 45.0073 30.3525C45.0031 30.6061 45.0524 30.8577 45.1519 31.0906C45.2514 31.3234 45.3989 31.5321 45.5845 31.7028C45.7496 31.8595 45.877 32.0526 45.9566 32.267C46.0362 32.4815 46.0661 32.7115 46.0438 32.9395V54.892C46.0486 55.2681 46.0115 55.6435 45.9331 56.0112C45.8279 56.436 45.5854 56.8131 45.244 57.0826C44.9026 57.3521 44.482 57.4985 44.0489 57.4985C43.6158 57.4985 43.1951 57.3521 42.8537 57.0826C42.5123 56.8131 42.2698 56.436 42.1647 56.0112C42.0835 55.6137 42.0464 55.2083 42.054 54.8024V36.8062C42.054 35.3457 41.473 34.2433 40.1338 33.6669C39.459 33.4114 37.8037 33.2226 36.5812 34.5119Z" fill="#FBCA20"/>
<path d="M21.3068 14.322C21.5737 15.1383 21.9974 15.8932 22.5537 16.5433C21.6905 16.5433 21.0209 16.5154 20.2849 16.4874C19.549 16.4594 19.0011 16.7168 18.9956 17.489C18.9901 18.2613 19.5766 18.5299 20.2794 18.5299H23.3506C23.7545 18.5299 23.9593 18.5802 23.9593 19.0894V34.0695C23.9593 34.3046 24.0257 34.534 23.6826 34.6627C23.1071 34.8753 22.9909 35.4013 22.9521 35.9609C22.8879 36.9029 22.6185 37.8188 22.1631 38.643C21.7077 39.4673 21.0777 40.1795 20.3181 40.7286C18.8553 41.8472 17.5937 43.212 16.5885 44.7632C13.4675 49.6316 15.0722 55.1547 20.2905 57.4658C20.6225 57.6113 20.96 57.7288 21.115 58.1429C21.2017 58.3458 21.3524 58.5141 21.5436 58.6214C21.7348 58.7287 21.9557 58.769 22.1719 58.736H31.6732C32.0661 58.736 32.4977 58.7024 32.6526 58.3331C32.9127 57.6952 33.4661 57.5385 33.9862 57.2979C35.7116 56.5823 37.1306 55.272 37.9916 53.5993C38.8526 51.9265 39.1 49.9995 38.6898 48.1599C38.1842 45.845 36.9562 43.7557 35.187 42.2003C34.5009 41.568 34.5894 41.2714 35.187 40.7118C35.9783 40.0235 36.6922 39.2345 37.4337 38.4735C37.8487 38.0538 38.0203 37.483 37.6329 37.0577L35.6629 35.004C34.9436 34.3269 34.3902 34.7466 33.8368 35.3062C33.0455 36.1232 32.2376 36.9234 31.4242 37.7516C30.7269 36.6548 31.4131 35.0936 29.9688 34.4892C29.9411 34.4668 29.9411 34.2542 29.9411 34.1255V19.1454C29.9411 18.6698 30.1016 18.5858 30.5332 18.5858H33.6044C34.3072 18.5914 34.8993 18.3284 34.9048 17.5618C34.9104 16.7952 34.3238 16.5433 33.6265 16.5433H31.4795C32.7965 14.4169 33.0123 13.6615 32.9404 11.7141C32.9608 11.5492 32.9433 11.3818 32.8893 11.2249C32.8352 11.0679 32.7461 10.9257 32.6288 10.8093C32.5116 10.6929 32.3693 10.6054 32.2132 10.5537C32.057 10.5019 31.8912 10.4873 31.7285 10.511H22.2272C21.3695 10.5054 21.032 10.9419 20.9988 11.7869C20.9353 12.6442 21.04 13.5057 21.3068 14.322Z" fill="#62412B"/>
</svg>
