<svg width="65" height="70" viewBox="0 0 65 70" fill="none" xmlns="http://www.w3.org/2000/svg">
<rect x="0.5" y="0.5" width="64" height="69" rx="10.5" stroke="#62412B"/>
<path d="M32.4995 46.2565C29.1357 46.2565 25.779 46.2565 22.4293 46.2565C21.7707 46.3084 21.1143 46.1317 20.5708 45.7561C20.0272 45.3806 19.6298 44.8291 19.4453 44.1948C18.6079 41.9793 17.7881 39.7586 16.9861 37.5325C16.9437 37.321 16.83 37.1304 16.6642 36.9925C16.4983 36.8546 16.2901 36.7777 16.0744 36.7746C15.1851 36.6616 14.3574 36.2597 13.7187 35.6306C13.0801 35.0014 12.6657 34.18 12.5393 33.2924C12.4165 32.4037 12.5833 31.4991 13.0147 30.7125C13.4462 29.926 14.1195 29.2992 14.9349 28.9251C15.7356 28.5505 16.6392 28.4566 17.4998 28.6585C18.3605 28.8604 19.128 29.3465 19.6785 30.0381C20.2075 30.678 20.6038 31.4167 20.8445 32.2112C21.3056 33.5892 21.7668 34.962 22.212 36.3453C22.3339 36.7163 22.4134 36.9071 22.9328 36.7799C27.2106 35.7317 31.6335 35.4056 36.0188 35.8153C38.0948 35.9232 40.1528 36.2574 42.1563 36.8117C42.6227 36.9601 42.6386 36.7322 42.7393 36.4354C43.2693 34.8931 43.757 33.3454 44.2923 31.8084C45.2834 28.9728 47.9759 27.7644 50.3556 29.0788C51.1019 29.4901 51.7034 30.1214 52.078 30.8867C52.4526 31.6521 52.5822 32.5143 52.4492 33.356C52.3085 34.2273 51.8906 35.0299 51.2576 35.6448C50.6246 36.2597 49.8101 36.654 48.9352 36.7693C48.7193 36.7746 48.5115 36.8529 48.346 36.9915C48.1804 37.1302 48.0667 37.3209 48.0236 37.5325C47.2603 39.6791 46.4706 41.815 45.6862 43.9563C45.0608 45.6523 44.1492 46.2565 42.3153 46.2512C39.0399 46.2512 35.7697 46.2512 32.4995 46.2512V46.2565Z" fill="#62412B"/>
<path d="M16.6945 27.0701C17.691 24.4889 20.3675 23.2487 23.2826 24.0172C23.9928 24.208 24.6924 24.4571 25.4026 24.6532C26.3742 24.9543 27.4108 24.9768 28.3945 24.7182C29.3783 24.4596 30.2698 23.9303 30.9678 23.1904C31.2526 22.9294 31.5233 22.6534 31.7787 22.3636C35.4146 17.8956 41.1069 17.5935 45.559 20.7312C47.9255 22.3803 49.6778 24.7683 50.5411 27.5206C49.4811 27.245 48.4847 26.9588 47.4564 27.1973C46.4341 27.4148 45.4859 27.8947 44.7053 28.5899C43.9247 29.285 43.3385 30.1714 43.0043 31.1618C42.5697 32.3278 42.1775 33.5098 41.8171 34.697C41.6899 35.1104 41.5256 35.1846 41.1228 35.0998C35.396 33.9476 29.497 33.9476 23.7702 35.0998C23.3833 35.174 23.2667 35.0998 23.1501 34.7447C22.8374 33.7271 22.4611 32.7306 22.1325 31.7183C21.295 28.9728 19.4559 27.4305 16.6945 27.0701Z" fill="#FBCA20"/>
<path d="M37.6512 47.6663C39.1299 47.6663 40.4974 47.6663 41.8648 47.6663C42.2782 47.6663 42.4743 47.767 42.4372 48.1963C42.4107 48.5196 42.4372 48.8482 42.4372 49.1768C42.4372 50.4754 42.0344 51.0902 41.0963 51.2704C39.6599 51.5407 38.9179 51.1485 38.4462 49.85C38.1759 49.1715 37.9374 48.4719 37.6512 47.6663Z" fill="#62412B"/>
<path d="M27.3425 47.6664C26.9927 48.631 26.7117 49.5002 26.3566 50.3164C26.0015 51.1326 25.1323 51.4877 23.9133 51.2598C23.5268 51.2002 23.1758 51.0002 22.9274 50.6981C22.679 50.3959 22.5508 50.0129 22.5671 49.6221C22.4134 47.6452 22.4133 47.6452 24.3691 47.6452L27.3425 47.6664Z" fill="#62412B"/>
</svg>
