<svg width="32" height="32" viewBox="0 0 32 32" fill="none" xmlns="http://www.w3.org/2000/svg">
<g clip-path="url(#clip0_335_265)">
<circle cx="15.5555" cy="16.8888" r="12.4444" fill="white"/>
<path d="M16 0C24.5913 0 31.5556 7.1632 31.5556 16C31.5556 24.8368 24.5913 32 16 32C7.40868 32 0.444458 24.8368 0.444458 16C0.444458 7.1632 7.40868 0 16 0ZM22.9098 9.6C22.3171 9.6112 21.4071 9.9312 17.0313 11.7792C13.9599 13.0981 10.8969 14.4378 7.84268 15.7984C7.09601 16.1008 6.70712 16.3952 6.67135 16.6832C6.6029 17.2368 7.3869 17.408 8.37313 17.7344C9.17735 18 10.26 18.3104 10.8231 18.3232C11.3333 18.3344 11.9027 18.12 12.5311 17.6832C16.8245 14.7392 19.038 13.2528 19.178 13.2208C19.276 13.1984 19.4113 13.1696 19.5047 13.2528C19.5965 13.336 19.5871 13.4928 19.5762 13.536C19.4985 13.8736 15.468 17.5968 15.2362 17.8416L15.1242 17.9568C14.2687 18.8256 13.4053 19.3936 14.8956 20.3904C16.2427 21.2912 17.0267 21.8656 18.4111 22.7904C19.2978 23.3792 19.9931 24.0784 20.9078 23.9936C21.3293 23.9536 21.7633 23.552 21.9858 22.352C22.5069 19.52 23.5336 13.3792 23.77 10.848C23.7843 10.638 23.7754 10.4271 23.7436 10.2192C23.7244 10.0514 23.6444 9.8971 23.5196 9.7872C23.3313 9.6304 23.0389 9.5984 22.9098 9.6Z" fill="#62412B"/>
</g>
<defs>
<clipPath id="clip0_335_265">
<rect width="31.1111" height="32" fill="white" transform="translate(0.444458)"/>
</clipPath>
</defs>
</svg>
