<svg width="36" height="36" viewBox="0 0 36 36" fill="none" xmlns="http://www.w3.org/2000/svg">
<circle cx="18.2803" cy="18" r="13" fill="#1D1D1B"/>
<path d="M18.0601 0C27.7253 0 35.5601 8.0586 35.5601 18C35.5601 27.9414 27.7253 36 18.0601 36C8.39481 36 0.560059 27.9414 0.560059 18C0.560059 8.0586 8.39481 0 18.0601 0ZM25.8336 10.8C25.1668 10.8126 24.1431 11.1726 19.2203 13.2516C15.7649 14.7353 12.3191 16.2426 8.88306 17.7732C8.04306 18.1134 7.60556 18.4446 7.56531 18.7686C7.48831 19.3914 8.37031 19.584 9.47981 19.9512C10.3846 20.25 11.6026 20.5992 12.2361 20.6136C12.8101 20.6262 13.4506 20.385 14.1576 19.8936C18.9876 16.5816 21.4778 14.9094 21.6353 14.8734C21.7456 14.8482 21.8978 14.8158 22.0028 14.9094C22.1061 15.003 22.0956 15.1794 22.0833 15.228C21.9958 15.6078 17.4616 19.7964 17.2008 20.0718L17.0748 20.2014C16.1123 21.1788 15.1411 21.8178 16.8176 22.9392C18.3331 23.9526 19.2151 24.5988 20.7726 25.6392C21.7701 26.3016 22.5523 27.0882 23.5813 26.9928C24.0556 26.9478 24.5438 26.496 24.7941 25.146C25.3803 21.96 26.5353 15.0516 26.8013 12.204C26.8174 11.9678 26.8074 11.7305 26.7716 11.4966C26.75 11.3078 26.66 11.1342 26.5196 11.0106C26.3078 10.8342 25.9788 10.7982 25.8336 10.8Z" fill="#FFCE23"/>
</svg>
