<svg width="15" height="26" viewBox="0 0 15 26" fill="none" xmlns="http://www.w3.org/2000/svg">
<path d="M0.74292 25.3365C0.805046 25.2956 0.854381 25.2377 0.885178 25.1695C0.89773 25.1272 0.94376 25.1061 0.968865 25.0701C1.03999 24.9708 1.12368 24.8778 1.17807 24.7721C1.23246 24.6664 1.29941 24.5882 1.36217 24.4973C1.40639 24.4128 1.46047 24.334 1.52326 24.2626C1.54799 24.2441 1.56512 24.217 1.57138 24.1865C1.56984 24.1796 1.56984 24.1723 1.57138 24.1654C1.64251 24.0956 1.66342 23.992 1.73246 23.9223C1.73246 23.9223 1.75338 23.9033 1.75547 23.8927C1.78894 23.8039 1.86217 23.7405 1.89774 23.6538C1.91142 23.6236 1.92977 23.5958 1.95212 23.5714C1.97879 23.5435 1.9982 23.5093 2.00861 23.472C2.00646 23.4644 2.00646 23.4564 2.00861 23.4488C2.06817 23.3659 2.12199 23.2791 2.1697 23.1887C2.18956 23.1614 2.20706 23.1324 2.222 23.1021C2.23468 23.0631 2.25616 23.0276 2.28476 22.9985C2.30091 22.9855 2.31381 22.9688 2.32242 22.9499C2.33916 22.8315 2.45422 22.7596 2.47096 22.6412C2.4747 22.626 2.48357 22.6125 2.49606 22.6032C2.52444 22.5764 2.54598 22.543 2.55882 22.5059C2.57577 22.4466 2.60663 22.3922 2.64878 22.3474C2.65682 22.3376 2.66253 22.326 2.66551 22.3136C2.68408 22.2517 2.71466 22.1942 2.75547 22.1445C2.77237 22.1221 2.78384 22.096 2.78894 22.0684C2.80366 22.0133 2.83007 21.962 2.86635 21.9183C2.88413 21.8995 2.89644 21.8761 2.90192 21.8506C2.91796 21.7929 2.94655 21.7394 2.9856 21.6942C2.9856 21.6942 2.9856 21.6942 2.99606 21.6836C3.03477 21.5776 3.08091 21.4744 3.13413 21.375C3.15011 21.3176 3.17792 21.2643 3.21572 21.2186C3.24126 21.1804 3.25839 21.1372 3.26593 21.0917C3.27274 21.0666 3.28409 21.0429 3.29941 21.022C3.33402 20.9777 3.35898 20.9266 3.37263 20.8719C3.3804 20.8231 3.40308 20.778 3.43748 20.7429C3.44573 20.7329 3.45211 20.7214 3.45631 20.7091C3.48706 20.6026 3.53211 20.5009 3.5902 20.4068C3.59658 20.3935 3.60082 20.3792 3.60276 20.3645C3.60696 20.3253 3.62567 20.2891 3.65516 20.2633C3.68464 20.2374 3.72272 20.2237 3.76175 20.225H11.6927C11.7328 20.2227 11.7722 20.2361 11.8026 20.2625C11.8331 20.2889 11.8522 20.3263 11.8559 20.3667C11.8652 20.4147 11.8861 20.4597 11.9166 20.4977C11.9462 20.5334 11.9657 20.5765 11.973 20.6224C11.9833 20.6766 12.0079 20.727 12.0442 20.7683C12.0705 20.8094 12.0883 20.8554 12.0965 20.9036C12.1019 20.9311 12.1134 20.9571 12.1299 20.9797C12.1637 21.0221 12.1886 21.071 12.2032 21.1234C12.2232 21.1728 12.2463 21.2208 12.2722 21.2672C12.3224 21.375 12.381 21.4786 12.4291 21.5906C12.4423 21.6395 12.4659 21.685 12.4982 21.7238C12.4982 21.7238 12.4982 21.7238 12.4982 21.7365C12.5358 21.8633 12.63 21.9627 12.6655 22.0895C12.6691 22.1078 12.6778 22.1247 12.6906 22.1381C12.7296 22.1826 12.7582 22.2353 12.7743 22.2924C12.7743 22.3094 12.7743 22.3326 12.7994 22.3474C12.8538 22.3939 12.8643 22.4679 12.9019 22.525C12.9396 22.582 12.9772 22.6877 13.0316 22.7575C13.086 22.8273 13.0986 22.9097 13.1509 22.9689C13.2032 23.0281 13.2094 23.0746 13.2429 23.119C13.2916 23.2119 13.3461 23.3016 13.4061 23.3875C13.4321 23.41 13.4486 23.4418 13.4521 23.4762C13.4531 23.4891 13.4575 23.5015 13.4647 23.5122C13.5244 23.5866 13.5769 23.6666 13.6216 23.751C13.6781 23.8504 13.7534 23.9392 13.8036 24.0428C13.8036 24.0428 13.8036 24.0576 13.8161 24.0618C13.881 24.1294 13.904 24.2246 13.971 24.2901C13.9997 24.3162 14.0207 24.3499 14.0316 24.3873C14.0421 24.4254 14.0839 24.4423 14.0965 24.474C14.1383 24.5755 14.2366 24.6389 14.2701 24.7446C14.2701 24.7615 14.2931 24.7721 14.3057 24.7848C14.3182 24.7974 14.3287 24.8059 14.3371 24.8186C14.4035 24.9314 14.4813 25.0369 14.5693 25.1336C14.6007 25.1737 14.6069 25.2329 14.653 25.2604C14.6784 25.2775 14.6993 25.3007 14.7136 25.328V25.4211C14.7011 25.438 14.7136 25.4633 14.6843 25.4739C14.6551 25.4845 14.6488 25.4739 14.6362 25.4845H11.4396C11.427 25.4718 11.4082 25.4845 11.3935 25.4718C11.3715 25.4604 11.3537 25.4421 11.3427 25.4196C11.3318 25.3971 11.3284 25.3717 11.3329 25.3471C11.359 25.0576 11.3674 24.7667 11.358 24.4761C11.3625 24.3721 11.3512 24.268 11.3245 24.1675C11.2848 24.0153 11.2618 23.8546 11.2115 23.7067C11.1744 23.5595 11.1196 23.4176 11.0484 23.2839C11.0002 23.2078 10.9751 23.119 10.9333 23.0387C10.8001 22.7966 10.6424 22.5692 10.4626 22.3601C10.2576 22.1284 10.025 21.9232 9.77012 21.7492C9.62735 21.6439 9.47374 21.5546 9.31196 21.4828C9.17389 21.4257 9.03581 21.3602 8.89355 21.3137C8.68732 21.2534 8.47775 21.2054 8.26594 21.17C8.15342 21.1428 8.03846 21.1272 7.92284 21.1234C7.72007 21.1108 7.51654 21.1214 7.31614 21.1552C7.18435 21.1869 7.04836 21.2038 6.91447 21.2228C6.86342 21.2307 6.81354 21.2449 6.76593 21.2651C6.69689 21.2993 6.62263 21.3214 6.54627 21.3306C6.52792 21.3313 6.50999 21.3363 6.49397 21.3454C6.28972 21.4347 6.09065 21.5356 5.89774 21.6477C5.77221 21.7323 5.64041 21.8084 5.52326 21.9035C5.3511 22.0348 5.19331 22.1843 5.05255 22.3495C4.96468 22.4573 4.87472 22.5609 4.79104 22.6772C4.70736 22.7934 4.6697 22.8886 4.60694 22.9795C4.4874 23.1971 4.38526 23.424 4.3015 23.658C4.3003 23.6679 4.3003 23.6778 4.3015 23.6876C4.27012 23.899 4.20108 24.0851 4.16342 24.2859C4.1603 24.3196 4.1603 24.3536 4.16342 24.3873V25.0405C4.15982 25.1341 4.16684 25.2277 4.18435 25.3196C4.1895 25.3364 4.19132 25.354 4.18969 25.3715C4.18806 25.389 4.18301 25.4061 4.17485 25.4216C4.16668 25.4371 4.15554 25.4508 4.14209 25.462C4.12864 25.4732 4.11314 25.4815 4.09648 25.4866H0.820325C0.820325 25.476 0.797316 25.4866 0.784763 25.4739C0.772211 25.4612 0.757564 25.4401 0.74292 25.4232V25.3365Z" fill="#62412B"/>
<path d="M7.84333 0.514799C7.86654 0.52861 7.88524 0.548976 7.89713 0.57339C7.90903 0.597804 7.9136 0.6252 7.91028 0.652204V1.56331C7.91028 1.66266 7.91028 1.67323 8.01279 1.67323H8.22199C8.23886 1.67123 8.25596 1.67283 8.27217 1.67793C8.28839 1.68303 8.30337 1.69151 8.31614 1.70283C8.38764 1.76575 8.4338 1.85301 8.44584 1.94804C8.44584 2.06642 8.4584 2.1848 8.47095 2.30318C8.48146 2.36681 8.48775 2.43107 8.48978 2.49555C8.49316 2.53422 8.48525 2.57306 8.46703 2.60724C8.44882 2.64143 8.42109 2.66948 8.38727 2.68791C8.38727 2.68791 8.37053 2.70271 8.36216 2.70482C8.23246 2.74922 8.245 2.79784 8.25965 2.9437C8.27011 3.0346 8.25965 3.1255 8.25965 3.21639C8.25965 3.24599 8.24082 3.25656 8.21572 3.25867C8.18359 3.26376 8.15069 3.25903 8.12125 3.24509C8.0918 3.23116 8.06714 3.20865 8.05044 3.18046C8.03145 3.14718 8.00492 3.11893 7.97304 3.09802C7.9368 3.07287 7.9108 3.03533 7.89982 2.99232C7.88099 2.9141 7.88727 2.87817 7.95421 2.83377C7.98559 2.81475 8.02116 2.79784 8.00233 2.75133C7.9835 2.70483 7.94375 2.71539 7.90191 2.73231C7.88061 2.74148 7.86028 2.75281 7.84124 2.76613C7.80999 2.78626 7.7737 2.79696 7.73664 2.79696C7.69957 2.79696 7.66328 2.78626 7.63203 2.76613C7.59925 2.74204 7.55959 2.72943 7.51907 2.73019C7.49606 2.73019 7.47722 2.73019 7.46885 2.75767C7.46492 2.76759 7.46466 2.77861 7.46812 2.7887C7.47158 2.7988 7.47853 2.8073 7.48769 2.81264L7.51279 2.83166C7.54626 2.85703 7.58601 2.87817 7.58392 2.93313C7.58548 2.96286 7.58004 2.99255 7.56804 3.01974C7.55604 3.04694 7.53782 3.07087 7.51488 3.08956C7.47446 3.11664 7.4408 3.15282 7.41655 3.19526C7.4052 3.2124 7.39039 3.22692 7.37308 3.23785C7.35577 3.24878 7.33636 3.25588 7.31614 3.25867C7.22827 3.27559 7.21362 3.25867 7.21362 3.172C7.21119 3.06609 7.21609 2.96014 7.22827 2.85491C7.23367 2.82782 7.22896 2.79966 7.21506 2.77586C7.20116 2.75206 7.17904 2.73429 7.15296 2.72596C7.12383 2.70963 7.09587 2.69127 7.06928 2.671C7.04782 2.65725 7.02983 2.63862 7.01675 2.6166C7.00368 2.59458 6.99587 2.56977 6.99396 2.54417C6.98457 2.48465 6.98457 2.424 6.99396 2.36448C7.00832 2.29493 7.01603 2.22414 7.01698 2.15309C7.01698 2.07276 7.01697 1.99243 7.03162 1.9121C7.05231 1.82827 7.10019 1.75385 7.1676 1.70071C7.17938 1.6907 7.19308 1.68327 7.20785 1.67891C7.22261 1.67454 7.23812 1.67333 7.25337 1.67534H7.46258C7.56509 1.67534 7.57555 1.66477 7.57555 1.56542C7.57555 1.26524 7.57555 0.96295 7.57555 0.662773C7.57076 0.634469 7.5746 0.605364 7.58656 0.579314C7.59851 0.553265 7.61802 0.531503 7.6425 0.516913C7.65505 0.502116 7.67806 0.516913 7.69062 0.502116H7.78266C7.80986 0.5148 7.83078 0.500002 7.84333 0.514799Z" fill="#FFCE23"/>
<path d="M0.74292 25.4295L0.791039 25.476C0.791039 25.476 0.791039 25.476 0.791039 25.4866C0.742922 25.4929 0.74292 25.4929 0.74292 25.4295Z" fill="#62412B"/>
<path d="M14.7094 25.4824L14.7429 25.4358C14.7419 25.4492 14.7419 25.4626 14.7429 25.476C14.7429 25.5077 14.7262 25.4971 14.7115 25.4993C14.6969 25.5014 14.7115 25.4993 14.7115 25.4887C14.7115 25.4781 14.7074 25.4824 14.7094 25.4824Z" fill="#62412B"/>
<path d="M7.70526 0.5C7.70526 0.521139 7.67388 0.512683 7.65714 0.514797C7.65825 0.512492 7.65883 0.509963 7.65883 0.5074C7.65883 0.504836 7.65825 0.502305 7.65714 0.5H7.70526Z" fill="#FFCE23"/>
<path d="M7.84333 0.514799C7.8266 0.514799 7.80777 0.514797 7.79731 0.5H7.84333C7.84222 0.502305 7.84165 0.504836 7.84165 0.5074C7.84165 0.509963 7.84222 0.512494 7.84333 0.514799Z" fill="#FFCE23"/>
<path d="M14.7094 25.4824L14.7094 25.4993H14.6697C14.6697 25.4824 14.6927 25.4824 14.7094 25.4824Z" fill="#62412B"/>
<path d="M0.788939 25.4929V25.4824C0.801491 25.4824 0.814047 25.4824 0.818231 25.4993L0.788939 25.4929Z" fill="#62412B"/>
<path d="M11.4082 25.4929V25.4824C11.4143 25.4803 11.421 25.4807 11.4268 25.4834C11.4326 25.4862 11.4372 25.4911 11.4396 25.4972L11.4082 25.4929Z" fill="#62412B"/>
<path d="M3.90191 20.0327C3.85345 20.032 3.80571 20.0206 3.76201 19.9995C3.7183 19.9783 3.67967 19.9478 3.64877 19.9101C3.63313 19.8896 3.62189 19.866 3.61577 19.8409C3.60965 19.8158 3.60877 19.7897 3.6132 19.7642C3.6132 19.519 3.6132 19.2717 3.6132 19.0243C3.61555 18.9831 3.62115 18.9421 3.62994 18.9017C3.63306 18.8866 3.6403 18.8727 3.65086 18.8615C3.70733 18.8035 3.78057 18.765 3.86006 18.7516C3.90118 18.7495 3.94238 18.7495 3.9835 18.7516H11.6153C11.703 18.7575 11.7852 18.7968 11.8454 18.8615C11.8914 18.9017 11.8852 18.9672 11.8873 19.0222C11.8873 19.2717 11.8873 19.5211 11.8873 19.7705C11.8874 19.8066 11.8801 19.8423 11.8659 19.8754C11.8517 19.9086 11.8309 19.9383 11.8048 19.963C11.7786 19.9876 11.7478 20.0065 11.7141 20.0184C11.6804 20.0304 11.6446 20.0353 11.609 20.0327H3.90191Z" fill="#62412B"/>
<path d="M7.73873 11.801C7.71716 11.8474 7.70169 11.8965 7.69271 11.9469C7.67178 12.0991 7.66551 12.2513 7.65923 12.4035C7.6526 12.5216 7.63651 12.639 7.61112 12.7544C7.57283 12.9181 7.5511 13.0852 7.54627 13.2533C7.54235 13.3712 7.52479 13.4883 7.49396 13.6021C7.49396 13.6317 7.47722 13.6613 7.47095 13.693C7.46723 13.7306 7.44924 13.7652 7.42076 13.7897C7.39228 13.8141 7.35552 13.8264 7.31823 13.8241C6.8517 13.8241 6.38727 13.8241 5.92283 13.8241C5.82869 13.8241 5.80149 13.7881 5.7994 13.6951C5.79999 13.6401 5.81286 13.5859 5.83706 13.5366C5.87533 13.4469 5.89729 13.3509 5.90191 13.2533C5.90561 13.1889 5.91902 13.1255 5.94166 13.0652C5.99005 12.9515 6.01633 12.8295 6.01906 12.7058C6.02738 12.6263 6.04785 12.5486 6.07974 12.4754C6.10646 12.3999 6.12197 12.3208 6.12576 12.2407C6.14009 12.0897 6.17823 11.942 6.23873 11.8032C6.24684 11.7781 6.26213 11.756 6.28267 11.7397L6.6404 11.41C6.73664 11.3191 6.82869 11.2239 6.92701 11.1309C7.063 11.0041 7.20526 10.8815 7.34542 10.7504C7.45024 10.6593 7.54815 10.5604 7.63832 10.4545C7.6704 10.4226 7.7136 10.4047 7.75861 10.4047C7.80361 10.4047 7.84681 10.4226 7.8789 10.4545C7.94983 10.5356 8.02676 10.6113 8.10903 10.6807C8.14878 10.7187 8.18852 10.761 8.23036 10.799L8.46677 11.0104L8.71572 11.2472C8.88936 11.4079 9.05044 11.577 9.22827 11.7313C9.2476 11.7478 9.26268 11.7689 9.27221 11.7926C9.33501 11.9372 9.37253 12.0917 9.38309 12.2492C9.39209 12.3518 9.41679 12.4523 9.4563 12.5473C9.47924 12.6154 9.49125 12.6867 9.49187 12.7586C9.49528 12.8544 9.51732 12.9485 9.55672 13.0356C9.58525 13.1123 9.60286 13.1927 9.60902 13.2744C9.61554 13.3618 9.63603 13.4474 9.66969 13.5281C9.69859 13.5856 9.71228 13.6497 9.70944 13.7141C9.70944 13.7797 9.68015 13.8114 9.61948 13.8198C9.59652 13.822 9.57341 13.822 9.55045 13.8198H8.20107C8.1624 13.8235 8.12383 13.8119 8.09342 13.7874C8.06302 13.763 8.04312 13.7277 8.03789 13.6888C8.00536 13.5593 7.98022 13.428 7.96258 13.2956C7.95941 13.2414 7.95941 13.187 7.96258 13.1328C7.95416 13.0067 7.93527 12.8815 7.9061 12.7586C7.87609 12.6196 7.85859 12.4781 7.8538 12.3359C7.85105 12.1986 7.83987 12.0616 7.82032 11.9258C7.81665 11.9002 7.80743 11.8757 7.79333 11.8542C7.77923 11.8326 7.76058 11.8145 7.73873 11.801Z" fill="#FFCE23"/>
<path d="M7.74709 15.3017C7.01278 15.3017 6.28265 15.3017 5.54835 15.3017C5.48772 15.3041 5.42772 15.2886 5.37569 15.2571C5.32367 15.2255 5.28188 15.1793 5.25546 15.1241C5.23244 15.0725 5.22446 15.0153 5.23245 14.9592C5.23764 14.8762 5.23764 14.7929 5.23245 14.7098C5.23245 14.5978 5.23245 14.4836 5.23245 14.3695C5.2261 14.3059 5.2379 14.2419 5.26645 14.185C5.295 14.128 5.3391 14.0805 5.39354 14.0481C5.43302 14.0238 5.47937 14.0134 5.52534 14.0185H9.81404C9.89089 14.0126 9.96817 14.0161 10.0442 14.0291C10.0739 14.0334 10.1016 14.0467 10.1237 14.0672L10.2011 14.1454C10.2181 14.163 10.2314 14.1838 10.2404 14.2067C10.2494 14.2295 10.2538 14.254 10.2534 14.2786C10.2534 14.4709 10.2534 14.6654 10.2534 14.8599C10.2586 14.9183 10.2586 14.977 10.2534 15.0353C10.2489 15.0891 10.2293 15.1404 10.1969 15.1833C10.1691 15.222 10.1326 15.2535 10.0904 15.2752C10.0482 15.2969 10.0015 15.3081 9.9542 15.308C9.23035 15.2996 8.48559 15.3017 7.74709 15.3017Z" fill="#FFCE23"/>
<path d="M10.0442 18.5508H9.0881C9.02325 18.5508 8.97931 18.5149 8.97513 18.4536C8.9544 18.3215 8.9229 18.1914 8.88098 18.0646C8.86851 17.999 8.86012 17.9326 8.85588 17.8659C8.83899 17.7665 8.81308 17.6688 8.77847 17.5742C8.76214 17.5171 8.753 17.4581 8.75128 17.3987C8.74534 17.3009 8.72416 17.2045 8.68852 17.1133C8.65531 17.0217 8.63627 16.9255 8.63204 16.828C8.62466 16.7299 8.60207 16.6336 8.56509 16.5426C8.54243 16.4742 8.52837 16.4032 8.52324 16.3312C8.5191 16.2411 8.50219 16.1522 8.47304 16.067C8.4327 15.9698 8.41071 15.8658 8.40818 15.7604C8.40515 15.7247 8.39885 15.6893 8.38936 15.6547C8.37262 15.5765 8.38935 15.5406 8.47094 15.5173C8.51186 15.5005 8.55765 15.5005 8.59856 15.5173C8.61866 15.5206 8.63913 15.5206 8.65923 15.5173H9.91446C9.94188 15.5159 9.96916 15.5124 9.99605 15.5068C10.0797 15.4941 10.1571 15.5068 10.1822 15.6209C10.1911 15.6656 10.2073 15.7085 10.2304 15.7477C10.2661 15.8188 10.2867 15.8965 10.291 15.9761C10.2989 16.0431 10.3202 16.1079 10.3538 16.1663C10.3807 16.2188 10.3963 16.2764 10.3998 16.3354C10.4061 16.4051 10.4283 16.4724 10.4647 16.532C10.4855 16.5645 10.4984 16.6014 10.5023 16.6398C10.5115 16.7346 10.5392 16.8266 10.5839 16.9104C10.6122 16.974 10.6298 17.0418 10.6362 17.1112C10.6379 17.1316 10.6428 17.1516 10.6509 17.1704C10.7087 17.2733 10.7457 17.3869 10.7596 17.5044C10.7645 17.5188 10.7716 17.5324 10.7806 17.5446C10.8175 17.6061 10.8424 17.6743 10.8538 17.7454C10.8605 17.8075 10.882 17.867 10.9166 17.9187C10.9511 17.9732 10.9706 18.0359 10.973 18.1005C10.9782 18.144 10.994 18.1854 11.0191 18.221C11.0629 18.2879 11.0888 18.3651 11.0944 18.4451C11.0968 18.4593 11.0961 18.4739 11.0924 18.4878C11.0887 18.5018 11.0821 18.5147 11.0729 18.5258C11.0637 18.5368 11.0523 18.5458 11.0394 18.5519C11.0265 18.5581 11.0124 18.5613 10.9981 18.5614H10.0421L10.0442 18.5508Z" fill="#FFCE23"/>
<path d="M5.45002 18.5508H4.51696C4.42701 18.5508 4.38098 18.4916 4.40609 18.407C4.41593 18.3313 4.44315 18.2589 4.48559 18.1957C4.5077 18.1639 4.52073 18.1266 4.52324 18.0878C4.53322 18.0082 4.56036 17.9317 4.60274 17.8638C4.6279 17.8215 4.64227 17.7735 4.64458 17.7242C4.65133 17.6628 4.67133 17.6037 4.70315 17.5509C4.73284 17.4972 4.75269 17.4384 4.76174 17.3776C4.76871 17.3241 4.78575 17.2724 4.81194 17.2254C4.85002 17.1524 4.87415 17.0728 4.88307 16.9907C4.88859 16.9448 4.90432 16.9007 4.9291 16.8618C4.96329 16.8015 4.984 16.7344 4.98977 16.6652C4.99653 16.6038 5.01652 16.5446 5.04835 16.4918C5.07656 16.4427 5.0937 16.3878 5.09855 16.3312C5.10265 16.2572 5.12264 16.1851 5.15713 16.1198C5.19345 16.0489 5.21482 15.9711 5.21989 15.8915C5.22489 15.848 5.23545 15.8054 5.25128 15.7646C5.27928 15.7073 5.30305 15.6479 5.32241 15.5871C5.32668 15.5681 5.33483 15.5503 5.34632 15.5347C5.3578 15.5192 5.37238 15.5062 5.38912 15.4966C5.40586 15.4871 5.42439 15.4812 5.44352 15.4793C5.46266 15.4774 5.48197 15.4795 5.50023 15.4856C5.5351 15.4943 5.57104 15.4979 5.60692 15.4962H6.81613C6.85408 15.4978 6.89209 15.4943 6.9291 15.4856C6.9612 15.4771 6.9951 15.4789 7.02618 15.4906C7.05726 15.5023 7.08399 15.5235 7.10274 15.5511C7.10822 15.5586 7.11216 15.5672 7.11432 15.5763C7.11647 15.5854 7.11681 15.5948 7.11529 15.604C7.09878 15.6661 7.08965 15.73 7.0881 15.7942C7.08493 15.8591 7.07004 15.9229 7.04416 15.9824C6.99806 16.1293 6.96859 16.2811 6.9563 16.4348C6.94749 16.4797 6.93417 16.5236 6.91655 16.5658C6.88307 16.6772 6.8627 16.7921 6.85588 16.9083C6.84842 16.9697 6.83367 17.0301 6.81194 17.088C6.77799 17.1766 6.75753 17.27 6.75127 17.3649C6.74755 17.4626 6.72776 17.5591 6.6927 17.6503C6.65517 17.757 6.634 17.8689 6.62994 17.9821C6.62227 18.0545 6.60539 18.1256 6.57972 18.1935C6.55532 18.2619 6.53848 18.3328 6.52952 18.4049C6.51696 18.5022 6.4814 18.536 6.38308 18.536L5.45002 18.5508Z" fill="#FFCE23"/>
<path d="M8.69062 9.21995C8.6935 9.23497 8.69208 9.25051 8.68652 9.26474C8.68096 9.27897 8.67149 9.2913 8.65924 9.30028C8.52116 9.40386 8.4061 9.53492 8.27849 9.65119C8.15087 9.76746 8.06928 9.86258 7.9584 9.95348C7.92284 9.98308 7.90192 10.0254 7.86635 10.0549C7.8514 10.0735 7.83233 10.0882 7.81069 10.0979C7.78906 10.1076 7.76547 10.112 7.74183 10.1108C7.7182 10.1095 7.69518 10.1027 7.67465 10.0908C7.65412 10.0789 7.63666 10.0623 7.62367 10.0423C7.41447 9.83087 7.20527 9.63428 6.99606 9.43134C6.95244 9.38347 6.90407 9.34026 6.85171 9.30239C6.80568 9.27491 6.7994 9.22629 6.82242 9.16287C6.84282 9.11565 6.87532 9.07479 6.91656 9.04449C6.98982 8.97768 7.05964 8.90712 7.12577 8.8331C7.16551 8.79082 7.20736 8.75277 7.2492 8.71472C7.29104 8.67667 7.36426 8.6048 7.41865 8.54983C7.48757 8.49218 7.55064 8.42774 7.60694 8.35747C7.62043 8.33493 7.63922 8.3161 7.66162 8.30262C7.68402 8.28914 7.70935 8.28144 7.7354 8.28018C7.76144 8.27893 7.78738 8.28417 7.81095 8.29543C7.83452 8.3067 7.85498 8.32365 7.87054 8.34478C7.99815 8.49487 8.14878 8.61959 8.28895 8.76757C8.38628 8.8709 8.48893 8.96898 8.59648 9.0614C8.62383 9.078 8.64673 9.10115 8.66314 9.12879C8.67956 9.15644 8.689 9.18775 8.69062 9.21995Z" fill="#FFCE23"/>
<path d="M7.59438 10.2621C7.60484 10.3086 7.57137 10.334 7.53999 10.3572C7.461 10.4213 7.38751 10.492 7.32032 10.5686L7.17388 10.706C6.98351 10.8815 6.80149 11.0654 6.61321 11.2451C6.57362 11.2819 6.53657 11.3215 6.50233 11.3634C6.46087 11.4062 6.40467 11.4312 6.34543 11.4332C6.31614 11.4332 6.2994 11.4142 6.3015 11.3846C6.30084 11.356 6.30436 11.3275 6.31195 11.3C6.3415 11.199 6.35769 11.0946 6.36007 10.9893C6.36943 10.8708 6.39477 10.7542 6.43539 10.6426C6.45394 10.5815 6.46448 10.5183 6.46677 10.4545C6.47397 10.297 6.49924 10.1409 6.54208 9.98939C6.56732 9.90003 6.57999 9.80752 6.57974 9.71458C6.57974 9.64271 6.5902 9.57084 6.59648 9.50319C6.60903 9.3827 6.70317 9.37635 6.79522 9.43554C6.82431 9.45722 6.8516 9.48125 6.87681 9.50742C7.06928 9.69767 7.26174 9.88793 7.45631 10.0761C7.47227 10.0919 7.48979 10.1061 7.50861 10.1183C7.55439 10.1534 7.58509 10.2048 7.59438 10.2621Z" fill="#FFCE23"/>
<path d="M9.20108 11.3592C9.20108 11.4248 9.18853 11.4332 9.13204 11.4227C9.06738 11.4084 9.00967 11.3717 8.96886 11.3191C8.89145 11.2303 8.79941 11.1542 8.71572 11.0696C8.63204 10.9851 8.48978 10.8582 8.37681 10.742C8.32033 10.687 8.26384 10.6321 8.20108 10.5813C8.13831 10.5306 8.11949 10.4968 8.07556 10.4587C8.04043 10.4211 8.00112 10.3878 7.9584 10.3594C7.89983 10.3213 7.89355 10.279 7.92074 10.2114C7.93531 10.173 7.95902 10.1389 7.98978 10.112C8.1174 10.0063 8.22618 9.88161 8.34752 9.77168C8.46886 9.66176 8.57347 9.56029 8.68435 9.44191C8.70248 9.42348 8.72472 9.40971 8.7492 9.40175C8.83288 9.37004 8.90401 9.40175 8.90401 9.49899C8.90401 9.59623 8.92284 9.6681 8.92284 9.75266C8.92684 9.85844 8.94586 9.96309 8.97932 10.0634C9.01062 10.1778 9.0275 10.2957 9.02953 10.4143C9.03559 10.5171 9.05457 10.6187 9.08601 10.7166C9.11722 10.8066 9.13622 10.9005 9.1425 10.9956C9.14763 11.1043 9.16447 11.212 9.19271 11.317C9.19468 11.3312 9.19747 11.3453 9.20108 11.3592Z" fill="#FFCE23"/>
<path d="M7.76594 7.98542C7.73843 7.98778 7.7108 7.98278 7.68582 7.9709C7.66084 7.95902 7.63941 7.9407 7.62368 7.91777C7.56919 7.84721 7.5067 7.78336 7.43748 7.72752C7.39146 7.68524 7.35171 7.63873 7.30778 7.59646C7.23375 7.53046 7.16388 7.45986 7.09857 7.38506C7.08627 7.3747 7.0766 7.36151 7.07037 7.3466C7.06414 7.33169 7.06153 7.31549 7.06275 7.29935C7.06398 7.28321 7.06902 7.2676 7.07743 7.25383C7.08585 7.24006 7.0974 7.22852 7.11112 7.22018C7.18463 7.15363 7.25447 7.08306 7.32033 7.00878C7.41656 6.91577 7.51071 6.81853 7.60485 6.72552C7.62129 6.70891 7.63666 6.69125 7.65088 6.67267C7.66502 6.65576 7.68263 6.64217 7.70251 6.63285C7.72238 6.62352 7.74403 6.61869 7.76594 6.61869C7.78785 6.61869 7.80949 6.62352 7.82937 6.63285C7.84924 6.64217 7.86686 6.65576 7.881 6.67267C7.97932 6.78682 8.0902 6.88406 8.1948 6.99187L8.3538 7.15042L8.42284 7.21172C8.43556 7.22006 8.44625 7.2312 8.45409 7.24431C8.46194 7.25742 8.46675 7.27216 8.46816 7.28741C8.46957 7.30266 8.46754 7.31804 8.46223 7.33239C8.45692 7.34674 8.44845 7.35969 8.43748 7.37027C8.37244 7.44531 8.30255 7.51593 8.22828 7.58166C8.13623 7.67467 8.03999 7.76346 7.94585 7.85435C7.92911 7.87338 7.91447 7.89663 7.89774 7.91566C7.88485 7.93897 7.86552 7.95798 7.84211 7.97037C7.81871 7.98276 7.79224 7.98799 7.76594 7.98542Z" fill="#FFCE23"/>
<path d="M6.70317 8.83308C6.7102 8.72967 6.7263 8.6271 6.75128 8.52656C6.76802 8.44623 6.78685 8.36802 6.79731 8.28557C6.81195 8.16508 6.80777 8.04459 6.82032 7.92409C6.83237 7.80876 6.85193 7.69436 6.8789 7.58164C6.89145 7.53302 6.91865 7.50765 6.96676 7.51399C6.98973 7.51247 7.01269 7.51714 7.03328 7.52755C7.05386 7.53795 7.07134 7.5537 7.08392 7.57318C7.12747 7.6404 7.18193 7.69972 7.24501 7.74864C7.2993 7.80733 7.3573 7.86241 7.41865 7.91352C7.46467 7.94946 7.50233 7.99385 7.54835 8.02979C7.56428 8.04459 7.57677 8.06277 7.58492 8.08302C7.59306 8.10328 7.59667 8.12511 7.59547 8.14694C7.59427 8.16877 7.58829 8.19006 7.57798 8.20928C7.56766 8.2285 7.55326 8.24517 7.5358 8.25809C7.39354 8.38281 7.26384 8.51811 7.12785 8.64917C7.02744 8.7443 6.93329 8.84577 6.83496 8.94301C6.81613 8.96203 6.79522 8.9874 6.76175 8.97471C6.74579 8.9697 6.73168 8.95998 6.72124 8.94679C6.7108 8.9336 6.7045 8.91756 6.70317 8.90073C6.69893 8.87838 6.69893 8.85543 6.70317 8.83308Z" fill="#FFCE23"/>
<path d="M8.79731 8.84788C8.79841 8.86618 8.79841 8.88454 8.79731 8.90284C8.79571 8.91959 8.78932 8.9355 8.77892 8.94864C8.76852 8.96178 8.75455 8.97157 8.73874 8.97683C8.70736 8.97683 8.68853 8.96415 8.67179 8.94724C8.59229 8.87113 8.51489 8.7908 8.43748 8.7147L8.03581 8.31729L7.98351 8.27289C7.96156 8.25509 7.94339 8.233 7.93009 8.20794C7.91679 8.18287 7.90863 8.15536 7.90611 8.12703C7.90318 8.10749 7.90622 8.08752 7.91482 8.06977C7.92342 8.05202 7.93716 8.03734 7.95422 8.02768C8.02014 7.97973 8.08112 7.9252 8.13623 7.86491C8.21572 7.79726 8.28894 7.71905 8.36426 7.65351C8.38485 7.63103 8.40374 7.607 8.42075 7.58164C8.44034 7.55782 8.46666 7.5406 8.49619 7.53229C8.52572 7.52398 8.55706 7.52497 8.58602 7.53513C8.59584 7.54103 8.60428 7.54898 8.61077 7.55847C8.61727 7.56795 8.62167 7.57874 8.62368 7.5901C8.62368 7.67888 8.66133 7.76555 8.6697 7.85645C8.68016 7.97906 8.68434 8.10378 8.69271 8.22639C8.70621 8.3541 8.72929 8.4806 8.76175 8.60478C8.78424 8.68386 8.7962 8.76561 8.79731 8.84788Z" fill="#FFCE23"/>
<path d="M7.74919 6.33021C7.73032 6.33189 7.71132 6.32892 7.69383 6.32156C7.67634 6.3142 7.66088 6.30265 7.64877 6.28793C7.52953 6.16743 7.40819 6.04694 7.29103 5.92433C7.26433 5.89617 7.23918 5.86652 7.21572 5.83555C7.20875 5.83001 7.20313 5.82295 7.19926 5.81489C7.19539 5.80683 7.19338 5.798 7.19338 5.78904C7.19338 5.78009 7.19539 5.77125 7.19926 5.7632C7.20313 5.75514 7.20875 5.74808 7.21572 5.74254C7.25677 5.69599 7.3008 5.6522 7.34752 5.61147C7.41028 5.56285 7.46049 5.49943 7.52325 5.45081C7.54778 5.43199 7.56901 5.40912 7.58601 5.38317C7.61712 5.33806 7.66439 5.30697 7.71781 5.2965C7.74219 5.29257 7.76715 5.29475 7.7905 5.30286C7.81385 5.31097 7.83487 5.32476 7.8517 5.34301C7.97932 5.48041 8.12994 5.59456 8.25965 5.73197C8.31195 5.78904 8.31404 5.79961 8.25965 5.86092C8.12785 6.01946 7.97095 6.15475 7.83078 6.30695C7.81948 6.31626 7.80641 6.32312 7.79237 6.32712C7.77834 6.33112 7.76364 6.33217 7.74919 6.33021Z" fill="#FFCE23"/>
<path d="M7.76592 4.16978C7.78816 4.16895 7.8102 4.17421 7.82971 4.185C7.84923 4.19579 7.8655 4.21171 7.8768 4.23108C7.94235 4.31 8.01677 4.38094 8.09856 4.44247C8.14536 4.47967 8.17671 4.5332 8.18643 4.59256C8.18884 4.61341 8.18517 4.63452 8.17588 4.6533C8.16659 4.67207 8.15208 4.6877 8.13412 4.69826C8.03763 4.77077 7.94798 4.85215 7.86634 4.94136C7.84985 4.96025 7.82957 4.97539 7.80685 4.98575C7.78412 4.99612 7.75947 5.00148 7.73454 5.00148C7.70961 5.00148 7.68496 4.99612 7.66224 4.98575C7.63951 4.97539 7.61923 4.96025 7.60274 4.94136C7.53529 4.86125 7.45795 4.7902 7.37262 4.72997C7.35036 4.71657 7.33054 4.69941 7.31404 4.67923C7.30638 4.66726 7.30231 4.65332 7.30231 4.63907C7.30231 4.62482 7.30638 4.61087 7.31404 4.5989C7.33899 4.53678 7.37934 4.48219 7.43119 4.44036C7.49974 4.38236 7.56342 4.31873 7.62157 4.25011C7.63768 4.22619 7.65915 4.20645 7.68423 4.19249C7.70932 4.17853 7.7373 4.17075 7.76592 4.16978Z" fill="#FFCE23"/>
<path d="M6.9291 6.93055C6.94584 6.81217 6.96048 6.69168 6.9814 6.5733C7.00998 6.41615 7.02815 6.25726 7.0358 6.09767C7.03814 6.07237 7.04377 6.04749 7.05253 6.02368C7.07136 5.96026 7.12157 5.94546 7.1676 5.99197C7.21362 6.03848 7.28266 6.10401 7.33705 6.16108C7.39145 6.21816 7.50232 6.30906 7.56927 6.39784C7.63621 6.48663 7.64667 6.47817 7.56927 6.56273C7.41446 6.72127 7.26174 6.88193 7.09856 7.03202L7.07345 7.05105C7.04835 7.07007 7.01906 7.09755 6.9835 7.07853C6.96909 7.06965 6.95713 7.05725 6.94872 7.04247C6.94031 7.0277 6.93572 7.01101 6.93538 6.99397V6.93267L6.9291 6.93055Z" fill="#FFCE23"/>
<path d="M8.56719 6.94746C8.57056 6.98223 8.56248 7.01716 8.54418 7.04681C8.51907 7.08698 8.49606 7.09332 8.45841 7.06795C8.40058 7.02983 8.34785 6.98436 8.3015 6.93266C8.18853 6.81005 8.0651 6.70224 7.95213 6.58175L7.91447 6.54158C7.87681 6.49296 7.87472 6.4676 7.91447 6.41898C7.95432 6.37203 7.99694 6.32756 8.04209 6.2858C8.13623 6.1949 8.22828 6.09977 8.32033 6.00676C8.41238 5.91375 8.42702 5.95391 8.45631 6.04058C8.46739 6.09409 8.47231 6.14871 8.47096 6.20336C8.4856 6.36824 8.51908 6.53313 8.5379 6.69801C8.55581 6.77998 8.56562 6.86353 8.56719 6.94746Z" fill="#FFCE23"/>
<path d="M8.13622 3.48486C8.13843 3.50126 8.13694 3.51796 8.13187 3.5337C8.12679 3.54944 8.11827 3.56382 8.10694 3.57576C8.06194 3.62546 8.01371 3.67207 7.96258 3.71528C7.93165 3.74193 7.90422 3.77247 7.88099 3.80618C7.86514 3.82687 7.8446 3.8434 7.82108 3.85436C7.79757 3.86533 7.77179 3.8704 7.74593 3.86916C7.72006 3.86791 7.69487 3.86039 7.6725 3.84722C7.65013 3.83404 7.63122 3.81562 7.6174 3.79349C7.55882 3.71739 7.47932 3.66454 7.40819 3.59479C7.39157 3.5822 7.37829 3.56565 7.36956 3.5466C7.36082 3.52756 7.3569 3.50663 7.35814 3.48567C7.35939 3.46472 7.36576 3.44441 7.37668 3.42656C7.38761 3.40871 7.40275 3.39388 7.42074 3.38339C7.4884 3.32948 7.54887 3.26695 7.60066 3.19737C7.61535 3.17379 7.63573 3.15435 7.65988 3.14089C7.68402 3.12742 7.71115 3.12036 7.73873 3.12036C7.76631 3.12036 7.79345 3.12742 7.81759 3.14089C7.84174 3.15435 7.86211 3.17379 7.87681 3.19737C7.93992 3.27422 8.00996 3.34498 8.08601 3.40876C8.10016 3.416 8.11222 3.42681 8.12101 3.44014C8.12981 3.45348 8.13505 3.46888 8.13622 3.48486Z" fill="#FFCE23"/>
<path d="M8.43119 5.47619C8.43119 5.49733 8.43119 5.51847 8.41654 5.53749C8.41546 5.54431 8.41274 5.55075 8.40863 5.55626C8.40451 5.56177 8.39912 5.56618 8.39293 5.5691C8.38674 5.57202 8.37993 5.57336 8.37311 5.57301C8.36629 5.57266 8.35965 5.57063 8.35378 5.56709C8.2882 5.54677 8.22858 5.51047 8.18015 5.46139C8.11846 5.38949 8.04819 5.32558 7.97094 5.27114C7.94591 5.25174 7.92689 5.22551 7.91614 5.19554C7.90539 5.16557 7.90336 5.13312 7.91027 5.10202C7.91262 5.08695 7.91837 5.07263 7.92707 5.06017C7.93578 5.0477 7.94721 5.03743 7.96048 5.03015C8.03975 4.97498 8.11029 4.90799 8.16968 4.83144C8.18851 4.8103 8.20107 4.78494 8.23035 4.77648C8.25964 4.76803 8.31403 4.77648 8.33914 4.83567C8.35682 4.88941 8.36323 4.94629 8.35797 5.00267C8.36843 5.15276 8.39144 5.30073 8.41236 5.44871C8.41743 5.45866 8.42376 5.46789 8.43119 5.47619Z" fill="#FFCE23"/>
<path d="M7.57973 5.12951C7.58215 5.16 7.57645 5.19059 7.5632 5.2181C7.54996 5.24561 7.52966 5.26904 7.50442 5.28593C7.4338 5.33682 7.37045 5.39728 7.31614 5.46562C7.26865 5.51545 7.20862 5.55127 7.14249 5.5692C7.137 5.5712 7.13117 5.57207 7.12534 5.57177C7.11952 5.57147 7.11381 5.56999 7.10855 5.56743C7.10329 5.56488 7.09859 5.56128 7.09472 5.55687C7.09085 5.55245 7.08789 5.5473 7.08601 5.54172C7.07125 5.5056 7.06761 5.46582 7.07555 5.42757C7.10908 5.25815 7.13006 5.08645 7.13831 4.91388C7.13526 4.89925 7.13526 4.88413 7.13831 4.86949C7.15296 4.82721 7.16551 4.78494 7.21781 4.77437C7.27011 4.7638 7.29521 4.80396 7.32032 4.8399C7.37653 4.91007 7.44281 4.97135 7.51697 5.02169C7.55672 5.05129 7.59019 5.07877 7.57973 5.12951Z" fill="#FFCE23"/>
<path d="M7.15714 4.23531C7.17408 4.08088 7.18246 3.92561 7.18224 3.77024C7.18224 3.70682 7.21991 3.67934 7.27848 3.70048C7.34134 3.7137 7.39719 3.74981 7.43539 3.80195C7.45444 3.83295 7.4811 3.85844 7.51279 3.87594C7.53566 3.89291 7.55487 3.91441 7.56926 3.93912C7.58364 3.96383 7.5929 3.99124 7.59647 4.01969C7.60271 4.04019 7.6022 4.06219 7.59504 4.08238C7.58787 4.10258 7.57443 4.11989 7.55672 4.13172C7.5104 4.1628 7.46882 4.20054 7.43329 4.24376C7.38978 4.28743 7.34367 4.32837 7.29522 4.36637C7.28504 4.37577 7.27249 4.38217 7.25896 4.38487C7.24543 4.38756 7.23142 4.38645 7.21847 4.38165C7.20552 4.37685 7.19412 4.36855 7.18552 4.35766C7.17692 4.34676 7.17144 4.33369 7.16969 4.31986C7.16309 4.2921 7.15889 4.2638 7.15714 4.23531Z" fill="#FFCE23"/>
<path d="M8.34124 4.22474C8.3445 4.2507 8.3445 4.27698 8.34124 4.30295C8.32241 4.38117 8.25756 4.39596 8.21572 4.35157C8.17388 4.30718 8.0881 4.2649 8.05044 4.19514C8.03066 4.16827 8.00485 4.14654 7.97513 4.13172C7.9584 4.11744 7.94495 4.09963 7.93572 4.07955C7.9265 4.05947 7.92171 4.0376 7.92171 4.01546C7.92171 3.99332 7.9265 3.97145 7.93572 3.95136C7.94495 3.93128 7.9584 3.91348 7.97513 3.89919C8.02095 3.85819 8.06426 3.81442 8.10484 3.76813C8.14826 3.727 8.20445 3.70234 8.26384 3.69837C8.30359 3.69837 8.32241 3.71528 8.3266 3.76601C8.33078 3.81675 8.3266 3.87594 8.3266 3.9309C8.33078 3.98225 8.33078 4.03387 8.3266 4.08522C8.3245 4.13172 8.3517 4.18246 8.34124 4.22474Z" fill="#FFCE23"/>
</svg>
