<svg width="65" height="70" viewBox="0 0 65 70" fill="none" xmlns="http://www.w3.org/2000/svg">
<rect x="0.5" y="0.5" width="64" height="69" rx="10.5" stroke="#62412B"/>
<path d="M16.5 63.1272C16.642 63.0339 16.7548 62.9019 16.8252 62.7464C16.8539 62.6501 16.9591 62.6019 17.0164 62.5199C17.179 62.2934 17.3703 62.0813 17.4946 61.8403C17.619 61.5993 17.772 61.421 17.9154 61.2138C18.0165 61.0212 18.1401 60.8416 18.2836 60.6788C18.3402 60.6365 18.3793 60.5747 18.3936 60.5053C18.3901 60.4894 18.3901 60.4729 18.3936 60.4571C18.5562 60.298 18.604 60.0618 18.7618 59.9028C18.7618 59.9028 18.8096 59.8594 18.8144 59.8353C18.8909 59.6329 19.0583 59.4883 19.1396 59.2907C19.1709 59.2218 19.2128 59.1583 19.2639 59.1027C19.3248 59.0391 19.3692 58.9613 19.393 58.8762C19.3881 58.8589 19.3881 58.8405 19.393 58.8232C19.5291 58.6343 19.6522 58.4363 19.7612 58.2303C19.8066 58.168 19.8466 58.1019 19.8808 58.0327C19.9097 57.9439 19.9588 57.863 20.0242 57.7966C20.0611 57.7669 20.0906 57.729 20.1103 57.6857C20.1485 57.4158 20.4115 57.2519 20.4498 56.982C20.4584 56.9473 20.4786 56.9166 20.5072 56.8953C20.5721 56.8341 20.6213 56.7581 20.6506 56.6736C20.6894 56.5382 20.7599 56.4142 20.8563 56.3121C20.8746 56.2896 20.8877 56.2633 20.8945 56.235C20.9369 56.0939 21.0068 55.9629 21.1001 55.8494C21.1387 55.7984 21.165 55.739 21.1766 55.6759C21.2103 55.5502 21.2706 55.4334 21.3536 55.3337C21.3942 55.2908 21.4223 55.2374 21.4349 55.1794C21.4715 55.0477 21.5369 54.9259 21.6261 54.8228C21.6261 54.8228 21.6261 54.8228 21.65 54.7987C21.7385 54.5569 21.844 54.3217 21.9656 54.095C22.0022 53.9642 22.0657 53.8426 22.1521 53.7383C22.2105 53.6513 22.2496 53.5527 22.2669 53.4492C22.2824 53.3918 22.3084 53.3379 22.3434 53.2901C22.4225 53.1892 22.4796 53.0726 22.5108 52.9479C22.5285 52.8367 22.5804 52.7339 22.659 52.6539C22.6779 52.631 22.6924 52.6049 22.702 52.5768C22.7723 52.334 22.8753 52.1021 23.0081 51.8876C23.0227 51.8572 23.0323 51.8246 23.0368 51.7912C23.0464 51.7017 23.0892 51.6192 23.1565 51.5602C23.2239 51.5012 23.311 51.4701 23.4002 51.4731H41.5281C41.6197 51.4677 41.7097 51.4983 41.7793 51.5586C41.8489 51.6188 41.8926 51.7039 41.9011 51.796C41.9224 51.9055 41.97 52.0081 42.0398 52.0948C42.1075 52.1761 42.1521 52.2744 42.1689 52.3792C42.1924 52.5028 42.2485 52.6176 42.3314 52.7117C42.3916 52.8053 42.4323 52.9103 42.451 53.0202C42.4635 53.083 42.4896 53.1423 42.5275 53.1937C42.6046 53.2905 42.6616 53.4019 42.6949 53.5215C42.7407 53.6339 42.7934 53.7433 42.8527 53.8492C42.9674 54.095 43.1013 54.3312 43.2113 54.5866C43.2415 54.6981 43.2954 54.8017 43.3691 54.8903C43.3691 54.8903 43.3691 54.8903 43.3691 54.9192C43.4552 55.2084 43.6704 55.4349 43.7517 55.7241C43.7598 55.7658 43.7798 55.8043 43.809 55.8349C43.8982 55.9362 43.9636 56.0565 44.0003 56.1868C44.0003 56.2253 44.0003 56.2783 44.0577 56.3121C44.182 56.4181 44.2059 56.5868 44.292 56.7169C44.3781 56.8471 44.4641 57.0881 44.5885 57.2471C44.7128 57.4062 44.7415 57.5941 44.861 57.7291C44.9806 57.864 44.9949 57.9701 45.0714 58.0713C45.1827 58.2831 45.3073 58.4876 45.4444 58.6834C45.5039 58.7348 45.5415 58.8073 45.5496 58.8858C45.5519 58.9152 45.5618 58.9434 45.5783 58.9678C45.7147 59.1374 45.8348 59.3198 45.9369 59.5124C46.066 59.7389 46.2382 59.9414 46.353 60.1775C46.353 60.1775 46.353 60.2113 46.3817 60.2209C46.5299 60.3751 46.5825 60.592 46.7355 60.7414C46.8012 60.801 46.8492 60.8777 46.8742 60.9631C46.8981 61.0499 46.9937 61.0885 47.0224 61.1607C47.1181 61.3921 47.3428 61.5367 47.4193 61.7777C47.4193 61.8162 47.4719 61.8403 47.5006 61.8693C47.5293 61.8982 47.5532 61.9174 47.5723 61.9464C47.7242 62.2036 47.9021 62.4442 48.1031 62.6645C48.1748 62.7561 48.1892 62.891 48.2944 62.9537C48.3526 62.9927 48.4003 63.0457 48.4331 63.1079V63.32C48.4044 63.3586 48.4331 63.4164 48.3661 63.4405C48.2992 63.4646 48.2848 63.4405 48.2561 63.4646H40.9495C40.9208 63.4357 40.8778 63.4646 40.8443 63.4357C40.7939 63.4096 40.7531 63.3679 40.7282 63.3167C40.7032 63.2654 40.6953 63.2074 40.7056 63.1513C40.7653 62.4912 40.7845 61.828 40.763 61.1656C40.7733 60.9284 40.7475 60.6911 40.6865 60.4619C40.5956 60.1149 40.543 59.7486 40.4283 59.4112C40.3434 59.0757 40.2181 58.752 40.0553 58.4472C39.9453 58.2737 39.8879 58.0713 39.7923 57.8881C39.4879 57.3362 39.1273 56.8177 38.7164 56.341C38.2478 55.8127 37.7161 55.3449 37.1336 54.9481C36.8073 54.7082 36.4562 54.5046 36.0864 54.3408C35.7708 54.2107 35.4552 54.0613 35.13 53.9552C34.6586 53.8177 34.1796 53.7083 33.6955 53.6275C33.4383 53.5655 33.1755 53.53 32.9112 53.5215C32.4478 53.4926 31.9826 53.5168 31.5245 53.5937C31.2233 53.666 30.9124 53.7046 30.6064 53.748C30.4897 53.7659 30.3757 53.7983 30.2669 53.8444C30.1091 53.9223 29.9393 53.9729 29.7648 53.9938C29.7229 53.9953 29.6819 54.0068 29.6453 54.0275C29.1784 54.2311 28.7234 54.4612 28.2824 54.7167C27.9955 54.9095 27.6943 55.083 27.4265 55.2999C27.033 55.5994 26.6723 55.9403 26.3506 56.3169C26.1497 56.5627 25.9441 56.7989 25.7528 57.064C25.5616 57.329 25.4755 57.5459 25.332 57.7532C25.0588 58.2493 24.8254 58.7667 24.6339 59.3003C24.6311 59.3227 24.6311 59.3454 24.6339 59.3678C24.5622 59.8498 24.4044 60.2739 24.3183 60.7318C24.3112 60.8087 24.3112 60.8862 24.3183 60.9631V62.4524C24.31 62.6657 24.3261 62.8791 24.3661 63.0886C24.3779 63.1269 24.3821 63.1672 24.3783 63.2071C24.3746 63.247 24.3631 63.2858 24.3444 63.3212C24.3257 63.3566 24.3003 63.3879 24.2695 63.4134C24.2388 63.4388 24.2034 63.4578 24.1653 63.4694H16.6769C16.6769 63.4453 16.6243 63.4694 16.5956 63.4405C16.567 63.4116 16.5335 63.3634 16.5 63.3248V63.1272Z" fill="#FBCA20"/>
<path d="M32.7295 6.53374C32.7826 6.56523 32.8253 6.61167 32.8525 6.66733C32.8797 6.72299 32.8901 6.78546 32.8825 6.84703V8.92434C32.8825 9.15086 32.8825 9.17497 33.1168 9.17497H33.595C33.6336 9.17041 33.6727 9.17406 33.7097 9.18568C33.7468 9.1973 33.781 9.21664 33.8102 9.24244C33.9736 9.38591 34.0791 9.58485 34.1067 9.80153C34.1067 10.0714 34.1354 10.3413 34.1641 10.6112C34.1881 10.7563 34.2025 10.9028 34.2071 11.0498C34.2148 11.138 34.1968 11.2266 34.1551 11.3045C34.1135 11.3825 34.0501 11.4464 33.9728 11.4884C33.9728 11.4884 33.9345 11.5222 33.9154 11.527C33.6189 11.6282 33.6476 11.7391 33.6811 12.0716C33.705 12.2789 33.6811 12.4861 33.6811 12.6934C33.6811 12.7609 33.6381 12.785 33.5807 12.7898C33.5072 12.8014 33.4321 12.7906 33.3647 12.7588C33.2974 12.727 33.2411 12.6757 33.2029 12.6114C33.1595 12.5356 33.0989 12.4712 33.026 12.4235C32.9432 12.3662 32.8837 12.2806 32.8586 12.1825C32.8156 12.0042 32.8299 11.9222 32.983 11.821C33.0547 11.7776 33.136 11.7391 33.0929 11.633C33.0499 11.527 32.959 11.5511 32.8634 11.5897C32.8147 11.6106 32.7683 11.6364 32.7247 11.6668C32.6533 11.7127 32.5703 11.7371 32.4856 11.7371C32.4009 11.7371 32.318 11.7127 32.2465 11.6668C32.1716 11.6119 32.081 11.5831 31.9883 11.5848C31.9357 11.5848 31.8927 11.5848 31.8736 11.6475C31.8646 11.6701 31.864 11.6952 31.8719 11.7182C31.8798 11.7413 31.8957 11.7606 31.9166 11.7728L31.974 11.8162C32.0505 11.874 32.1414 11.9222 32.1366 12.0475C32.1401 12.1153 32.1277 12.183 32.1003 12.245C32.0728 12.307 32.0312 12.3616 31.9788 12.4042C31.8864 12.4659 31.8095 12.5484 31.754 12.6452C31.7281 12.6843 31.6942 12.7174 31.6547 12.7423C31.6151 12.7672 31.5707 12.7834 31.5245 12.7898C31.3237 12.8283 31.2902 12.7898 31.2902 12.5922C31.2846 12.3507 31.2958 12.1091 31.3237 11.8692C31.336 11.8074 31.3252 11.7432 31.2935 11.689C31.2617 11.6347 31.2111 11.5942 31.1515 11.5752C31.0849 11.538 31.021 11.4961 30.9602 11.4499C30.9112 11.4185 30.8701 11.376 30.8402 11.3258C30.8103 11.2756 30.7925 11.2191 30.7881 11.1607C30.7666 11.025 30.7666 10.8867 30.7881 10.751C30.8209 10.5924 30.8385 10.431 30.8407 10.269C30.8407 10.0859 30.8407 9.90275 30.8742 9.7196C30.9215 9.52846 31.0309 9.35879 31.185 9.23762C31.2119 9.2148 31.2432 9.19787 31.277 9.18791C31.3107 9.17795 31.3462 9.17518 31.381 9.17978H31.8592C32.0935 9.17978 32.1174 9.15569 32.1174 8.92916C32.1174 8.24475 32.1174 7.55553 32.1174 6.87112C32.1065 6.80659 32.1153 6.74023 32.1426 6.68084C32.1699 6.62144 32.2145 6.57183 32.2705 6.53856C32.2992 6.50482 32.3518 6.53856 32.3805 6.50482H32.5908C32.653 6.53374 32.7008 6.5 32.7295 6.53374Z" fill="#62412B"/>
<path d="M16.5 63.3393L16.61 63.4453C16.61 63.4453 16.61 63.4453 16.61 63.4694C16.5 63.4839 16.5 63.4839 16.5 63.3393Z" fill="#FBCA20"/>
<path d="M48.4235 63.4598L48.5 63.3537C48.4976 63.3842 48.4976 63.4148 48.5 63.4453C48.5 63.5176 48.4617 63.4935 48.4283 63.4983C48.3948 63.5031 48.4283 63.4983 48.4283 63.4742C48.4283 63.4501 48.4187 63.4598 48.4235 63.4598Z" fill="#FBCA20"/>
<path d="M32.4139 6.5C32.4139 6.5482 32.3422 6.52892 32.3039 6.53374C32.3065 6.52848 32.3078 6.52272 32.3078 6.51687C32.3078 6.51103 32.3065 6.50526 32.3039 6.5H32.4139Z" fill="#62412B"/>
<path d="M32.7295 6.53374C32.6913 6.53374 32.6482 6.53374 32.6243 6.5H32.7295C32.727 6.50526 32.7257 6.51103 32.7257 6.51687C32.7257 6.52272 32.727 6.52849 32.7295 6.53374Z" fill="#62412B"/>
<path d="M48.4235 63.4598L48.4235 63.4984H48.3326C48.3326 63.4598 48.3852 63.4598 48.4235 63.4598Z" fill="#FBCA20"/>
<path d="M16.6052 63.4839V63.4598C16.6339 63.4598 16.6626 63.4598 16.6721 63.4984L16.6052 63.4839Z" fill="#FBCA20"/>
<path d="M40.8778 63.4839V63.4598C40.8917 63.455 40.907 63.4559 40.9203 63.4622C40.9337 63.4685 40.9441 63.4797 40.9495 63.4935L40.8778 63.4839Z" fill="#FBCA20"/>
<path d="M23.7205 51.0345C23.6098 51.0329 23.5007 51.0071 23.4008 50.9588C23.3009 50.9105 23.2126 50.841 23.1419 50.7549C23.1062 50.7082 23.0805 50.6545 23.0665 50.5973C23.0525 50.54 23.0505 50.4804 23.0606 50.4224C23.0606 49.8633 23.0606 49.2994 23.0606 48.7355C23.066 48.6414 23.0788 48.5479 23.0989 48.4559C23.106 48.4215 23.1226 48.3897 23.1467 48.3643C23.2758 48.2319 23.4432 48.1441 23.6249 48.1137C23.7189 48.1089 23.8131 48.1089 23.907 48.1137H41.3511C41.5516 48.1271 41.7396 48.2167 41.8772 48.3643C41.9824 48.4559 41.968 48.6053 41.9728 48.7306C41.9728 49.2994 41.9728 49.8681 41.9728 50.4368C41.973 50.5191 41.9564 50.6005 41.9239 50.676C41.8915 50.7515 41.8439 50.8194 41.7842 50.8755C41.7245 50.9316 41.6539 50.9747 41.577 51.0021C41.5 51.0294 41.4182 51.0404 41.3368 51.0345H23.7205Z" fill="#FBCA20"/>
<path d="M32.4904 32.2664C32.4411 32.3721 32.4058 32.4839 32.3852 32.5989C32.3374 32.946 32.3231 33.293 32.3087 33.64C32.2935 33.9092 32.2568 34.1768 32.1987 34.4401C32.1112 34.8132 32.0616 35.1943 32.0505 35.5775C32.0415 35.8464 32.0014 36.1133 31.931 36.3728C31.931 36.4403 31.8927 36.5077 31.8783 36.58C31.8699 36.6657 31.8287 36.7447 31.7636 36.8004C31.6985 36.8562 31.6145 36.8843 31.5293 36.8789C30.4629 36.8789 29.4014 36.8789 28.3398 36.8789C28.1246 36.8789 28.0625 36.7969 28.0577 36.5849C28.059 36.4594 28.0884 36.3358 28.1437 36.2234C28.2312 36.0188 28.2814 35.8 28.292 35.5775C28.3004 35.4307 28.3311 35.2861 28.3828 35.1486C28.4934 34.8894 28.5535 34.6113 28.5598 34.3292C28.5788 34.1479 28.6256 33.9707 28.6984 33.8039C28.7595 33.6318 28.795 33.4515 28.8036 33.2689C28.8364 32.9246 28.9236 32.5878 29.0619 32.2712C29.0804 32.214 29.1153 32.1637 29.1623 32.1266L29.98 31.3747C30.1999 31.1675 30.4103 30.9506 30.6351 30.7385C30.9459 30.4493 31.2711 30.1698 31.5914 29.871C31.831 29.6632 32.0548 29.4377 32.2609 29.1962C32.3342 29.1235 32.433 29.0827 32.5359 29.0827C32.6387 29.0827 32.7375 29.1235 32.8108 29.1962C32.9729 29.3813 33.1488 29.5537 33.3368 29.7119C33.4277 29.7987 33.5185 29.8951 33.6142 29.9818L34.1545 30.4638L34.7235 31.0036C35.1204 31.3699 35.4886 31.7555 35.8951 32.1073C35.9393 32.1451 35.9737 32.193 35.9955 32.2471C36.1391 32.5767 36.2248 32.929 36.2489 33.2882C36.2695 33.522 36.326 33.7513 36.4163 33.9677C36.4687 34.123 36.4962 34.2857 36.4976 34.4497C36.5054 34.6679 36.5558 34.8825 36.6458 35.0811C36.711 35.256 36.7513 35.4394 36.7654 35.6257C36.7803 35.8248 36.8271 36.0201 36.9041 36.2041C36.9701 36.3352 37.0014 36.4813 36.9949 36.6282C36.9949 36.7777 36.928 36.85 36.7893 36.8692C36.7368 36.874 36.684 36.874 36.6315 36.8692H33.5472C33.4588 36.8775 33.3707 36.851 33.3012 36.7954C33.2316 36.7397 33.1862 36.6591 33.1742 36.5704C33.0999 36.2752 33.0424 35.9758 33.0021 35.6739C32.9948 35.5503 32.9948 35.4264 33.0021 35.3028C32.9828 35.0153 32.9397 34.7299 32.873 34.4497C32.8044 34.1327 32.7644 33.8101 32.7534 33.4858C32.7471 33.1728 32.7216 32.8605 32.6769 32.5507C32.6685 32.4924 32.6475 32.4367 32.6152 32.3875C32.583 32.3384 32.5404 32.297 32.4904 32.2664Z" fill="#62412B"/>
<path d="M32.5095 40.2479C30.8311 40.2479 29.1623 40.2479 27.4838 40.2479C27.3453 40.2534 27.2081 40.218 27.0892 40.1461C26.9703 40.0742 26.8748 39.9688 26.8144 39.843C26.7618 39.7253 26.7435 39.5949 26.7618 39.4671C26.7736 39.2777 26.7736 39.0877 26.7618 38.8983C26.7618 38.6429 26.7618 38.3826 26.7618 38.1224C26.7473 37.9775 26.7742 37.8316 26.8395 37.7017C26.9048 37.5719 27.0056 37.4636 27.13 37.3898C27.2202 37.3343 27.3262 37.3106 27.4312 37.3223H37.234C37.4096 37.3086 37.5863 37.3167 37.76 37.3464C37.8279 37.3561 37.8912 37.3864 37.9417 37.4331L38.1186 37.6115C38.1575 37.6516 38.188 37.6991 38.2086 37.7512C38.2291 37.8033 38.2391 37.859 38.2382 37.9151C38.2382 38.3537 38.2382 38.7971 38.2382 39.2405C38.2502 39.3736 38.2502 39.5075 38.2382 39.6406C38.2279 39.7631 38.1831 39.8802 38.1091 39.978C38.0455 40.0662 37.9621 40.138 37.8657 40.1874C37.7692 40.2369 37.6625 40.2625 37.5544 40.2623C35.8998 40.243 34.1975 40.2479 32.5095 40.2479Z" fill="#62412B"/>
<path d="M37.76 47.6559H35.5747C35.4265 47.6559 35.326 47.5739 35.3165 47.4341C35.2691 47.1331 35.1971 46.8364 35.1013 46.5473C35.0728 46.3977 35.0536 46.2463 35.0439 46.0943C35.0053 45.8675 34.9461 45.6449 34.867 45.4291C34.8296 45.299 34.8088 45.1645 34.8048 45.0291C34.7912 44.8059 34.7428 44.5864 34.6614 44.3784C34.5855 44.1695 34.5419 43.95 34.5323 43.7278C34.5154 43.5041 34.4638 43.2846 34.3792 43.0771C34.3274 42.9211 34.2953 42.7592 34.2836 42.5951C34.2741 42.3898 34.2355 42.1869 34.1688 41.9927C34.0766 41.771 34.0264 41.534 34.0206 41.2938C34.0137 41.2123 33.9993 41.1316 33.9776 41.0528C33.9393 40.8745 33.9776 40.7925 34.1641 40.7395C34.2576 40.7012 34.3622 40.7012 34.4558 40.7395C34.5017 40.7469 34.5485 40.7469 34.5944 40.7395H37.4635C37.5262 40.7362 37.5885 40.7282 37.65 40.7154C37.8413 40.6865 38.0182 40.7154 38.0756 40.9757C38.0958 41.0777 38.133 41.1754 38.1856 41.2649C38.2672 41.4268 38.3144 41.6041 38.3242 41.7854C38.3422 41.9384 38.391 42.086 38.4677 42.2192C38.5291 42.3389 38.565 42.4702 38.5729 42.6048C38.5872 42.7637 38.638 42.9172 38.7211 43.053C38.7686 43.1269 38.7981 43.2112 38.8072 43.2988C38.8282 43.5149 38.8916 43.7246 38.9937 43.9157C39.0582 44.0607 39.0986 44.2154 39.1132 44.3736C39.117 44.4201 39.1284 44.4657 39.1467 44.5086C39.279 44.7432 39.3636 45.0021 39.3954 45.2701C39.4065 45.3029 39.4226 45.3338 39.4432 45.3617C39.5277 45.502 39.5845 45.6575 39.6106 45.8195C39.6259 45.961 39.6751 46.0967 39.754 46.2147C39.8331 46.3388 39.8776 46.4819 39.8831 46.6292C39.8949 46.7282 39.9311 46.8227 39.9883 46.904C40.0884 47.0565 40.1478 47.2325 40.1605 47.4149C40.166 47.4473 40.1645 47.4805 40.156 47.5123C40.1476 47.544 40.1323 47.5735 40.1114 47.5988C40.0905 47.624 40.0643 47.6443 40.0348 47.6583C40.0053 47.6724 39.9731 47.6797 39.9405 47.6799H37.7552L37.76 47.6559Z" fill="#62412B"/>
<path d="M27.2591 47.6558H25.1264C24.9208 47.6558 24.8156 47.5209 24.873 47.3281C24.8954 47.1553 24.9577 46.9903 25.0547 46.8461C25.1052 46.7737 25.135 46.6886 25.1407 46.6003C25.1635 46.4187 25.2256 46.2443 25.3224 46.0894C25.38 45.993 25.4128 45.8837 25.4181 45.7713C25.4335 45.6313 25.4792 45.4964 25.552 45.3761C25.6198 45.2535 25.6652 45.1196 25.6859 44.9809C25.7018 44.8589 25.7407 44.7411 25.8006 44.6338C25.8877 44.4674 25.9428 44.2859 25.9632 44.0988C25.9758 43.9941 26.0118 43.8936 26.0684 43.8048C26.1466 43.6674 26.1939 43.5144 26.2071 43.3566C26.2225 43.2166 26.2682 43.0817 26.341 42.9614C26.4055 42.8493 26.4446 42.7242 26.4557 42.5951C26.4651 42.4265 26.5108 42.262 26.5896 42.1131C26.6727 41.9515 26.7215 41.7742 26.7331 41.5926C26.7445 41.4935 26.7686 41.3963 26.8048 41.3034C26.8688 41.1726 26.9232 41.0373 26.9674 40.8985C26.9772 40.8553 26.9958 40.8147 27.022 40.7792C27.0483 40.7437 27.0816 40.7141 27.1199 40.6923C27.1582 40.6705 27.2005 40.657 27.2442 40.6527C27.288 40.6484 27.3321 40.6533 27.3739 40.6672C27.4536 40.6871 27.5357 40.6952 27.6177 40.6913H30.3816C30.4684 40.6951 30.5552 40.687 30.6398 40.6672C30.7132 40.6479 30.7907 40.6518 30.8617 40.6786C30.9328 40.7053 30.9939 40.7535 31.0367 40.8166C31.0493 40.8337 31.0583 40.8532 31.0632 40.8739C31.0681 40.8946 31.0689 40.9161 31.0654 40.9371C31.0277 41.0787 31.0068 41.2243 31.0033 41.3709C30.996 41.5188 30.962 41.6642 30.9028 41.7998C30.7975 42.1349 30.7301 42.4809 30.702 42.8312C30.6819 42.9337 30.6514 43.0338 30.6111 43.1301C30.5346 43.3839 30.4881 43.646 30.4725 43.9109C30.4554 44.051 30.4217 44.1885 30.3721 44.3205C30.2944 44.5227 30.2477 44.7356 30.2334 44.9519C30.2249 45.1748 30.1796 45.3947 30.0995 45.6026C30.0137 45.846 29.9653 46.1012 29.956 46.3593C29.9385 46.5243 29.8999 46.6863 29.8413 46.8413C29.7855 46.9972 29.747 47.1588 29.7265 47.3232C29.6978 47.545 29.6165 47.6221 29.3918 47.6221L27.2591 47.6558Z" fill="#62412B"/>
<path d="M34.6662 26.3815C34.6728 26.4157 34.6695 26.4512 34.6568 26.4836C34.6441 26.516 34.6225 26.5442 34.5944 26.5646C34.2788 26.8008 34.0158 27.0996 33.7242 27.3647C33.4325 27.6298 33.246 27.8467 32.9925 28.0539C32.9112 28.1214 32.8634 28.2178 32.7821 28.2853C32.7479 28.3275 32.7044 28.3611 32.6549 28.3832C32.6055 28.4053 32.5515 28.4154 32.4975 28.4125C32.4435 28.4097 32.3909 28.3941 32.3439 28.367C32.297 28.3399 32.2571 28.302 32.2274 28.2564C31.7493 27.7744 31.2711 27.3262 30.7929 26.8635C30.6932 26.7543 30.5826 26.6558 30.4629 26.5695C30.3577 26.5068 30.3434 26.3959 30.396 26.2514C30.4426 26.1437 30.5169 26.0505 30.6112 25.9814C30.7786 25.8291 30.9382 25.6682 31.0894 25.4995C31.1802 25.4031 31.2759 25.3163 31.3715 25.2296C31.4671 25.1428 31.6345 24.9789 31.7588 24.8536C31.9163 24.7222 32.0605 24.5752 32.1892 24.415C32.22 24.3636 32.263 24.3207 32.3142 24.29C32.3654 24.2592 32.4233 24.2417 32.4828 24.2388C32.5423 24.236 32.6016 24.2479 32.6555 24.2736C32.7094 24.2993 32.7561 24.3379 32.7917 24.3861C33.0834 24.7283 33.4277 25.0127 33.7481 25.3501C33.9705 25.5857 34.2052 25.8093 34.451 26.02C34.5135 26.0578 34.5658 26.1106 34.6034 26.1737C34.6409 26.2367 34.6625 26.3081 34.6662 26.3815Z" fill="#62412B"/>
<path d="M32.1605 28.7576C32.1844 28.8636 32.1079 28.9214 32.0362 28.9745C31.8556 29.1205 31.6876 29.2818 31.5341 29.4564L31.1993 29.7697C30.7642 30.1698 30.3482 30.5891 29.9178 30.9987C29.8273 31.0828 29.7426 31.173 29.6644 31.2687C29.5696 31.3662 29.4411 31.4232 29.3057 31.4277C29.2388 31.4277 29.2005 31.3843 29.2053 31.3168C29.2038 31.2517 29.2119 31.1868 29.2292 31.1241C29.2968 30.8938 29.3337 30.6556 29.3392 30.4156C29.3606 30.1454 29.4185 29.8795 29.5114 29.6251C29.5537 29.4859 29.5779 29.3417 29.5831 29.1962C29.5995 28.8372 29.6573 28.4814 29.7552 28.1358C29.8129 27.9321 29.8419 27.7211 29.8413 27.5093C29.8413 27.3454 29.8652 27.1815 29.8796 27.0273C29.9082 26.7526 30.1234 26.7381 30.3338 26.873C30.4003 26.9225 30.4627 26.9773 30.5203 27.0369C30.9602 27.4707 31.4002 27.9045 31.8449 28.3334C31.8814 28.3696 31.9214 28.4019 31.9644 28.4298C32.0691 28.5097 32.1393 28.627 32.1605 28.7576Z" fill="#62412B"/>
<path d="M35.8329 31.2591C35.8329 31.4085 35.8042 31.4278 35.6751 31.4037C35.5273 31.3711 35.3954 31.2875 35.3022 31.1675C35.1252 30.9651 34.9148 30.7916 34.7236 30.5988C34.5323 30.406 34.2071 30.1168 33.9489 29.8517C33.8198 29.7264 33.6907 29.6011 33.5472 29.4854C33.4038 29.3697 33.3607 29.2926 33.2603 29.2059C33.18 29.1202 33.0902 29.0442 32.9925 28.9793C32.8586 28.8926 32.8443 28.7962 32.9064 28.6419C32.9397 28.5545 32.994 28.4767 33.0643 28.4154C33.3559 28.1744 33.6046 27.8901 33.8819 27.6394C34.1593 27.3888 34.3984 27.1575 34.6518 26.8876C34.6933 26.8455 34.7441 26.8141 34.8001 26.796C34.9913 26.7237 35.1539 26.796 35.1539 27.0177C35.1539 27.2394 35.1969 27.4033 35.1969 27.5961C35.2061 27.8372 35.2496 28.0758 35.3261 28.3046C35.3976 28.5653 35.4362 28.8341 35.4408 29.1046C35.4547 29.339 35.4981 29.5706 35.5699 29.7939C35.6412 29.9991 35.6847 30.2131 35.699 30.4301C35.7108 30.6777 35.7493 30.9234 35.8138 31.1627C35.8183 31.1952 35.8247 31.2273 35.8329 31.2591Z" fill="#62412B"/>
<path d="M32.5526 23.5668C32.4897 23.5721 32.4266 23.5607 32.3695 23.5336C32.3124 23.5066 32.2634 23.4648 32.2274 23.4125C32.1029 23.2516 31.9601 23.1061 31.8019 22.9787C31.6967 22.8823 31.6058 22.7763 31.5054 22.6799C31.3362 22.5295 31.1765 22.3685 31.0272 22.1979C30.9991 22.1743 30.977 22.1442 30.9627 22.1102C30.9485 22.0762 30.9425 22.0393 30.9453 22.0025C30.9481 21.9657 30.9597 21.9301 30.9789 21.8987C30.9981 21.8673 31.0245 21.841 31.0559 21.822C31.2239 21.6703 31.3835 21.5094 31.5341 21.34C31.754 21.128 31.9692 20.9062 32.1844 20.6942C32.222 20.6563 32.2571 20.6161 32.2896 20.5737C32.3219 20.5351 32.3622 20.5041 32.4076 20.4829C32.453 20.4616 32.5025 20.4506 32.5526 20.4506C32.6027 20.4506 32.6522 20.4616 32.6976 20.4829C32.743 20.5041 32.7833 20.5351 32.8156 20.5737C33.0403 20.834 33.2938 21.0557 33.5329 21.3015L33.8963 21.663L34.0541 21.8027C34.0832 21.8217 34.1076 21.8471 34.1255 21.877C34.1435 21.9069 34.1545 21.9405 34.1577 21.9753C34.1609 22.0101 34.1563 22.0451 34.1441 22.0779C34.132 22.1106 34.1126 22.1401 34.0876 22.1642C33.9389 22.3353 33.7792 22.4963 33.6094 22.6462C33.399 22.8582 33.179 23.0607 32.9638 23.2679C32.9256 23.3113 32.8921 23.3643 32.8539 23.4077C32.8244 23.4608 32.7802 23.5042 32.7267 23.5324C32.6732 23.5607 32.6127 23.5726 32.5526 23.5668Z" fill="#62412B"/>
<path d="M30.1234 25.4994C30.1395 25.2636 30.1763 25.0298 30.2334 24.8006C30.2717 24.6174 30.3147 24.4391 30.3386 24.2511C30.3721 23.9764 30.3625 23.7017 30.3912 23.4269C30.4187 23.164 30.4635 22.9031 30.5251 22.6461C30.5538 22.5353 30.6159 22.4774 30.7259 22.4919C30.7784 22.4884 30.8309 22.4991 30.878 22.5228C30.925 22.5465 30.965 22.5824 30.9937 22.6269C31.0933 22.7801 31.2177 22.9154 31.3619 23.0269C31.486 23.1607 31.6186 23.2863 31.7588 23.4028C31.864 23.4848 31.9501 23.586 32.0553 23.6679C32.0917 23.7017 32.1202 23.7431 32.1388 23.7893C32.1575 23.8355 32.1657 23.8852 32.163 23.935C32.1602 23.9848 32.1466 24.0333 32.123 24.0772C32.0994 24.121 32.0665 24.159 32.0266 24.1885C31.7014 24.4728 31.405 24.7813 31.0941 25.0801C30.8646 25.297 30.6494 25.5283 30.4247 25.7501C30.3816 25.7934 30.3338 25.8513 30.2573 25.8223C30.2208 25.8109 30.1886 25.7887 30.1647 25.7587C30.1409 25.7286 30.1265 25.692 30.1234 25.6537C30.1137 25.6027 30.1137 25.5504 30.1234 25.4994Z" fill="#62412B"/>
<path d="M34.91 25.5332C34.9125 25.5749 34.9125 25.6167 34.91 25.6585C34.9064 25.6967 34.8918 25.7329 34.868 25.7629C34.8442 25.7929 34.8123 25.8152 34.7762 25.8272C34.7044 25.8272 34.6614 25.7983 34.6231 25.7597C34.4414 25.5862 34.2645 25.403 34.0876 25.2295L33.1695 24.3234L33.0499 24.2222C32.9998 24.1816 32.9582 24.1312 32.9278 24.0741C32.8974 24.0169 32.8788 23.9542 32.873 23.8896C32.8663 23.8451 32.8733 23.7995 32.8929 23.7591C32.9126 23.7186 32.944 23.6851 32.983 23.6631C33.1337 23.5538 33.273 23.4295 33.399 23.292C33.5807 23.1378 33.7481 22.9594 33.9202 22.81C33.9673 22.7587 34.0104 22.704 34.0493 22.6461C34.0941 22.5918 34.1543 22.5526 34.2218 22.5336C34.2893 22.5147 34.3609 22.5169 34.4271 22.5401C34.4495 22.5535 34.4688 22.5717 34.4837 22.5933C34.4985 22.6149 34.5086 22.6395 34.5132 22.6654C34.5132 22.8678 34.5992 23.0655 34.6184 23.2727C34.6423 23.5523 34.6518 23.8366 34.6709 24.1162C34.7018 24.4074 34.7546 24.6958 34.8288 24.9789C34.8802 25.1592 34.9075 25.3456 34.91 25.5332Z" fill="#62412B"/>
<path d="M32.5143 19.7929C32.4712 19.7967 32.4278 19.7899 32.3878 19.7732C32.3478 19.7564 32.3125 19.7301 32.2848 19.6965C32.0122 19.4218 31.7349 19.147 31.4671 18.8675C31.4061 18.8033 31.3486 18.7357 31.295 18.665C31.2791 18.6524 31.2662 18.6363 31.2573 18.6179C31.2485 18.5996 31.2439 18.5794 31.2439 18.559C31.2439 18.5386 31.2485 18.5185 31.2573 18.5001C31.2662 18.4817 31.2791 18.4656 31.295 18.453C31.3888 18.3468 31.4894 18.247 31.5962 18.1542C31.7397 18.0433 31.8544 17.8987 31.9979 17.7879C32.054 17.7449 32.1025 17.6928 32.1414 17.6336C32.2125 17.5308 32.3205 17.4599 32.4426 17.436C32.4983 17.4271 32.5554 17.432 32.6088 17.4505C32.6621 17.469 32.7102 17.5005 32.7486 17.5421C33.0403 17.8553 33.3846 18.1156 33.6811 18.4289C33.8006 18.559 33.8054 18.5831 33.6811 18.7229C33.3798 19.0844 33.0212 19.3928 32.7008 19.7399C32.675 19.7611 32.6451 19.7767 32.613 19.7858C32.581 19.795 32.5474 19.7973 32.5143 19.7929Z" fill="#62412B"/>
<path d="M32.5526 14.8671C32.6034 14.8652 32.6538 14.8772 32.6984 14.9018C32.743 14.9264 32.7802 14.9627 32.806 15.0069C32.9558 15.1868 33.1259 15.3486 33.3129 15.4888C33.4199 15.5736 33.4915 15.6957 33.5137 15.831C33.5192 15.8786 33.5109 15.9267 33.4896 15.9695C33.4684 16.0123 33.4352 16.048 33.3942 16.072C33.1736 16.2373 32.9687 16.4229 32.7821 16.6263C32.7444 16.6694 32.6981 16.7039 32.6461 16.7275C32.5942 16.7511 32.5378 16.7634 32.4809 16.7634C32.4239 16.7634 32.3675 16.7511 32.3156 16.7275C32.2636 16.7039 32.2173 16.6694 32.1796 16.6263C32.0254 16.4436 31.8486 16.2817 31.6536 16.1443C31.6027 16.1138 31.5574 16.0747 31.5197 16.0286C31.5022 16.0014 31.4929 15.9696 31.4929 15.9371C31.4929 15.9046 31.5022 15.8728 31.5197 15.8455C31.5767 15.7039 31.669 15.5794 31.7875 15.484C31.9442 15.3518 32.0897 15.2067 32.2226 15.0502C32.2595 14.9957 32.3085 14.9507 32.3659 14.9189C32.4232 14.887 32.4872 14.8693 32.5526 14.8671Z" fill="#62412B"/>
<path d="M30.6398 21.1617C30.6781 20.8918 30.7116 20.617 30.7594 20.3471C30.8247 19.9888 30.8662 19.6265 30.8837 19.2627C30.8891 19.205 30.9019 19.1483 30.922 19.094C30.965 18.9494 31.0798 18.9157 31.185 19.0217C31.2902 19.1277 31.448 19.2771 31.5723 19.4073C31.6966 19.5374 31.9501 19.7447 32.1031 19.9471C32.2561 20.1495 32.28 20.1302 32.1031 20.323C31.7492 20.6845 31.4002 21.0508 31.0272 21.393L30.9698 21.4364C30.9124 21.4798 30.8455 21.5424 30.7642 21.499C30.7313 21.4788 30.7039 21.4505 30.6847 21.4168C30.6655 21.3831 30.655 21.3451 30.6542 21.3063V21.1665L30.6398 21.1617Z" fill="#62412B"/>
<path d="M34.384 21.2002C34.3918 21.2795 34.3733 21.3591 34.3314 21.4267C34.2741 21.5183 34.2215 21.5328 34.1354 21.4749C34.0032 21.388 33.8827 21.2844 33.7768 21.1665C33.5185 20.8869 33.2364 20.6411 32.9782 20.3664L32.8921 20.2748C32.806 20.164 32.8013 20.1061 32.8921 19.9953C32.9832 19.8882 33.0806 19.7868 33.1838 19.6916C33.399 19.4844 33.6094 19.2675 33.8198 19.0554C34.0302 18.8433 34.0637 18.9349 34.1306 19.1325C34.1559 19.2545 34.1672 19.3791 34.1641 19.5037C34.1976 19.8796 34.2741 20.2555 34.3171 20.6315C34.358 20.8183 34.3805 21.0089 34.384 21.2002Z" fill="#62412B"/>
<path d="M33.399 13.3055C33.404 13.3429 33.4006 13.3809 33.389 13.4168C33.3774 13.4527 33.358 13.4855 33.332 13.5127C33.2292 13.626 33.119 13.7323 33.0021 13.8308C32.9314 13.8916 32.8687 13.9612 32.8156 14.0381C32.7794 14.0853 32.7324 14.123 32.6787 14.148C32.6249 14.1729 32.566 14.1845 32.5069 14.1817C32.4478 14.1788 32.3902 14.1617 32.339 14.1317C32.2879 14.1016 32.2447 14.0596 32.2131 14.0092C32.0792 13.8357 31.8975 13.7152 31.7349 13.5561C31.6969 13.5274 31.6666 13.4897 31.6466 13.4463C31.6266 13.4028 31.6177 13.3551 31.6205 13.3073C31.6234 13.2596 31.6379 13.2133 31.6629 13.1726C31.6879 13.1319 31.7225 13.098 31.7636 13.0741C31.9182 12.9512 32.0564 12.8086 32.1748 12.65C32.2084 12.5962 32.255 12.5519 32.3102 12.5212C32.3654 12.4905 32.4274 12.4744 32.4904 12.4744C32.5535 12.4744 32.6155 12.4905 32.6707 12.5212C32.7259 12.5519 32.7724 12.5962 32.806 12.65C32.9503 12.8252 33.1104 12.9866 33.2842 13.132C33.3165 13.1485 33.3441 13.1731 33.3642 13.2035C33.3843 13.2339 33.3963 13.269 33.399 13.3055Z" fill="#62412B"/>
<path d="M34.0732 17.8457C34.0732 17.8939 34.0732 17.9421 34.0397 17.9855C34.0372 18.001 34.031 18.0157 34.0216 18.0283C34.0122 18.0408 33.9999 18.0509 33.9857 18.0575C33.9716 18.0642 33.956 18.0673 33.9404 18.0665C33.9248 18.0657 33.9097 18.061 33.8963 18.053C33.7464 18.0066 33.6101 17.9239 33.4994 17.812C33.3584 17.648 33.1977 17.5023 33.0212 17.3782C32.964 17.334 32.9205 17.2742 32.8959 17.2058C32.8714 17.1375 32.8667 17.0635 32.8825 16.9926C32.8879 16.9583 32.901 16.9256 32.9209 16.8972C32.9408 16.8688 32.9669 16.8453 32.9973 16.8287C33.1785 16.703 33.3397 16.5502 33.4755 16.3757C33.5185 16.3275 33.5472 16.2697 33.6141 16.2504C33.6811 16.2311 33.8054 16.2504 33.8628 16.3853C33.9032 16.5079 33.9178 16.6375 33.9058 16.7661C33.9297 17.1083 33.9823 17.4457 34.0302 17.7831C34.0417 17.8057 34.0562 17.8268 34.0732 17.8457Z" fill="#62412B"/>
<path d="M32.127 17.0553C32.1325 17.1248 32.1195 17.1946 32.0892 17.2573C32.0589 17.32 32.0125 17.3734 31.9549 17.4119C31.7934 17.528 31.6486 17.6658 31.5245 17.8216C31.416 17.9352 31.2787 18.0169 31.1276 18.0578C31.115 18.0623 31.1017 18.0643 31.0884 18.0636C31.0751 18.0629 31.062 18.0596 31.05 18.0538C31.038 18.0479 31.0272 18.0397 31.0184 18.0297C31.0096 18.0196 31.0028 18.0079 30.9985 17.9951C30.9648 17.9128 30.9564 17.8221 30.9746 17.7349C31.0512 17.3486 31.0992 16.9571 31.118 16.5637C31.1111 16.5303 31.1111 16.4958 31.118 16.4624C31.1515 16.366 31.1802 16.2697 31.2997 16.2456C31.4193 16.2215 31.4767 16.313 31.5341 16.395C31.6625 16.555 31.814 16.6947 31.9835 16.8095C32.0744 16.8769 32.1509 16.9396 32.127 17.0553Z" fill="#62412B"/>
<path d="M31.1611 15.0165C31.1998 14.6644 31.2189 14.3104 31.2185 13.9562C31.2185 13.8116 31.3045 13.7489 31.4384 13.7971C31.5821 13.8272 31.7097 13.9096 31.7971 14.0284C31.8406 14.0991 31.9016 14.1572 31.974 14.1971C32.0263 14.2358 32.0702 14.2849 32.1031 14.3412C32.1359 14.3975 32.1571 14.46 32.1653 14.5249C32.1795 14.5716 32.1784 14.6218 32.162 14.6678C32.1456 14.7139 32.1149 14.7533 32.0744 14.7803C31.9685 14.8512 31.8735 14.9372 31.7923 15.0358C31.6928 15.1353 31.5874 15.2287 31.4767 15.3153C31.4534 15.3368 31.4247 15.3514 31.3938 15.3575C31.3629 15.3636 31.3309 15.3611 31.3013 15.3502C31.2717 15.3392 31.2456 15.3203 31.2259 15.2955C31.2063 15.2706 31.1938 15.2408 31.1898 15.2093C31.1747 15.146 31.1651 15.0815 31.1611 15.0165Z" fill="#62412B"/>
<path d="M33.8676 14.9924C33.875 15.0516 33.875 15.1115 33.8676 15.1707C33.8246 15.3491 33.6763 15.3828 33.5807 15.2816C33.485 15.1804 33.289 15.084 33.2029 14.9249C33.1577 14.8637 33.0987 14.8141 33.0308 14.7803C32.9925 14.7478 32.9618 14.7072 32.9407 14.6614C32.9196 14.6156 32.9087 14.5657 32.9087 14.5152C32.9087 14.4648 32.9196 14.4149 32.9407 14.3691C32.9618 14.3233 32.9925 14.2827 33.0308 14.2502C33.1355 14.1567 33.2345 14.0569 33.3272 13.9513C33.4265 13.8575 33.5549 13.8013 33.6907 13.7923C33.7815 13.7923 33.8246 13.8308 33.8341 13.9465C33.8437 14.0622 33.8341 14.1971 33.8341 14.3225C33.8437 14.4395 33.8437 14.5572 33.8341 14.6743C33.8293 14.7803 33.8915 14.896 33.8676 14.9924Z" fill="#62412B"/>
</svg>
