<svg width="66" height="70" viewBox="0 0 66 70" fill="none" xmlns="http://www.w3.org/2000/svg">
<rect x="1.25" y="0.5" width="64" height="69" rx="10.5" stroke="#62412B"/>
<path d="M39.5735 59.2483C39.0998 59.2483 38.626 59.2483 38.1523 59.2483C36.8544 59.2483 36.8544 59.2483 37.0037 57.8789C37.131 57.1897 37.1155 56.4817 36.9582 55.7988C36.8008 55.1158 36.5049 54.4724 36.0888 53.9084C35.6727 53.3445 35.1452 52.8719 34.5391 52.5201C33.9329 52.1683 33.261 51.9446 32.5649 51.863C29.8718 51.4866 27.3734 53.4919 26.9062 56.4058C26.4389 59.3196 26.4389 59.2483 23.5706 59.2483H22.9995C20.8775 59.2483 20.884 59.2483 21.2539 57.2235C21.8055 54.1539 22.3636 51.0843 22.9087 48.0081C22.9931 47.5409 23.1942 47.0282 22.435 46.8205C22.3173 46.7913 22.2079 46.7356 22.1149 46.6578C22.022 46.5799 21.948 46.4819 21.8986 46.3712C21.8492 46.2605 21.8256 46.14 21.8297 46.0188C21.8338 45.8976 21.8655 45.779 21.9223 45.6719C22.0156 45.4304 22.199 45.2346 22.4339 45.1257C22.6687 45.0167 22.9366 45.0031 23.1812 45.0878C24.8555 45.3928 26.5363 45.6849 28.217 45.9834L43.9668 48.7674C44.5054 48.8648 45.096 48.9232 45.2647 49.5851C45.4334 50.2471 45.1025 50.7273 44.5249 50.6754C43.6813 50.604 43.6618 51.1102 43.571 51.6294C43.1946 53.7385 42.7403 55.8347 42.4872 57.9568C42.351 59.073 41.9032 59.3975 40.8843 59.2547C40.448 59.2233 40.0101 59.2212 39.5735 59.2483Z" fill="#62412B"/>
<path d="M40.2808 33.9191C40.3093 33.802 40.3122 33.68 40.2892 33.5617C40.2663 33.4433 40.218 33.3313 40.1478 33.2334C40.0775 33.1354 39.9869 33.0537 39.8822 32.994C39.7775 32.9342 39.6611 32.8978 39.541 32.8872C38.8921 32.7834 38.5417 33.1728 38.4638 33.8218C38.4638 34.1073 38.321 34.3863 38.2886 34.6784C38.2302 35.2365 37.9706 35.4117 37.406 35.2949C36.4131 35.0872 35.4073 34.9315 34.4014 34.7692C33.8498 34.6849 33.6681 34.4123 33.8109 33.8542C33.9041 33.4652 33.952 33.0666 33.9537 32.6666C33.9635 32.5571 33.9516 32.4467 33.9188 32.3418C33.8859 32.2368 33.8327 32.1394 33.7622 32.055C33.6917 31.9707 33.6053 31.901 33.5079 31.8501C33.4104 31.7991 33.3039 31.7678 33.1944 31.758C32.9775 31.7204 32.7544 31.7665 32.5701 31.887C32.3859 32.0074 32.2541 32.1932 32.2015 32.407C32.0068 32.9976 32.2015 33.8931 31.5526 34.1138C31.001 34.2955 30.2547 33.997 29.6447 33.8931C26.6596 33.4129 26.6661 33.4129 27.2631 30.3952C27.3929 29.7462 27.4707 29.0324 27.594 28.351C27.7173 27.6695 28.1002 27.053 27.1008 26.6636C26.7569 26.5403 26.7569 26.0536 26.8997 25.6837C26.9751 25.4747 27.1265 25.3017 27.3238 25.1995C27.5211 25.0972 27.7497 25.0732 27.9639 25.1321C29.2618 25.3398 30.5597 25.5669 31.8251 25.7811L46.3095 28.3964C46.8741 28.4937 47.4127 28.5976 47.4581 29.3114C47.5035 30.0253 47.0882 30.2784 46.4523 30.3108C45.8163 30.3433 46.0175 30.8235 45.9591 31.1285C45.667 32.6601 45.388 34.1982 45.1609 35.7427C45.057 36.4631 44.7066 36.6448 44.0512 36.515C43.0907 36.3203 42.1044 36.0802 41.1634 35.9828C40.2224 35.8855 39.8655 35.535 40.2094 34.5875C40.2582 34.3681 40.2821 34.1439 40.2808 33.9191Z" fill="#62412B"/>
<path d="M26.0366 35.2106C28.2495 35.5935 30.3975 35.9504 32.526 36.3333C36.5235 37.0406 40.5145 37.7675 44.5184 38.4684C45.096 38.5657 45.6216 38.6955 45.68 39.3769C45.7384 40.0583 45.3101 40.3698 44.6806 40.4088C44.0512 40.4477 44.2329 40.889 44.1745 41.207C43.8889 42.7451 43.5839 44.2701 43.3568 45.8147C43.2595 46.4636 43.0129 46.7103 42.3639 46.5805C41.2218 46.3598 40.0861 46.1392 38.9375 45.9704C38.2886 45.8731 38.2237 45.5097 38.2886 44.9645C38.4249 44.2182 38.9375 43.2253 37.7045 43.0176C36.4715 42.81 36.6338 43.9521 36.504 44.6725C36.3742 45.3929 36.1211 45.5356 35.4657 45.3799C34.5507 45.1657 33.6162 44.9905 32.6882 44.8672C32.0003 44.7763 31.8576 44.4908 31.9874 43.8418C32.1172 43.1929 32.5649 42.0961 31.3839 41.8949C30.2028 41.6937 30.3066 42.7775 30.2028 43.4654C30.0989 44.1533 29.8134 44.4324 29.0477 44.2442C28.0216 44.0138 26.984 43.8384 25.9392 43.7185C25.1735 43.6147 24.8944 43.3162 25.0826 42.4855C25.4071 41.0383 25.5758 39.5522 25.8614 38.092C25.9652 37.5598 26.1209 37.1445 25.4136 36.8849C25.3217 36.8433 25.2392 36.7834 25.171 36.709C25.1029 36.6345 25.0506 36.5471 25.0172 36.4518C24.9838 36.3566 24.9701 36.2556 24.9769 36.1549C24.9837 36.0542 25.0108 35.9559 25.0567 35.866C25.1105 35.6552 25.2403 35.4717 25.4211 35.3507C25.602 35.2297 25.8212 35.1798 26.0366 35.2106Z" fill="#62412B"/>
<path d="M29.8199 15.0471L39.3593 16.715L47.5035 18.1622C47.8987 18.2172 48.2892 18.3018 48.6716 18.4153C48.8646 18.478 49.0282 18.6086 49.132 18.7829C49.2358 18.9572 49.2729 19.1632 49.2362 19.3627C49.2038 19.7716 48.9831 20.1415 48.5873 20.122C47.7566 20.0766 47.7891 20.6672 47.6982 21.1669C47.4473 22.5946 47.2094 24.0267 46.9844 25.463C46.8611 26.2483 46.5756 26.6117 45.6865 26.3651C44.6611 26.1235 43.6235 25.9372 42.5781 25.807C42.0005 25.7161 41.7345 25.476 41.9291 24.853C42.021 24.4988 42.0711 24.1351 42.0784 23.7692C42.0966 23.6513 42.0902 23.5308 42.0596 23.4155C42.0289 23.3002 41.9747 23.1925 41.9003 23.0991C41.8259 23.0058 41.7329 22.929 41.6273 22.8734C41.5217 22.8178 41.4057 22.7848 41.2867 22.7763C40.7351 22.7114 40.4236 23.0489 40.2743 23.5616C39.7747 25.2748 39.7747 25.2748 37.9511 24.9568C37.5618 24.8919 37.1724 24.7816 36.7766 24.7557C35.8031 24.6908 35.5436 24.1067 35.6863 23.2695L35.7642 22.8412C35.8032 22.7188 35.8155 22.5895 35.8005 22.462C35.7855 22.3344 35.7434 22.2115 35.677 22.1015C35.6107 21.9916 35.5216 21.897 35.4158 21.8243C35.3099 21.7515 35.1898 21.7021 35.0633 21.6796C34.4533 21.5498 34.1159 21.9197 33.9537 22.4713C33.467 24.1586 33.467 24.1586 31.7343 23.8666C31.025 23.7119 30.308 23.5949 29.5863 23.5161C28.6583 23.4447 28.561 22.9386 28.7102 22.2182C28.9893 20.797 29.2423 19.3692 29.5019 17.9415C29.5928 17.4483 29.7291 16.9875 29.0477 16.715C28.5804 16.5333 28.5415 16.0141 28.7297 15.5793C28.9179 15.1445 29.3462 15.0082 29.8199 15.0471Z" fill="#FBCA20"/>
<path d="M45.998 15.9946C44.3237 15.6961 42.6495 15.3911 40.9687 15.099C40.8899 15.0969 40.8124 15.0775 40.7419 15.0422C40.6714 15.0068 40.6095 14.9564 40.5606 14.8945C40.5117 14.8326 40.477 14.7607 40.4589 14.6839C40.4408 14.6071 40.4399 14.5273 40.4561 14.4501C40.4561 14.158 40.5339 13.8725 40.5923 13.587C40.6371 13.4562 40.6516 13.3169 40.6348 13.1797C40.6181 13.0425 40.5704 12.9109 40.4955 12.7947C40.4205 12.6785 40.3202 12.5809 40.2021 12.509C40.084 12.4372 39.9512 12.393 39.8136 12.3799C39.2101 12.2825 38.8986 12.7109 38.7493 13.2495C38.3665 14.6772 38.3665 14.6837 36.9323 14.4371C35.6799 14.2229 34.4339 13.9828 33.1879 13.7881C32.4222 13.6648 31.9939 13.4312 32.2664 12.4902C32.5084 11.5789 32.6798 10.6503 32.7791 9.71262C32.8245 9.38814 33.0257 9.01174 32.5844 8.73917C32.4787 8.68293 32.3858 8.6053 32.3117 8.51121C32.2376 8.41712 32.1839 8.30864 32.1539 8.19266C32.124 8.07669 32.1186 7.95576 32.138 7.83757C32.1573 7.71937 32.2011 7.6065 32.2664 7.50613C32.3902 7.30048 32.5809 7.1437 32.8067 7.06216C33.0324 6.98061 33.2793 6.97927 33.5059 7.05835L39.9239 8.20702L46.8871 9.43356C47.244 9.49846 47.5944 9.57634 47.9513 9.64772C48.1514 9.68127 48.3332 9.78422 48.465 9.9385C48.5967 10.0928 48.6699 10.2885 48.6716 10.4914C48.7091 10.6724 48.6781 10.8609 48.5846 11.0203C48.4911 11.1798 48.3418 11.2989 48.1655 11.3545C47.5165 11.4713 47.5165 11.8607 47.4257 12.3669C47.2829 13.3663 47.0428 14.3592 46.8871 15.3586C46.7962 15.8973 46.5431 16.1114 45.998 15.9946Z" fill="#FBCA20"/>
<path d="M32.3702 62.9733H18.6127C18.0416 62.9733 17.477 62.9733 17.3148 62.3244C17.2643 62.2042 17.2428 62.0738 17.2521 61.9438C17.2613 61.8138 17.301 61.6877 17.368 61.5759C17.435 61.4641 17.5273 61.3696 17.6376 61.3C17.7478 61.2305 17.8729 61.1879 18.0027 61.1757C18.3607 61.116 18.7237 61.0921 19.0864 61.1043H45.9331C46.1148 61.1043 46.2965 61.1043 46.4782 61.1043C47.1271 61.1043 47.7761 61.273 47.7047 62.1297C47.6333 62.9863 47.1012 63.0058 46.4587 62.9993L32.3702 62.9733Z" fill="#62412B"/>
<path d="M31.7213 59.2483C30.8907 59.2483 30.0535 59.2483 29.2164 59.2483C28.6064 59.2483 28.3144 59.0601 28.4312 58.4176C28.5483 57.5564 28.7151 56.7026 28.9309 55.8607C29.1808 55.1433 29.6746 54.5363 30.3261 54.1456C30.9777 53.7549 31.7456 53.6051 32.4962 53.7225C33.2468 53.8399 33.9324 54.2169 34.4335 54.7879C34.9346 55.3589 35.2195 56.0876 35.2386 56.8471C35.2386 56.9574 35.2386 57.0613 35.2386 57.1716C35.1737 59.1639 35.1023 59.2353 33.149 59.2353L31.7213 59.2483Z" fill="#62412B"/>
</svg>
