<svg width="65" height="70" viewBox="0 0 65 70" fill="none" xmlns="http://www.w3.org/2000/svg">
<rect x="0.5" y="0.5" width="64" height="69" rx="10.5" stroke="#62412B"/>
<path d="M32.4884 40.4936C26.0929 40.4936 19.6974 40.4936 13.2972 40.4936C12.653 40.4936 12.4955 40.3499 12.5001 39.6965C12.5279 33.5358 12.5279 27.3735 12.5001 21.2097C12.5001 20.5377 12.6948 20.4265 13.3204 20.4265C26.1114 20.4451 38.9056 20.4451 51.7028 20.4265C52.3516 20.4265 52.5045 20.5748 52.4999 21.2283C52.4721 27.3859 52.4721 33.5466 52.4999 39.7104C52.4999 40.3917 52.3006 40.4936 51.6842 40.4936C45.2841 40.4843 38.8886 40.4936 32.4884 40.4936Z" fill="#62412B"/>
<path d="M32.4977 42.8294C33.5914 42.8294 34.6851 42.8294 35.7789 42.8294C36.1728 42.8294 36.3767 42.8897 36.4369 43.3485C36.6455 45.0215 37.577 45.8464 39.3056 46.0411C41.8824 46.3238 44.4313 46.8243 46.9988 47.1904C47.4623 47.2599 47.5225 47.4407 47.4854 47.8392C47.3186 49.693 47.3325 49.6559 45.3953 49.3547C42.1512 48.8542 38.9534 48.2517 35.6908 47.9644C32.4255 47.6842 29.1377 47.8228 25.9075 48.3768C23.4234 48.78 20.9348 49.1554 18.4461 49.5493C17.9826 49.6235 17.7463 49.5493 17.6721 49.0117C17.4311 47.2877 17.4126 47.3063 19.1551 47.0514C21.5419 46.6992 23.9286 46.3284 26.3107 45.953C27.5203 45.763 28.1645 45.1235 28.4333 43.8026C28.5677 43.0982 28.804 42.7506 29.615 42.8294C30.5697 42.8989 31.5383 42.8294 32.4977 42.8294Z" fill="#FBCA20"/>
</svg>
