<svg width="130" height="90" viewBox="0 0 130 90" fill="none" xmlns="http://www.w3.org/2000/svg">
<path d="M4.49676 78.9616C4.08672 79.6111 3.11753 79.8998 2.33473 79.539C1.66375 79.2503 1.21643 78.9977 0.992772 78.7089C0.582731 78.2037 0.396348 77.8067 0.247242 77.482C0.0608596 76.7963 -0.0882464 76.0745 0.0608596 75.1724C0.135413 74.7393 0.321795 74.198 0.582731 73.5845C1.06732 72.6462 1.88741 71.8884 2.89387 71.2749C3.71396 70.7697 4.64587 70.481 5.95055 70.3727C7.18067 70.3005 8.07531 70.5171 8.96994 70.9862C10.051 71.5275 10.7965 72.1771 11.3556 72.8627C11.8775 73.5484 12.2876 74.1258 12.4739 74.5949C12.9213 75.4611 13.294 76.4354 13.555 77.2294C14.0023 78.4924 14.3005 79.8998 14.4869 80.9464C14.5241 81.3433 14.636 81.7764 14.6732 82.1734C15.1951 80.9103 15.7915 79.5751 16.4252 78.312C17.5435 75.858 18.8855 73.0432 20.973 70.6253C21.3457 70.2644 21.7558 69.7953 22.6131 69.3622C23.5451 68.8931 24.477 69.0375 24.7006 69.6509C24.8497 70.084 24.4397 70.6614 23.9551 70.9862C23.5451 71.3471 23.1723 71.7801 22.5759 72.6823C21.9422 73.5484 21.4203 74.5589 20.9357 75.5332C19.7801 77.5902 18.8482 79.6833 17.9163 81.8847C17.3572 83.1477 16.8353 84.5191 16.4252 85.6378C16.0152 86.7926 15.4188 87.9835 15.0087 89.1383C14.7478 89.7518 13.9277 90.1126 12.9958 89.9683C12.2503 89.86 11.8402 89.3187 11.9521 88.9217L11.9893 88.7774C12.1012 87.9474 11.9521 87.0813 11.8775 86.2513C11.7284 84.5912 11.542 81.9929 11.0947 80.0442C10.7219 78.5646 10.2373 77.0489 9.75275 76.0385C9.37998 75.2445 9.00722 74.5589 8.67173 74.198C8.00075 73.368 7.06884 72.2853 5.65233 72.3936C4.57132 72.4658 3.45302 73.4762 3.22936 75.028C3.08026 75.8941 3.15481 76.8685 3.60213 77.3737L4.01217 77.7707C4.57132 77.9872 4.79498 78.5285 4.49676 78.9616Z" fill="#62412B"/>
<path d="M26.2504 88.2063C26.1701 88.7663 25.3665 89.289 24.4023 89.3636C23.4782 89.401 22.755 89.0276 22.8354 88.4676L24.6032 77.7901C24.6835 77.2675 25.5674 76.7448 26.4915 76.7075C27.4557 76.6328 28.0985 77.0435 28.0182 77.6035L26.2504 88.2063ZM27.3754 71.5181C26.1701 71.5927 25.3263 70.958 25.487 70.0994C25.6076 69.2407 26.6924 68.5313 27.8977 68.4567C29.0628 68.382 29.9467 69.0167 29.786 69.8754C29.6253 70.734 28.5405 71.4434 27.3754 71.5181Z" fill="#62412B"/>
<path d="M34.3761 78.3112L33.1908 86.2463C33.1211 86.6467 33.4 86.7559 33.5743 86.7559C35.3174 86.2827 36.0146 87.9207 33.9578 88.5759C33.6789 88.6487 33.4 88.6851 33.0514 88.7215C32.3542 88.7579 31.5524 88.7215 31.2037 88.3211C30.646 87.8843 30.2625 87.2655 30.2276 86.7559V86.6467L31.4478 78.4932H31.2735C30.5065 78.5296 29.7396 78.1656 29.8093 77.6196C29.879 77.11 30.646 76.6004 31.4478 76.564L31.7615 76.5276L32.6331 70.74C32.7028 70.2304 33.3652 69.7936 34.2367 69.7208C35.0385 69.6844 35.666 70.0484 35.5963 70.5944L34.7596 76.3092L36.0843 76.2364C36.8861 76.2 37.4788 76.564 37.4091 77.11C37.3393 77.656 36.6073 78.1292 35.8054 78.1656L34.3761 78.3112Z" fill="#62412B"/>
<path d="M42.6094 76.2778C42.8246 76.1632 43.1116 76.0487 43.4344 75.8959C44.0083 75.6667 44.6539 75.5139 45.3712 75.4375C45.8734 75.3993 46.3038 75.4375 46.6266 75.5139C47.3081 75.6667 48.8145 76.1632 47.9179 77.3473C47.3798 78.0731 46.3755 78.1876 45.7299 77.7293C44.8691 77.08 43.4703 77.9967 42.7529 78.9516C42.3942 79.4481 42.179 80.3266 42.0355 81.0142L41.103 87.6603C40.9954 88.2332 40.3139 88.6534 39.4531 88.7298C38.6281 88.768 37.9825 88.386 38.0542 87.8131L39.6324 76.8508C39.7041 76.316 40.4932 75.7813 41.3182 75.7431C41.9279 75.7049 42.4301 75.9341 42.6094 76.2778Z" fill="#62412B"/>
<path d="M51.6163 86.9387C51.5359 87.4987 50.7324 88.0214 49.7681 88.096C48.8441 88.1334 48.1209 87.76 48.2012 87.2L49.969 76.5225C50.0494 75.9999 50.9333 75.4772 51.8573 75.4398C52.8216 75.3652 53.4644 75.7759 53.384 76.3359L51.6163 86.9387ZM52.7412 70.2504C51.5359 70.3251 50.6922 69.6904 50.8529 68.8318C50.9734 67.9731 52.0582 67.2637 53.2635 67.1891C54.4286 67.1144 55.3125 67.7491 55.1518 68.6078C55.0313 69.4291 53.9465 70.1758 52.7412 70.2504Z" fill="#62412B"/>
<path d="M58.5718 80.0171L57.6004 86.3987C57.5285 86.9457 56.7729 87.4198 55.9454 87.4562C55.082 87.5292 54.4704 87.128 54.5423 86.581L56.1613 75.9329C56.2333 75.4223 56.9528 74.9118 57.8163 74.8753C58.4998 74.8389 59.0755 75.0941 59.1834 75.4588C59.9749 75.2035 60.6945 74.8753 61.6299 74.8024C62.2055 74.7659 62.7092 74.8024 63.1409 74.9118C64.3282 75.2035 65.5874 75.9693 66.0191 77.355C66.163 77.975 66.235 78.5949 66.163 79.1419L65.4435 83.919C65.6593 85.1588 67.0984 83.5179 67.782 84.6848C67.9978 85.0494 67.71 85.7058 67.1344 86.0705C66.5588 86.4352 65.9112 86.7634 64.9398 86.8363C63.9324 86.9092 63.1769 86.581 62.8891 86.0705C62.4214 85.4506 62.3854 84.9036 62.3494 84.2107L63.1049 79.3607C63.2848 78.1573 62.7452 76.6622 61.3061 76.7351C60.5505 76.7716 59.6871 77.4645 59.0395 78.4855C58.8236 78.9231 58.6437 79.5066 58.5718 80.0171Z" fill="#62412B"/>
<path d="M87.2775 80.7492C87.6462 81.0837 87.6462 81.7154 87.2775 82.1241C86.3559 83.1275 85.1024 84.1308 83.5171 84.9483C82.1898 85.6172 80.7152 86.0631 79.0561 86.1746C77.8764 86.2489 76.9178 86.1374 76.033 85.8773C73.4892 85.1341 71.3509 83.2018 70.6504 80.3776C70.3554 79.1513 70.3186 77.6649 70.5029 76.3272C70.7241 74.8408 71.314 73.2801 72.1251 71.8308C72.8624 70.5674 73.9684 69.3039 75.2957 68.152C75.9593 67.5946 76.881 67 78.0607 66.4055C79.3142 65.8109 80.6783 65.4021 82.2636 65.2907C83.5171 65.2535 84.5494 65.3278 85.3604 65.5879C86.7614 66.0339 87.8674 66.7771 88.5679 68.1891C88.7522 68.7465 88.826 69.3783 88.7522 70.01C88.6416 70.7903 88.273 71.5707 87.7937 72.3511C87.3881 72.9456 86.6508 73.726 85.6185 74.5807C84.8443 75.1752 83.8857 75.2124 83.4433 74.6178C83.1853 74.2462 83.2959 73.5773 83.812 73.2057C84.1069 72.9828 84.5125 72.5369 84.918 72.0166C85.0655 71.7937 85.2867 71.3849 85.471 70.939C85.5079 70.7903 85.5816 70.5674 85.6185 70.2329C85.6922 69.8613 85.6554 69.5269 85.5816 69.3039C85.3604 68.3006 84.6231 67.7432 83.8857 67.5574C83.3327 67.4088 82.6691 67.3716 81.8949 67.3716C81.2313 67.4088 80.4939 67.5946 79.7935 67.8547C79.2405 68.0777 78.5769 68.4493 77.8026 69.0067C76.7335 69.787 75.5906 71.3106 74.7058 72.8713C74.2265 73.8375 73.821 75.0266 73.6735 76.2157C73.4523 77.6278 73.4892 78.8912 73.821 79.8574C74.6689 82.7187 77.2496 84.9483 80.8995 83.945C82.3373 83.4991 83.6277 82.4214 85.0286 80.935C85.766 80.0432 86.6877 80.1918 87.2775 80.7492Z" fill="#926C15"/>
<path d="M90.4579 77.1942C90.8951 76.3485 91.6602 75.4292 92.5345 74.5099C93.1903 73.8848 94.1375 73.2596 95.2668 72.7448C95.8862 72.4874 96.5419 72.3403 97.2706 72.2668C97.8899 72.23 98.3999 72.2668 98.8371 72.4139C100.258 72.9654 101.205 73.8848 101.424 75.5763C101.497 76.1646 101.46 76.6794 101.387 77.1207C101.278 78.0032 100.95 78.9593 100.404 79.9889C99.9665 80.8714 99.2014 81.7907 98.327 82.6732C97.1613 83.8867 95.3397 84.806 93.6639 84.9163C93.081 84.9531 92.4616 84.9163 92.0609 84.7692C91.3687 84.5486 90.6765 84.1809 90.2393 83.5558C89.0371 81.8643 89.1828 79.5108 90.4579 77.1942ZM93.2631 77.709C92.9352 78.3709 92.6802 79.1431 92.5345 79.8786C92.4616 80.3934 92.4616 80.7979 92.4981 81.092C92.6074 81.8643 92.826 83.0777 93.8825 83.0042C94.5746 82.9674 95.3033 82.4158 95.9226 81.8275C96.0683 81.7172 96.3598 81.3862 96.7241 80.9817C96.9062 80.7611 97.1977 80.2095 97.562 79.5844C97.8899 78.8857 98.1449 78.1135 98.2542 77.4149C98.327 76.9 98.327 76.4956 98.327 76.1646C98.2542 75.4659 97.8899 74.2157 96.9427 74.2892C95.8862 74.3628 94.939 75.3556 94.1375 76.3117C93.9189 76.5323 93.591 77.0471 93.2631 77.709Z" fill="#926C15"/>
<path d="M108.21 73.5792L106.647 83.2588C106.529 83.813 105.787 84.2563 104.849 84.2932C103.95 84.3302 103.246 83.9607 103.324 83.4066L104.888 73.7639L104.223 73.8008C103.324 73.8378 102.66 73.4683 102.738 72.9142C102.855 72.3969 103.676 71.8797 104.575 71.8428L105.2 71.8058L106.178 65.8946C106.256 65.599 106.686 65.0449 107.077 64.6754C108.054 63.7148 109.539 63.2346 111.142 63.4193C111.963 63.5671 112.393 64.0473 112.197 64.5276C111.924 65.1557 110.946 65.5251 110.086 65.3774C109.852 65.3774 109.461 65.6729 109.461 65.9685L108.523 71.5841L109.031 71.5472C109.969 71.4733 110.634 71.8797 110.516 72.4339C110.438 72.9511 109.656 73.4683 108.718 73.5053L108.21 73.5792Z" fill="#926C15"/>
<path d="M115.455 72.9454L113.995 82.625C113.886 83.1792 113.193 83.6225 112.317 83.6594C111.478 83.6964 110.822 83.3269 110.895 82.7728L112.354 73.1301L111.734 73.167C110.895 73.204 110.274 72.8345 110.347 72.2804C110.457 71.7631 111.223 71.2459 112.062 71.209L112.646 71.172L113.558 65.2608C113.631 64.9652 114.032 64.4111 114.397 64.0416C115.309 63.081 116.695 62.6007 118.191 62.7855C118.957 62.9333 119.358 63.4135 119.176 63.8938C118.921 64.5219 118.008 64.8913 117.206 64.7436C116.987 64.7436 116.622 65.0391 116.622 65.3347L115.747 70.9503L116.221 70.9134C117.096 70.8395 117.717 71.2459 117.607 71.8001C117.534 72.3173 116.805 72.8345 115.929 72.8715L115.455 72.9454Z" fill="#926C15"/>
<path d="M121.221 80.2678C121.726 80.7138 122.268 81.1599 123.135 81.0855C124.362 81.0112 125.265 80.1934 126.023 79.1526C126.528 78.4463 127.539 78.2233 128.189 78.6322C128.659 78.9296 128.767 79.5243 128.514 79.9332C128.153 80.4536 127.539 81.0484 126.709 81.6803C125.626 82.4981 124.182 82.9442 122.846 83.0185C122.088 83.0557 121.438 82.9813 120.932 82.8698C120.21 82.6468 119.741 82.4237 119.38 82.1635C118.369 81.3829 117.719 80.4908 117.502 79.5243C117.322 78.7809 117.249 77.9631 117.394 77.1453C117.538 76.2532 117.899 75.2867 118.441 74.3574C119.741 72.0527 122.449 70.5287 124.904 70.38C125.337 70.3428 125.806 70.3428 126.203 70.38C127.287 70.4915 128.622 70.7517 129.345 71.681C129.742 72.2014 129.922 72.6103 129.958 73.0192C130.031 73.3909 129.994 73.7255 129.958 73.9857C129.85 74.8406 129.417 75.993 128.478 76.8851C127.214 78.0746 125.337 78.7437 123.784 78.8552C122.882 78.9296 119.344 77.4055 121.329 75.993C122.16 75.3982 123.135 75.6584 123.387 76.4019C123.423 76.5506 123.423 76.7736 123.712 76.8479C125.192 77.0338 126.601 75.9186 126.853 74.3946C127.142 72.5731 125.409 71.7925 123.532 72.6103C122.665 73.0192 121.654 73.9857 121.04 75.2124C120.246 76.7364 120.03 79.2269 121.221 80.2678Z" fill="#926C15"/>
<path d="M66.6358 63.3065C65.9013 63.3065 65.1668 63.3434 64.4323 63.3434C63.4407 63.3434 62.4859 63.3434 61.4943 63.3803C60.6497 63.3803 59.7683 63.3434 58.9236 63.3434C58.5564 63.3434 58.1891 63.3065 57.8219 63.3065C53.672 62.642 49.5221 62.0514 45.3723 61.3132C44.4541 61.1655 43.536 60.6487 42.6914 60.2058C40.5613 58.9877 40.5981 57.4373 42.7648 56.2561C44.0502 55.5917 45.4457 55.1487 46.9514 54.5212C46.0333 53.783 45.1519 53.1554 44.3807 52.4172C37.8805 46.4373 34.8323 38.7964 33.6571 30.2326C33.2899 27.6487 35.0894 25.9876 37.9539 25.9876C49.1549 25.9876 60.3559 25.9876 71.5569 25.9876C75.7802 25.9876 80.0035 26.0245 84.2268 25.9876C86.0998 25.9507 87.5688 26.5044 88.5603 28.3131C91.2045 27.0212 93.8487 26.1353 96.8234 27.0212C100.716 28.2024 103.507 31.8568 103.36 35.7695C103.25 39.5346 100.533 42.4876 96.2725 43.2628C94.069 43.6689 91.7921 43.7796 89.5519 44.1118C88.2665 44.2964 87.0179 44.7024 85.7693 44.9977C85.806 45.2561 85.806 45.5514 85.8427 45.8098C86.467 45.8098 87.2015 46.0313 87.6422 45.7729C88.8541 44.9977 89.8824 45.0346 90.7271 46.142C91.6819 47.3601 91.131 48.4306 90.1028 49.3534C87.8626 51.3098 84.741 50.793 82.6477 48.4306C80.5911 50.4608 78.5345 52.5279 76.5881 54.4474C77.5797 54.7796 79.269 55.1856 80.8114 55.9608C81.7296 56.4407 83.0149 57.5111 82.9782 58.2863C82.9415 59.0984 81.6928 60.2796 80.7747 60.5749C77.8368 61.5346 74.7886 62.1622 71.7405 62.8266C70.4184 63.1219 69.0596 63.1588 67.7375 63.3065C67.3703 63.3065 67.003 63.3065 66.6358 63.3065ZM72.1444 52.8601C72.2914 52.7494 72.4382 52.6756 72.5852 52.5648C73.4298 51.9742 74.2745 51.3467 75.1191 50.7561C76.6249 49.1689 78.1306 47.5447 79.6363 45.9575C80.334 44.8501 81.0318 43.7058 81.6928 42.5984C81.7663 42.4876 81.8765 42.34 81.9499 42.2293C81.9866 42.1185 82.0234 42.0078 82.0601 41.8601C82.1702 41.6017 82.3172 41.3433 82.4273 41.1219C82.5008 41.0111 82.5742 40.8635 82.6477 40.7527C82.6844 40.642 82.7211 40.4944 82.7946 40.3836C82.9415 40.0145 83.0884 39.6454 83.272 39.3131C83.4923 38.6856 83.7127 38.095 83.933 37.4675C84.0432 37.0984 84.1534 36.6923 84.3003 36.3232C84.4105 36.0648 84.4839 35.8433 84.5941 35.585C84.741 34.8467 84.8879 34.1454 85.0715 33.4071C85.1817 33.038 85.2551 32.6319 85.3653 32.2628C86.21 29.0883 86.1732 29.0145 83.0149 29.0145C68.2149 29.0145 53.4517 29.0145 38.6517 28.9776C37.1092 28.9776 36.2279 29.199 36.8522 31.0447C37.146 31.8937 37.2194 32.8534 37.403 33.7393C37.4765 33.9608 37.5132 34.1454 37.5867 34.3668C37.6234 34.5145 37.6968 34.699 37.7336 34.8467C37.8437 35.2158 37.9539 35.6219 38.0641 35.991C38.3212 36.7293 38.5415 37.4306 38.7986 38.1688C38.9087 38.538 39.0556 38.9071 39.1658 39.2762C40.4512 42.9675 42.4343 46.1789 45.2254 48.9105C45.2254 49.0581 45.2988 49.132 45.4457 49.132V49.2427H45.5559C45.5559 49.3903 45.6293 49.4642 45.7762 49.4642C46.6209 50.1655 47.4288 50.8299 48.2735 51.5313C48.4204 51.642 48.5673 51.7528 48.7509 51.8635C48.8978 51.9742 49.0447 52.085 49.1916 52.1957C49.412 52.3434 49.6323 52.491 49.8527 52.6018C50.477 52.9709 51.138 53.3031 51.7623 53.6722C51.9827 53.783 52.203 53.8937 52.4234 54.0044C53.1579 54.2628 53.8556 54.5581 54.5901 54.8165C55.5817 55.0749 56.5732 55.2964 57.5648 55.5548C57.675 55.5917 57.7852 55.6286 57.8586 55.6286C58.1157 55.7024 58.4095 55.7393 58.6665 55.8132C58.9236 55.8132 59.144 55.8501 59.401 55.8501C60.7598 55.8501 62.0819 55.8501 63.4407 55.8501C63.7713 55.7763 64.1018 55.7393 64.4323 55.6655C64.5792 55.6286 64.7261 55.5917 64.873 55.5548C65.4973 55.4071 66.0849 55.2964 66.7092 55.1487C67.1132 55.038 67.5172 54.9273 67.9211 54.8165C69.2432 54.2259 70.5653 53.6722 71.8874 53.0816C72.0343 53.0816 72.1077 53.0447 72.1444 52.8971V52.8601ZM98.8432 36.7662C98.8432 35.991 98.8799 35.2158 98.8799 34.4407C98.4025 33.7024 97.9618 32.9272 97.4844 32.189C94.7668 29.9742 88.9276 31.4507 87.8993 34.6621C87.3117 36.5078 86.7975 38.3903 86.2467 40.3098C88.9276 39.9776 91.5717 39.7192 94.2159 39.2393C95.4645 39.0178 96.6764 38.3534 97.8884 37.8735C98.2189 37.5044 98.5127 37.1353 98.8432 36.7662Z" fill="#62412B"/>
<path d="M62.8587 0C65.5014 2.32318 66.0455 6.04763 64.3355 8.81332C63.7914 9.69833 63.1307 10.5834 62.3923 11.3209C60.0217 13.7547 58.7003 16.4835 59.5553 20.2817C57.1458 17.0366 57.1458 14.5291 59.2444 11.8003C59.7108 11.2102 60.1771 10.6202 60.7212 10.0671C63.3639 7.22766 64.2966 4.01946 62.8587 0Z" fill="#62412B"/>
<path d="M46.9435 20.2817C47.5612 17.5679 45.7853 15.8183 44.1639 13.9972C42.4267 12.069 41.8477 9.99802 43.3533 7.60563C43.1216 10.9264 45.5537 13.0331 47.3681 15.3898C48.6035 17.068 48.4491 18.4963 46.9435 20.2817Z" fill="#62412B"/>
<path d="M76.1804 21.5493C76.7093 18.9692 75.0847 17.3239 73.6868 15.6039C71.9111 13.3977 71.7599 11.4159 73.649 8.87324C72.8178 12.5377 74.7447 14.5943 76.4449 16.7631C77.7672 18.4457 77.6539 20.1658 76.1804 21.5493Z" fill="#62412B"/>
<path d="M78.9619 44.638C77.4568 46.3013 75.9885 47.9277 74.4835 49.591C74.4101 49.6649 74.2999 49.7388 74.2265 49.8497C74.0797 49.9606 73.9328 50.1085 73.786 50.2194C73.3088 50.552 72.8316 50.8477 72.3544 51.1804C72.2076 51.1804 72.1341 51.2174 72.0974 51.3652L72.024 51.4022C71.8772 51.5131 71.7304 51.587 71.5835 51.6979C71.1063 51.9566 70.6291 52.1784 70.1519 52.4371C69.895 52.548 69.638 52.6959 69.4177 52.8068C69.3076 52.8437 69.1975 52.8807 69.0507 52.9176C68.9038 52.9916 68.757 53.1025 68.6102 53.1764C68.3899 53.2133 68.1697 53.2873 67.9127 53.3242C67.7659 53.3982 67.619 53.4721 67.4722 53.546H67.3254L67.1785 53.6199C66.8115 53.7308 66.4444 53.8417 66.0773 53.9526C65.6001 54.0635 65.0862 54.2113 64.609 54.3222C63.9849 54.3592 63.3976 54.3962 62.7736 54.4331C62.5166 54.4701 62.2597 54.4701 62.0027 54.507C60.6812 54.4701 59.323 54.3962 58.0015 54.3592C57.5243 54.2483 57.0104 54.1374 56.5332 54.0265C56.4231 53.9896 56.2762 53.9896 56.1661 53.9526C55.9826 53.9156 55.799 53.8787 55.6155 53.8417C55.3218 53.7308 54.9914 53.6569 54.6978 53.546L54.5877 53.4721H54.4408C54.1472 53.3612 53.8535 53.2873 53.5965 53.1764C50.0726 51.624 47.0625 49.3323 44.4929 46.4861C44.3461 46.2643 44.1993 46.0795 44.0524 45.8578L44.0157 45.7838C43.9056 45.6729 43.8322 45.5251 43.722 45.4142C43.6119 45.2664 43.5018 45.1185 43.3917 45.0076C43.3917 44.8598 43.355 44.7489 43.2448 44.6749C43.1714 44.5641 43.0613 44.4532 42.9879 44.3423C42.0335 42.3463 41.0424 40.3503 40.0879 38.3913C39.9411 38.0216 39.831 37.652 39.6842 37.2824C39.574 36.9128 39.4639 36.5431 39.3171 36.1735C39.3538 35.8039 39.3538 35.4343 39.3905 35.0277C40.0879 35.3603 40.7854 35.693 41.5196 35.9517C43.2081 36.5431 44.7499 37.4672 46.5119 37.8368C47.6131 38.0586 48.7878 38.0586 49.9257 38.0216C50.1093 38.0216 50.2928 37.9847 50.4763 37.9108C50.6966 37.8368 50.9168 37.8368 51.1371 37.7999C51.7244 37.7259 52.275 37.6151 52.8624 37.5042C53.1193 37.4672 53.3763 37.4302 53.67 37.3563C54.294 37.2085 54.8813 37.0976 55.5054 36.9497C55.8724 36.8388 56.2395 36.728 56.6433 36.6171C57.3775 36.4322 58.1116 36.2474 58.8458 36.0626C58.9559 35.9887 59.066 35.9148 59.2129 35.8778C60.0572 35.6191 60.9382 35.3603 61.7825 35.1016C62.1495 34.9907 62.5166 34.8798 62.8837 34.7689C62.9938 34.732 63.1407 34.732 63.2508 34.695C63.5077 34.6211 63.8014 34.5471 64.0584 34.4732L64.2052 34.5102L64.3153 34.3993C68.6102 33.9188 72.8683 33.4383 77.1632 32.9577C77.4201 32.9947 77.6404 33.0317 77.8973 33.0686C78.7783 33.2165 79.6593 33.4013 80.5036 33.5492C80.7606 33.5861 80.9808 33.5861 81.2378 33.6231H81.2745C81.6415 33.734 81.9719 33.8449 82.339 33.9557C82.4491 34.0297 82.5592 34.0666 82.6694 34.0297C82.8162 34.1406 82.9263 34.2514 83.0732 34.3623C83.0732 34.6211 83.0732 34.8798 83.0732 35.1385C82.963 35.5082 82.8529 35.8778 82.7428 36.2474C82.6694 36.3214 82.6327 36.4322 82.6694 36.5431C82.5592 36.9497 82.4124 37.3194 82.3023 37.7259C81.5681 39.4262 80.834 41.1265 80.0998 42.8268C80.0264 42.9747 79.9163 43.1225 79.8428 43.2704C79.7327 43.3443 79.696 43.4182 79.7327 43.5661C79.6226 43.7139 79.5125 43.8618 79.4391 44.0096V44.0466C79.2555 44.1944 79.1087 44.4162 78.9619 44.638ZM53.5965 50.2563C56.4598 52.1784 61.0483 52.4371 64.9761 51.2543C71.4367 49.2953 75.6948 44.8967 78.4479 38.8718C78.7416 38.2434 78.8517 37.0237 78.4847 36.691C77.9707 36.2474 76.7961 36.0257 76.172 36.3214C74.8873 36.9128 73.5658 37.689 72.5746 38.7239C70.4089 40.9787 68.5368 43.4921 66.4077 45.7838C63.3609 49.0366 59.6167 50.7368 55.0649 50.1824C54.6244 50.1085 54.1105 50.2194 53.5965 50.2563Z" fill="#62412B"/>
<path d="M42.9966 35.7448C42.4233 35.5213 41.8859 35.2234 41.3843 34.8882C41.2768 34.8137 39.9512 33.957 39.9512 33.9198C40.8827 32.0948 43.8206 30.6422 46.1852 31.1637C49.3022 31.8341 52.3475 32.8397 55.4645 33.6591C56.611 33.957 57.7933 34.106 58.9398 34.3295C58.9398 34.4412 58.9756 34.553 58.9756 34.6647C58.7248 34.7764 58.5099 34.8882 58.2591 34.9999C57.865 35.1116 57.4709 35.2234 57.0768 35.3723C56.7543 35.4468 56.4319 35.5213 56.1094 35.5958C55.9661 35.6703 55.8586 35.7076 55.7153 35.782C55.2496 35.931 54.7838 36.0428 54.318 36.1917C53.9239 36.3035 53.494 36.378 53.0999 36.4897C52.8491 36.5642 52.5267 36.5269 52.2759 36.5269C51.9893 36.5269 51.7026 36.5642 51.416 36.5642C50.8428 36.6014 50.2695 36.6387 49.6963 36.6759C49.3022 36.7132 48.8364 36.7877 48.4423 36.7504C48.0841 36.7132 47.69 36.7132 47.3317 36.6759C45.9344 36.6014 44.3938 36.3407 42.9966 35.7448ZM54.2464 34.9627C54.2822 34.7392 54.318 34.5157 54.3897 34.255C50.5562 33.6591 47.0451 30.7912 43.2473 32.43C46.6868 33.2494 50.4487 34.106 54.2464 34.9627Z" fill="#62412B"/>
</svg>
