<svg width="32" height="32" viewBox="0 0 32 32" fill="none" xmlns="http://www.w3.org/2000/svg">
<path d="M32 16C32 24.8366 24.8366 32 16 32C7.16344 32 0 24.8366 0 16C0 7.16344 7.16344 0 16 0C24.8366 0 32 7.16344 32 16Z" fill="#62412B"/>
<path d="M16.0356 7.11138C11.1823 7.11138 7.22675 11.0669 7.22675 15.9203C7.22675 17.4758 7.63564 18.9869 8.40008 20.3203L7.15564 24.8892L11.8223 23.6625C13.1112 24.3647 14.5601 24.738 16.0356 24.738C20.889 24.738 24.8445 20.7825 24.8445 15.9292C24.8445 13.5736 23.929 11.3603 22.2667 9.69805C21.4518 8.87487 20.4811 8.2222 19.4113 7.77809C18.3415 7.33399 17.194 7.10735 16.0356 7.11138Z" fill="white"/>
<path d="M12.3289 12.1247C12.5333 11.9025 12.7733 11.8491 12.9155 11.8491C13.0667 11.8491 13.2089 11.858 13.3333 11.858C13.4755 11.8669 13.6533 11.8136 13.8311 12.2402C14.0178 12.6758 14.4622 13.778 14.5155 13.8758C14.5689 13.9825 14.6044 14.1069 14.5333 14.258C14.4622 14.4002 14.4267 14.498 14.3111 14.6225C14.2222 14.7558 14.08 14.9158 13.9822 15.0136C13.8755 15.1113 13.7778 15.2447 13.8844 15.458C14.0178 15.6802 14.4533 16.4002 15.1111 16.9869C15.9467 17.7336 16.6578 17.9647 16.8889 18.0802C17.1022 18.1869 17.2267 18.1691 17.36 18.018C17.4844 17.8758 17.9111 17.378 18.0533 17.1558C18.2222 16.9425 18.3467 16.978 18.5511 17.0491C18.7467 17.1202 19.8311 17.6536 20.0533 17.778C20.2755 17.8758 20.4178 17.9291 20.48 18.018C20.5333 18.1158 20.5333 18.5513 20.3467 19.0669C20.16 19.5825 19.2889 20.0536 18.8622 20.1158C18.48 20.1691 18 20.1958 17.4755 20.0269C17.1555 19.9291 16.7467 19.7958 16.2222 19.5558C14.0089 18.6136 12.5689 16.3913 12.4444 16.2402C12.3467 16.0891 11.5555 15.0491 11.5555 13.9647C11.5555 12.8891 12.1333 12.3469 12.3289 12.1247Z" fill="#62412B"/>
</svg>
