<svg width="36" height="36" viewBox="0 0 36 36" fill="none" xmlns="http://www.w3.org/2000/svg">
<path d="M36 18C36 27.9411 27.9411 36 18 36C8.05887 36 0 27.9411 0 18C0 8.05887 8.05887 0 18 0C27.9411 0 36 8.05887 36 18Z" fill="#FFCE23"/>
<path d="M18.0398 8.00006C12.5798 8.00006 8.1298 12.4501 8.1298 17.9101C8.1298 19.6601 8.5898 21.3601 9.4498 22.8601L8.0498 28.0001L13.2998 26.6201C14.7498 27.4101 16.3798 27.8301 18.0398 27.8301C23.4998 27.8301 27.9498 23.3801 27.9498 17.9201C27.9498 15.2701 26.9198 12.7801 25.0498 10.9101C24.133 9.98399 23.041 9.24973 21.8374 8.75011C20.6339 8.25049 19.3429 7.99552 18.0398 8.00006Z" fill="#1D1D1B"/>
<path d="M13.87 13.6401C14.1 13.3901 14.37 13.3301 14.53 13.3301C14.7 13.3301 14.86 13.3401 15 13.3401C15.16 13.3501 15.36 13.2901 15.56 13.7701C15.77 14.2601 16.27 15.5001 16.33 15.6101C16.39 15.7301 16.43 15.8701 16.35 16.0401C16.27 16.2001 16.23 16.3101 16.1 16.4501C16 16.6001 15.84 16.7801 15.73 16.8901C15.61 17.0001 15.5 17.1501 15.62 17.3901C15.77 17.6401 16.26 18.4501 17 19.1101C17.94 19.9501 18.74 20.2101 19 20.3401C19.24 20.4601 19.38 20.4401 19.53 20.2701C19.67 20.1101 20.15 19.5501 20.31 19.3001C20.5 19.0601 20.64 19.1001 20.87 19.1801C21.09 19.2601 22.31 19.8601 22.56 20.0001C22.81 20.1101 22.97 20.1701 23.04 20.2701C23.1 20.3801 23.1 20.8701 22.89 21.4501C22.68 22.0301 21.7 22.5601 21.22 22.6301C20.79 22.6901 20.25 22.7201 19.66 22.5301C19.3 22.4201 18.84 22.2701 18.25 22.0001C15.76 20.9401 14.14 18.4401 14 18.2701C13.89 18.1001 13 16.9301 13 15.7101C13 14.5001 13.65 13.8901 13.87 13.6401Z" fill="#FFCE23"/>
</svg>
