<svg width="32" height="32" viewBox="0 0 32 32" fill="none" xmlns="http://www.w3.org/2000/svg">
<path d="M32 16C32 24.8366 24.8366 32 16 32C7.16344 32 0 24.8366 0 16C0 7.16344 7.16344 0 16 0C24.8366 0 32 7.16344 32 16Z" fill="#62412B"/>
<path d="M7.11121 16.6294V15.3707C7.11121 12.7974 7.11121 11.5103 7.91565 10.6827C8.72098 9.8543 9.98854 9.81874 12.5228 9.74674C13.7228 9.71296 14.9494 9.68896 16.0001 9.68896C17.0499 9.68896 18.2765 9.71296 19.4774 9.74674C22.0116 9.81874 23.2792 9.8543 24.0836 10.6827C24.889 11.5103 24.889 12.7983 24.889 15.3707V16.6285C24.889 19.2027 24.889 20.489 24.0845 21.3174C23.2792 22.145 22.0125 22.1814 19.4774 22.2525C18.2774 22.2872 17.0508 22.3112 16.0001 22.3112C14.8408 22.3077 13.6815 22.2881 12.5228 22.2525C9.98854 22.1814 8.72098 22.1459 7.91565 21.3174C7.11121 20.489 7.11121 19.2019 7.11121 16.6294Z" fill="white"/>
<path d="M17.7779 15.9999L14.6667 17.7777V14.2222L17.7779 15.9999Z" fill="#62412B" stroke="#62412B" stroke-width="1.5" stroke-linecap="round" stroke-linejoin="round"/>
</svg>
