<svg width="36" height="36" viewBox="0 0 36 36" fill="none" xmlns="http://www.w3.org/2000/svg">
<path d="M36 18C36 27.9411 27.9411 36 18 36C8.05887 36 0 27.9411 0 18C0 8.05887 8.05887 0 18 0C27.9411 0 36 8.05887 36 18Z" fill="#FFCE23"/>
<path d="M8 18.708V17.292C8 14.397 8 12.949 8.905 12.018C9.811 11.086 11.237 11.046 14.088 10.965C15.438 10.927 16.818 10.9 18 10.9C19.181 10.9 20.561 10.927 21.912 10.965C24.763 11.046 26.189 11.086 27.094 12.018C28 12.949 28 14.398 28 17.292V18.707C28 21.603 28 23.05 27.095 23.982C26.189 24.913 24.764 24.954 21.912 25.034C20.562 25.073 19.182 25.1 18 25.1C16.6958 25.0961 15.3916 25.0741 14.088 25.034C11.237 24.954 9.811 24.914 8.905 23.982C8 23.05 8 21.602 8 18.708Z" fill="#1D1D1B" stroke="#1D1D1B" stroke-width="1.5"/>
<path d="M20 18L16.5 20V16L20 18Z" fill="#FFCE23" stroke="#FFCE23" stroke-width="1.5" stroke-linecap="round" stroke-linejoin="round"/>
</svg>
